<svg id="Layer_1" data-name="Layer 1" xmlns="http://www.w3.org/2000/svg" xmlns:xlink="http://www.w3.org/1999/xlink" viewBox="0 0 208.93 183.56"><defs><style>.cls-1,.cls-2{fill:none;}.cls-2{clip-rule:evenodd;}.cls-3{clip-path:url(#clip-path);}.cls-4{clip-path:url(#clip-path-2);}.cls-5{clip-path:url(#clip-path-3);}.cls-6{clip-path:url(#clip-path-4);}.cls-7{clip-path:url(#clip-path-5);}.cls-8{clip-path:url(#clip-path-6);}.cls-9{clip-path:url(#clip-path-7);}.cls-10{clip-path:url(#clip-path-8);}.cls-11{fill:#fff;}.cls-12{clip-path:url(#clip-path-9);}.cls-13{clip-path:url(#clip-path-10);}.cls-14{clip-path:url(#clip-path-11);}.cls-15{clip-path:url(#clip-path-12);}</style><clipPath id="clip-path"><path class="cls-1" d="M-526.76,61.53v74.3h99c-14.4,43.3-53.3,74.3-99,74.3-57.9,0-104.9-50-104.9-111.5s47.1-111.5,104.9-111.5a100.3,100.3,0,0,1,68,26.9l46-56c-31.5-29.1-71.9-45.2-113.9-45.2-96.4,0-174.9,83.4-174.9,185.8s78.5,185.8,174.9,185.8,174.9-83.4,174.9-185.8V61.43Z"/></clipPath><clipPath id="clip-path-2"><path class="cls-1" d="M-390.86-536.47c33.4,2.6,66.6,5.4,94,13.9-27.2-4.4-60.2-11.1-94-12-14,27.2-42.1,40.5-80.9,43.3,4.2,8.9,12.2,12.3,14.1,26.8,2.9,21.5-4.6,53,2.8,67.3,3.5,6.9,9.3,7,13.2,12.9-9.5,11.1-33.1-1.3-35.7-12.9-4.6-20,7-51-5.6-64.6.9,21.8-5.2,52.4.9,71.9,2.4,7.7,9.4,10.6,7.5,17.5-44.2,4.4-25.7-56.4-32.9-92.2-6.7.5-3.7,9.8-3.8,13.8-.2,35,7.3,83.1-31,78.4-1.1-7.3,5.2-9.9,7.5-16.6,7-19.7-1.3-49.1,1.9-72.9-14.6,10.9,1.5,48.8-7.5,68.3-5.2,11.2-22,16.1-34.8,11.1,1.7-8.3,10.4-7,14.1-14.7,5.2-10.9,0-26.4,1.9-42.4-27.1,5.3-48.1-.7-58.3-17.5-4.6-7.5-5.7-16.4-11.3-23s-14.4-7.6-16.9-16.6c33.5-8,34.8,34,64.9,35,9.2.3,14-2.6,22.6-4.6,2.4-10.6,7.5-18.5,15.1-24-37.5-5.1-68.4-16.6-82.8-44.3a523.85,523.85,0,0,0-94.1,12.9c26.2-9.4,58.5-12.7,93.1-13.8-2-12.1-19.9-8.8-31-8.3-20.6.9-46.6,3.4-63,6.5,23.8-8.4,57.2-7.3,89.4-7.4-9.8-30.5-6.5-78.8,15-96.8-6.1-15.1-4.2-39.9,3.8-51.7,24,1.1,38.5,11.4,53.6,21.2,18.7-5.2,38.3-7.8,63.9-6.4,10.8.6,22,5.3,30.1,4.6s16.7-9.5,24.5-12.9c10.1-4.4,18.6-6,30.1-6.5,5.5,12.4,9.1,32.9,3.8,48,21.9,18.4,29.3,63.1,18.8,99.6,31.1,2.3,68.2-1.1,92.2,8.3-22.4-2.8-52.9-8.4-81.8-6.5C-383.26-543.47-391.26-544-390.86-536.47Z"/></clipPath><clipPath id="clip-path-3"><path class="cls-1" d="M137.44-1429.47a40.83,40.83,0,0,0-.8,23.5,41.74,41.74,0,0,0,30.1,30.1,42.57,42.57,0,0,0,23.5-.8Zm41.2-176.3c70.6,0,132.3,34.1,184.8,90.1a428,428,0,0,1,47,60.4c8,12.4,13.5,22.2,16.5,28.1a21,21,0,0,1-.3,19.2,412.23,412.23,0,0,1-47.5,70.2,20.81,20.81,0,0,1-29.4,2.5,20.81,20.81,0,0,1-2.5-29.4,362.47,362.47,0,0,0,37.2-53.2c-2.6-4.5-5.6-9.5-9-14.7a387.06,387.06,0,0,0-42.4-54.5c-45.3-48.4-97.1-76.9-154.4-76.9a171,171,0,0,0-39,4.5,20.88,20.88,0,0,1-25.1-15.6,20.88,20.88,0,0,1,15.6-25.1A213.54,213.54,0,0,1,178.64-1605.77Zm-125.5,91.9a364,364,0,0,0-80.3,96.1c2.6,4.5,5.6,9.5,9,14.7a387.06,387.06,0,0,0,42.4,54.5c45.3,48.4,97.1,76.9,154,76.9a189.55,189.55,0,0,0,91.6-25.3l-48.4-48.6a83.1,83.1,0,0,1-65,10.1,83.49,83.49,0,0,1-60.2-60.2,83.94,83.94,0,0,1,10.1-65Zm-118.9-148.4a20.76,20.76,0,0,1,29.5,0l459.2,459.2a20.76,20.76,0,0,1,0,29.5,20.76,20.76,0,0,1-29.5,0l-93.2-93.2a231.56,231.56,0,0,1-121.6,36.7c-70.6,0-132.3-34.1-184.8-90.1a428,428,0,0,1-47-60.4c-8-12.4-13.5-22.2-16.5-28.1a21,21,0,0,1,.3-19.2,405.07,405.07,0,0,1,92.9-115.7l-89.3-89.2A20.94,20.94,0,0,1-65.76-1662.27Z"/></clipPath><clipPath id="clip-path-4"><path class="cls-1" d="M-1347.21,80.46a17.21,17.21,0,0,0-.35,9.76,17.29,17.29,0,0,0,12.44,12.44,17.18,17.18,0,0,0,9.77-.34Zm17-72.91c29.19,0,54.72,14.07,76.48,37.27a176.52,176.52,0,0,1,19.43,25,126.44,126.44,0,0,1,6.79,11.6,8.76,8.76,0,0,1-.1,7.93,163.9,163.9,0,0,1-19.68,29,8.59,8.59,0,0,1-12.14,1,8.59,8.59,0,0,1-1-12.15,149.41,149.41,0,0,0,15.41-22q-1.63-2.82-3.71-6.09a156.11,156.11,0,0,0-17.55-22.5c-18.74-20-40.15-31.83-63.89-31.83a70.83,70.83,0,0,0-16.16,1.84,8.6,8.6,0,0,1-10.36-6.45,8.6,8.6,0,0,1,6.44-10.35A85.06,85.06,0,0,1-1330.16,7.55Zm-51.95,38a151.58,151.58,0,0,0-33.2,39.75c1.09,1.89,2.32,3.92,3.71,6.1a156.11,156.11,0,0,0,17.55,22.5c18.73,20,40.15,31.82,63.74,31.82a78.08,78.08,0,0,0,37.92-10.5l-20-20a34.53,34.53,0,0,1-26.91,4.22,34.56,34.56,0,0,1-24.93-24.94A34.56,34.56,0,0,1-1360,67.57Zm-49.16-61.41a8.61,8.61,0,0,1,12.19,0l43.62,43.62a8.4,8.4,0,0,1,.84.94l-.7-.79,102.46,102.45.1.1,0,.1,43.61,43.62a8.68,8.68,0,0,1,.8,11.35l-.8.89a8.61,8.61,0,0,1-12.19,0l-38.56-38.66A95.71,95.71,0,0,1-1330.16,163c-29.2,0-54.72-14.07-76.48-37.27a175.79,175.79,0,0,1-19.43-25,126.44,126.44,0,0,1-6.79-11.6,8.76,8.76,0,0,1,.1-7.93,168,168,0,0,1,38.41-47.88l-36.92-36.93A8.65,8.65,0,0,1-1431.27-15.85Z"/></clipPath><clipPath id="clip-path-5"><path class="cls-1" d="M-965.16,416.6h-33.35a8.42,8.42,0,0,0-8.36,8.47v8.48h50.07v-8.48a8.45,8.45,0,0,0-7.93-8.47Zm0,59.28a8.42,8.42,0,0,1,8.36,8.48v50.85a8.42,8.42,0,0,1-8.36,8.47,8.43,8.43,0,0,1-8.36-8.47V484.36A8.45,8.45,0,0,1-965.16,475.88Zm-33.35,0a8.43,8.43,0,0,1,8.36,8.48v50.85a8.43,8.43,0,0,1-8.36,8.47,8.42,8.42,0,0,1-8.36-8.47V484.36A8.42,8.42,0,0,1-998.51,475.88Zm66.74-25.42h-100.14V560.59a8.46,8.46,0,0,0,7.93,8.48h83.82a8.43,8.43,0,0,0,8.36-8.48Zm-33.39-50.81a25.23,25.23,0,0,1,25,25.42v8.48h33.35a8.38,8.38,0,0,1,8.32,8.05V442a8.42,8.42,0,0,1-8.36,8.48h-8.36V560.63a25.23,25.23,0,0,1-24.45,25.42h-83.93a25.22,25.22,0,0,1-25-25.42V450.5h-8.36a8.38,8.38,0,0,1-8.32-8.05V442a8.42,8.42,0,0,1,8.36-8.47h33.35v-8.48a25.25,25.25,0,0,1,24.45-25.42h33.94Z"/></clipPath><clipPath id="clip-path-6"><path class="cls-1" d="M816.9,1331h-166V1225.62l83,52.69,83-52.69Zm0-126.46-83,52.69-83-52.69Zm20.75,0a21,21,0,0,0-20.75-21.07h-166a21,21,0,0,0-20.75,21.07V1331a21,21,0,0,0,20.75,21.08h166A21,21,0,0,0,837.65,1331Z"/></clipPath><clipPath id="clip-path-7"><path class="cls-1" d="M-506.07,1195.1V1217h23.41Zm-45.27,30.35c5,0,9.05,3.79,9.05,8.47s-4.05,8.46-9.05,8.46h-18.11c-5,0-9-3.79-9-8.46s4-8.47,9-8.47Zm54.32,33.86c5,0,9.06,3.79,9.06,8.46s-4.05,8.47-9.06,8.47h-72.43c-5,0-9-3.79-9-8.47s4-8.46,9-8.46Zm0,33.85c5,0,9.06,3.79,9.06,8.47s-4.05,8.46-9.06,8.46h-72.43c-5,0-9-3.79-9-8.46s4-8.47,9-8.47Zm-27.16-110h-63.38c-5,0-9.05,3.79-9.05,8.46V1327c0,4.68,4.05,8.47,9.05,8.47h108.65c5,0,9.06-3.79,9.06-8.47v-93.11h-45.26a8.83,8.83,0,0,1-9-7.89l0-.58Zm9.06-16.93c.23,0,.47,0,.7,0l-.7,0c.31,0,.62,0,.93,0l.61.07.07,0a9,9,0,0,1,2.13.62l.14.06a9.22,9.22,0,0,1,1.28.69l.06,0c.18.12.35.24.51.37l.1.07.15.12.42.37,54.32,50.79c.17.16.34.32.49.49l-.49-.49a7.13,7.13,0,0,1,.61.62,8.36,8.36,0,0,1,1.17,1.73l.06.13a7.84,7.84,0,0,1,.77,2.63c0,.07,0,.14,0,.22s0,.43,0,.65V1327c0,14-12.17,25.39-27.17,25.39H-587.56c-15,0-27.16-11.36-27.16-25.39V1191.59c0-14,12.16-25.39,27.16-25.39Z"/></clipPath><clipPath id="clip-path-8"><path class="cls-1" d="M137.73,17.69a9.8,9.8,0,0,0-9.85,9.82V58.06a9.79,9.79,0,0,0,9.85,9.82h30.63a9.79,9.79,0,0,0,9.85-9.82V27.51a9.8,9.8,0,0,0-9.85-9.82Zm30.63,65.69H137.73a25.28,25.28,0,0,1-25.17-25.1V27.73A25.32,25.32,0,0,1,137.73,2.42h30.63a25.28,25.28,0,0,1,25.16,25.09V58.06a25.18,25.18,0,0,1-25.16,25.32"/></clipPath><clipPath id="clip-path-9"><path class="cls-1" d="M40.58,114.89a9.8,9.8,0,0,0-9.85,9.84v30.64a9.8,9.8,0,0,0,9.85,9.84H71.21a9.79,9.79,0,0,0,9.84-9.84V124.73a9.79,9.79,0,0,0-9.84-9.84Zm30.63,65.64H40.58a25.31,25.31,0,0,1-25.17-25.16V124.73A25.31,25.31,0,0,1,40.58,99.57H71.21a25.31,25.31,0,0,1,25.16,25.16v30.64a25.17,25.17,0,0,1-25.16,25.16"/></clipPath><clipPath id="clip-path-10"><path class="cls-2" d="M114.58,129.64H191.5c1.12,0,2,1.83,2,4.11V144c0,2.29-.9,4.12-2,4.12H114.58c-1.12,0-2-1.83-2-4.12V133.75c0-2.28.9-4.11,2-4.11"/></clipPath><clipPath id="clip-path-11"><path class="cls-2" d="M163.45,101.59V176.2c0,1.12-1.83,2-4.11,2H149.06c-2.29,0-4.11-.9-4.11-2V101.59c0-1.12,1.82-2,4.11-2h10.51c2.28.22,3.88,1.12,3.88,2"/></clipPath><clipPath id="clip-path-12"><path class="cls-1" d="M40.58,17.69a9.94,9.94,0,0,0-9.85,9.82V58.06a9.79,9.79,0,0,0,9.85,9.82H71.21a9.78,9.78,0,0,0,9.84-9.82V27.51a9.93,9.93,0,0,0-9.84-9.82Zm0,65.69a25.28,25.28,0,0,1-25.17-25.1V27.73A25.32,25.32,0,0,1,40.58,2.42H71.21A25.13,25.13,0,0,1,96.37,27.51V58.06A25.18,25.18,0,0,1,71.21,83.38Z"/></clipPath></defs><g class="cls-10"><rect class="cls-11" x="68.04" y="-42.11" width="170.01" height="170.01"/></g><g class="cls-12"><rect class="cls-11" x="-29.11" y="55.04" width="170.01" height="170.01"/></g><g class="cls-13"><rect class="cls-11" x="68.04" y="85.11" width="170.01" height="107.56"/></g><g class="cls-14"><rect class="cls-11" x="100.42" y="55.04" width="107.56" height="167.7"/></g><g class="cls-15"><rect class="cls-11" x="-29.11" y="-42.11" width="170.01" height="170.01"/></g></svg>