<svg id="Layer_1" data-name="Layer 1" xmlns="http://www.w3.org/2000/svg" xmlns:xlink="http://www.w3.org/1999/xlink" viewBox="0 0 1330.62 1471.35"><defs><style>.cls-1{fill:none;}.cls-2{clip-path:url(#clip-path);}.cls-3{clip-path:url(#clip-path-2);}.cls-4{fill:#afafaf;}.cls-5{clip-path:url(#clip-path-3);}</style><clipPath id="clip-path"><path class="cls-1" d="M1069.26,944.05H855.89V818.42h213.37c63.45,0,112.67-32.17,112.67-59.85V201.46c0-27.69-49.22-59.85-112.67-59.85H262.77c-63.45,0-112.68,32.16-112.68,59.85V758.55c0,27.68,49.23,59.85,112.68,59.85H476.09V944H262.77C128.59,944,23.49,862.56,23.49,758.55V201.43C23.49,97.41,128.59,16,262.77,16h806.51c134.15,0,239.28,81.48,239.28,185.48V758.55C1308.53,862.58,1203.43,944.05,1069.26,944.05Z"/></clipPath><clipPath id="clip-path-2"><rect class="cls-1" x="-93643.5" y="-24828.65" width="102805.24" height="57114.02"/></clipPath><clipPath id="clip-path-3"><path class="cls-1" d="M514.44,1127.22a61.93,61.93,0,0,1,44.25,18.6L637,1225.34V579.21c0-35.08,28-63.51,62.58-63.51s62.58,28.43,62.58,63.51v650.42l82.58-83.81a61.92,61.92,0,0,1,88.49,0,64.16,64.16,0,0,1,0,89.8L746.42,1425.24a61.84,61.84,0,0,1-44.22,18.56h-1A61.84,61.84,0,0,1,657,1425.24L470.18,1235.62a64.14,64.14,0,0,1,0-89.8A62,62,0,0,1,514.44,1127.22Z"/></clipPath></defs><g class="cls-2"><g class="cls-3"><rect class="cls-4" x="-333.47" y="-341.01" width="1998.99" height="1642.03"/></g></g><g class="cls-5"><g class="cls-3"><rect class="cls-4" x="94.88" y="158.74" width="1213.67" height="1642.03"/></g></g></svg>