<?xml version="1.0" encoding="utf-8"?>
<!-- Generator: Adobe Illustrator 24.1.2, SVG Export Plug-In . SVG Version: 6.00 Build 0)  -->
<svg version="1.1" id="Layer_1" xmlns="http://www.w3.org/2000/svg" xmlns:xlink="http://www.w3.org/1999/xlink" x="0px" y="0px"
	 viewBox="0 0 227.7 48" style="enable-background:new 0 0 227.7 48;" xml:space="preserve">
<style type="text/css">
	.st0{fill:#F5F5F5;}
	.st1{clip-path:url(#SVGID_2_);fill:#FFFFFF;}
	.st2{clip-path:url(#SVGID_4_);fill:#FFFFFF;}
	.st3{clip-path:url(#SVGID_6_);fill:#FFFFFF;}
	.st4{clip-path:url(#SVGID_8_);fill:#FFFFFF;}
	.st5{clip-path:url(#SVGID_10_);fill:#FFFFFF;}
	.st6{clip-path:url(#SVGID_12_);fill:#FFFFFF;}
	.st7{clip-path:url(#SVGID_14_);fill:#FFFFFF;}
	.st8{clip-path:url(#SVGID_16_);fill:#FFFFFF;}
	.st9{clip-path:url(#SVGID_18_);fill:#FFFFFF;}
	.st10{clip-path:url(#SVGID_20_);fill:#FFFFFF;}
	.st11{clip-path:url(#SVGID_22_);fill:#FFFFFF;}
	.st12{clip-path:url(#SVGID_24_);fill:#FFFFFF;}
	.st13{clip-path:url(#SVGID_26_);fill:#FFFFFF;}
	.st14{clip-path:url(#SVGID_28_);fill:#FFFFFF;}
	.st15{clip-path:url(#SVGID_30_);fill:#FFFFFF;}
	.st16{clip-path:url(#SVGID_32_);fill:#FFFFFF;}
</style>
<g>
	<path class="st0" d="M115,27.9c0,0.1-0.1,0.2-0.2,0.2c-0.1,0.1-0.2,0.1-0.3,0.1h-0.3l5-12c0.1-0.2,0.2-0.3,0.4-0.3h0.3L115,27.9z"
		/>
	<path class="st0" d="M140.5,21.8c0,0.9-0.1,1.7-0.4,2.4c-0.3,0.7-0.6,1.3-1.1,1.8c-0.5,0.5-1,0.9-1.7,1.1c-0.7,0.3-1.4,0.4-2.2,0.4
		H131V16.2h4.1c0.8,0,1.5,0.1,2.2,0.4c0.7,0.3,1.2,0.6,1.7,1.1c0.5,0.5,0.8,1.1,1.1,1.8C140.4,20.2,140.5,21,140.5,21.8z
		 M139.6,21.8c0-0.8-0.1-1.5-0.3-2.1c-0.2-0.6-0.5-1.1-0.9-1.6s-0.9-0.8-1.4-1c-0.6-0.2-1.2-0.3-1.9-0.3h-3.3v10h3.3
		c0.7,0,1.3-0.1,1.9-0.3c0.6-0.2,1-0.5,1.4-1s0.7-0.9,0.9-1.6C139.5,23.3,139.6,22.6,139.6,21.8z"/>
	<path class="st0" d="M151.4,27.5h-0.6c-0.1,0-0.1,0-0.2-0.1c0,0-0.1-0.1-0.1-0.2l-1.3-3.3h-5.6l-1.3,3.3c0,0.1-0.1,0.1-0.1,0.2
		c-0.1,0-0.1,0.1-0.2,0.1h-0.6l4.6-11.3h0.8L151.4,27.5z M143.8,23.4h5.1l-2.3-5.7c0-0.1-0.1-0.2-0.1-0.3c0-0.1-0.1-0.2-0.1-0.4
		c0,0.1-0.1,0.2-0.1,0.4c0,0.1-0.1,0.2-0.1,0.3L143.8,23.4z"/>
	<path class="st0" d="M158.7,17.6c0,0.1-0.1,0.1-0.2,0.1c-0.1,0-0.2,0-0.3-0.1c-0.1-0.1-0.3-0.2-0.4-0.3c-0.2-0.1-0.4-0.2-0.7-0.3
		c-0.3-0.1-0.6-0.2-1-0.2s-0.8,0.1-1.1,0.2c-0.3,0.1-0.6,0.3-0.8,0.5c-0.2,0.2-0.4,0.4-0.5,0.7s-0.2,0.5-0.2,0.8
		c0,0.4,0.1,0.7,0.2,1c0.2,0.3,0.4,0.5,0.6,0.6c0.3,0.2,0.6,0.3,0.9,0.4s0.7,0.2,1,0.4c0.4,0.1,0.7,0.2,1,0.4
		c0.3,0.1,0.6,0.3,0.9,0.5c0.3,0.2,0.5,0.5,0.6,0.8c0.2,0.3,0.2,0.7,0.2,1.2c0,0.5-0.1,0.9-0.2,1.3s-0.4,0.8-0.7,1.1
		s-0.7,0.6-1.1,0.7c-0.4,0.2-1,0.3-1.5,0.3c-0.7,0-1.4-0.1-1.9-0.4c-0.5-0.3-1-0.6-1.4-1.1l0.2-0.4c0.1-0.1,0.1-0.1,0.2-0.1
		c0,0,0.1,0,0.2,0.1c0.1,0.1,0.2,0.1,0.3,0.2c0.1,0.1,0.2,0.2,0.4,0.3c0.1,0.1,0.3,0.2,0.5,0.3c0.2,0.1,0.4,0.2,0.7,0.2
		c0.3,0.1,0.5,0.1,0.9,0.1c0.4,0,0.8-0.1,1.2-0.2s0.7-0.3,0.9-0.6c0.2-0.2,0.4-0.5,0.6-0.8c0.1-0.3,0.2-0.7,0.2-1
		c0-0.4-0.1-0.7-0.2-1c-0.2-0.3-0.4-0.5-0.6-0.6c-0.3-0.2-0.6-0.3-0.9-0.4c-0.3-0.1-0.7-0.2-1-0.3c-0.4-0.1-0.7-0.2-1-0.4
		s-0.6-0.3-0.9-0.5c-0.3-0.2-0.5-0.5-0.6-0.8c-0.2-0.3-0.2-0.7-0.2-1.2c0-0.4,0.1-0.7,0.2-1.1c0.1-0.4,0.4-0.7,0.6-0.9
		c0.3-0.3,0.6-0.5,1-0.6c0.4-0.2,0.9-0.2,1.4-0.2c0.6,0,1.1,0.1,1.6,0.3c0.5,0.2,0.9,0.5,1.3,0.9L158.7,17.6z"/>
	<path class="st0" d="M170.3,27.5h-0.8v-5.4h-7.1v5.4h-0.8V16.2h0.8v5.3h7.1v-5.3h0.8V27.5z"/>
	<path class="st0" d="M173.7,27.5V16.2h3.3c0.6,0,1.2,0.1,1.7,0.2s0.9,0.3,1.2,0.6c0.3,0.2,0.5,0.6,0.7,0.9s0.2,0.8,0.2,1.2
		c0,0.3-0.1,0.6-0.2,0.9c-0.1,0.3-0.3,0.5-0.5,0.8c-0.2,0.2-0.4,0.4-0.7,0.6c-0.3,0.2-0.6,0.3-1,0.4c0.9,0.1,1.6,0.4,2.1,0.9
		c0.5,0.5,0.7,1.1,0.7,1.8c0,0.5-0.1,0.9-0.3,1.3c-0.2,0.4-0.4,0.7-0.7,1c-0.3,0.3-0.7,0.5-1.2,0.6s-1,0.2-1.6,0.2H173.7z
		 M174.5,21.5h2.5c0.5,0,1-0.1,1.3-0.2c0.4-0.1,0.7-0.3,0.9-0.5c0.2-0.2,0.4-0.5,0.5-0.7s0.2-0.6,0.2-0.9c0-0.8-0.2-1.3-0.7-1.7
		c-0.5-0.4-1.2-0.6-2.2-0.6h-2.4V21.5z M174.5,22.1v4.8h2.8c1,0,1.8-0.2,2.3-0.6c0.5-0.4,0.8-1,0.8-1.8c0-0.4-0.1-0.7-0.2-1
		c-0.1-0.3-0.3-0.5-0.6-0.7s-0.6-0.4-0.9-0.5c-0.4-0.1-0.8-0.2-1.3-0.2H174.5z"/>
	<path class="st0" d="M194,21.8c0,0.9-0.1,1.7-0.4,2.4c-0.3,0.7-0.6,1.3-1.1,1.8s-1,0.9-1.7,1.2c-0.7,0.3-1.4,0.4-2.2,0.4
		c-0.8,0-1.5-0.1-2.2-0.4s-1.2-0.7-1.7-1.2s-0.8-1.1-1.1-1.8s-0.4-1.5-0.4-2.4c0-0.9,0.1-1.7,0.4-2.4s0.6-1.3,1.1-1.8s1-0.9,1.7-1.2
		s1.4-0.4,2.2-0.4c0.8,0,1.5,0.1,2.2,0.4c0.7,0.3,1.2,0.7,1.7,1.2s0.8,1.1,1.1,1.8C193.9,20.2,194,21,194,21.8z M193.2,21.8
		c0-0.8-0.1-1.5-0.3-2.1s-0.5-1.2-0.9-1.6c-0.4-0.4-0.9-0.8-1.4-1c-0.6-0.2-1.2-0.3-1.9-0.3c-0.7,0-1.3,0.1-1.8,0.3
		c-0.6,0.2-1,0.6-1.4,1c-0.4,0.4-0.7,1-0.9,1.6c-0.2,0.6-0.3,1.3-0.3,2.1c0,0.8,0.1,1.5,0.3,2.1c0.2,0.6,0.5,1.2,0.9,1.6
		c0.4,0.4,0.9,0.8,1.4,1c0.6,0.2,1.2,0.3,1.8,0.3c0.7,0,1.3-0.1,1.9-0.3c0.6-0.2,1-0.6,1.4-1c0.4-0.4,0.7-1,0.9-1.6
		C193.1,23.3,193.2,22.6,193.2,21.8z"/>
	<path class="st0" d="M205,27.5h-0.6c-0.1,0-0.1,0-0.2-0.1c0,0-0.1-0.1-0.1-0.2l-1.3-3.3h-5.6l-1.3,3.3c0,0.1-0.1,0.1-0.1,0.2
		c-0.1,0-0.1,0.1-0.2,0.1h-0.6l4.6-11.3h0.8L205,27.5z M197.4,23.4h5.1l-2.3-5.7c0-0.1-0.1-0.2-0.1-0.3c0-0.1-0.1-0.2-0.1-0.4
		c0,0.1-0.1,0.2-0.1,0.4c0,0.1-0.1,0.2-0.1,0.3L197.4,23.4z"/>
	<path class="st0" d="M207.8,22.4v5.1H207V16.2h2.9c1.3,0,2.3,0.3,2.9,0.8c0.6,0.5,1,1.2,1,2.2c0,0.4-0.1,0.8-0.2,1.2
		s-0.4,0.7-0.6,0.9c-0.3,0.3-0.6,0.5-1,0.7c-0.4,0.2-0.8,0.3-1.3,0.3c0.1,0.1,0.2,0.2,0.3,0.3l3.9,4.9h-0.7c-0.1,0-0.2,0-0.2,0
		c-0.1,0-0.1-0.1-0.2-0.2l-3.6-4.6c-0.1-0.1-0.2-0.2-0.3-0.2c-0.1,0-0.3-0.1-0.5-0.1H207.8z M207.8,21.8h2c0.5,0,1-0.1,1.3-0.2
		c0.4-0.1,0.7-0.3,1-0.5c0.3-0.2,0.5-0.5,0.6-0.8c0.1-0.3,0.2-0.7,0.2-1.1c0-0.8-0.3-1.4-0.8-1.8s-1.3-0.6-2.3-0.6h-2.1V21.8z"/>
	<path class="st0" d="M226.4,21.8c0,0.9-0.1,1.7-0.4,2.4c-0.3,0.7-0.6,1.3-1.1,1.8c-0.5,0.5-1,0.9-1.7,1.1c-0.7,0.3-1.4,0.4-2.2,0.4
		h-4.1V16.2h4.1c0.8,0,1.5,0.1,2.2,0.4c0.7,0.3,1.2,0.6,1.7,1.1c0.5,0.5,0.8,1.1,1.1,1.8C226.3,20.2,226.4,21,226.4,21.8z
		 M225.5,21.8c0-0.8-0.1-1.5-0.3-2.1c-0.2-0.6-0.5-1.1-0.9-1.6s-0.9-0.8-1.4-1c-0.6-0.2-1.2-0.3-1.9-0.3h-3.3v10h3.3
		c0.7,0,1.3-0.1,1.9-0.3c0.6-0.2,1-0.5,1.4-1s0.7-0.9,0.9-1.6C225.4,23.3,225.5,22.6,225.5,21.8z"/>
</g>
<g>
	<defs>
		<path id="SVGID_1_" d="M48.5,22L48.5,22c0-3.1,2.4-5.6,5.6-5.6c3.2,0,5.6,2.5,5.6,5.5v0c0,3-2.4,5.5-5.6,5.5
			C50.9,27.5,48.5,25,48.5,22 M57.4,22L57.4,22c0-1.9-1.3-3.4-3.2-3.4c-1.9,0-3.1,1.5-3.1,3.4v0c0,1.8,1.3,3.4,3.2,3.4
			C56.2,25.4,57.4,23.9,57.4,22"/>
	</defs>
	<clipPath id="SVGID_2_">
		<use xlink:href="#SVGID_1_"  style="overflow:visible;"/>
	</clipPath>
	<rect x="43.5" y="11.5" class="st1" width="21.2" height="21"/>
</g>
<g>
	<defs>
		<path id="SVGID_3_" d="M61.6,22L61.6,22c0-3,2.3-5.6,5.3-5.6c1.9,0,3.1,0.7,4.1,1.8l-1.5,1.6c-0.7-0.8-1.5-1.3-2.6-1.3
			c-1.7,0-3,1.5-3,3.4v0c0,1.9,1.3,3.4,3.1,3.4c1.1,0,1.9-0.5,2.7-1.3l1.4,1.4c-1,1.2-2.2,2-4.2,2C63.9,27.5,61.6,25,61.6,22"/>
	</defs>
	<clipPath id="SVGID_4_">
		<use xlink:href="#SVGID_3_"  style="overflow:visible;"/>
	</clipPath>
	<rect x="56.6" y="11.5" class="st2" width="19.5" height="21"/>
</g>
<g>
	<defs>
		<path id="SVGID_5_" d="M83.8,22L83.8,22c0-3.1,2.1-5.6,5-5.6c3.3,0,4.9,2.6,4.9,5.7c0,0.2,0,0.4,0,0.7h-7.5
			c0.3,1.7,1.4,2.7,2.9,2.7c1.1,0,2-0.4,2.8-1.3l1.4,1.3c-1,1.2-2.3,2-4.2,2C86,27.5,83.8,25.3,83.8,22z M91.3,21.1
			c-0.2-1.5-1.1-2.8-2.6-2.8c-1.4,0-2.5,1.1-2.7,2.8H91.3z"/>
	</defs>
	<clipPath id="SVGID_6_">
		<use xlink:href="#SVGID_5_"  style="overflow:visible;"/>
	</clipPath>
	<rect x="78.8" y="11.5" class="st3" width="19.9" height="21"/>
</g>
<g>
	<defs>
		<rect id="SVGID_7_" x="100" y="16.7" width="1.9" height="2.1"/>
	</defs>
	<clipPath id="SVGID_8_">
		<use xlink:href="#SVGID_7_"  style="overflow:visible;"/>
	</clipPath>
	<rect x="95" y="11.7" class="st4" width="11.9" height="12.1"/>
</g>
<g>
	<defs>
		<path id="SVGID_9_" d="M99.1,23.9v-4.3v-2.9v-2.7h-2.4v2.8h-1.3v2h1.3v5.5c0,2.3,1.3,3,3,3c0.9,0,1.6-0.2,2.2-0.5v-1.9
			c-0.5,0.2-1,0.4-1.5,0.4C99.6,25.2,99.1,24.8,99.1,23.9"/>
	</defs>
	<clipPath id="SVGID_10_">
		<use xlink:href="#SVGID_9_"  style="overflow:visible;"/>
	</clipPath>
	<rect x="90.4" y="8.9" class="st5" width="16.5" height="23.4"/>
</g>
<g>
	<defs>
		<polygon id="SVGID_11_" points="73.8,27.1 73.9,16.7 75.9,16.7 75.9,20.4 79.1,16.7 81.7,16.7 75.9,23.5 75.9,27.1 		"/>
	</defs>
	<clipPath id="SVGID_12_">
		<use xlink:href="#SVGID_11_"  style="overflow:visible;"/>
	</clipPath>
	<rect x="68.8" y="11.7" class="st6" width="17.8" height="20.4"/>
</g>
<g>
	<defs>
		<path id="SVGID_13_" d="M82.1,27.3h-2.6l-2.1-3l1.3-1.7L82.1,27.3z M76.1,27.3h-2.2l0-10.6l2.2,0l0,3.5l3-3.5l2.8,0l-5.8,7
			L76.1,27.3z"/>
	</defs>
	<clipPath id="SVGID_14_">
		<use xlink:href="#SVGID_13_"  style="overflow:visible;"/>
	</clipPath>
	<rect x="68.8" y="11.7" class="st7" width="18.2" height="20.6"/>
</g>
<g>
	<defs>
		<path id="SVGID_15_" d="M45.1,18.2c-0.6,0.5-1.2,1-1.7,1.5c0,0,0,0,0,0c0.4,0.6,0.7,1.3,0.7,2.2v0c0,0.8-0.2,1.6-0.7,2.1
			c0,0,0,0,0,0.1c-0.6,0.7-1.4,1.1-2.3,1.1c0,0-3.2,0-3.2,0v8.8h1.9v-6.7c0,0,0.8,0.1,1.2,0.1c3.2,0,5.6-2.5,5.6-5.5v0
			C46.4,20.4,45.9,19.1,45.1,18.2"/>
	</defs>
	<clipPath id="SVGID_16_">
		<use xlink:href="#SVGID_15_"  style="overflow:visible;"/>
	</clipPath>
	<rect x="32.8" y="13.2" class="st8" width="18.6" height="25.7"/>
</g>
<g>
	<defs>
		<path id="SVGID_17_" d="M28.6,24.2c0,5.3-3.4,9.8-8.1,11.5v2.8c6.3-1.8,11-7.7,11-14.6s-4.6-12.7-11-14.6v3.2
			C25.2,14.4,28.6,18.9,28.6,24.2"/>
	</defs>
	<clipPath id="SVGID_18_">
		<use xlink:href="#SVGID_17_"  style="overflow:visible;"/>
	</clipPath>
	<rect x="15.5" y="4.5" class="st9" width="21" height="39.1"/>
</g>
<g>
	<defs>
		<path id="SVGID_19_" d="M1.3,24c0,6.9,4.5,12.7,10.8,14.6v-2.8C7.4,34,4.1,29.5,4.1,24.2c0-5.3,3.3-9.8,7.9-11.5V9.5
			C5.9,11.3,1.3,17.1,1.3,24"/>
	</defs>
	<clipPath id="SVGID_20_">
		<use xlink:href="#SVGID_19_"  style="overflow:visible;"/>
	</clipPath>
	<rect x="-3.7" y="4.5" class="st10" width="20.8" height="39.1"/>
</g>
<g>
	<defs>
		<path id="SVGID_21_" d="M12.1,33.3v11.2h3V33.2c-0.4,0.3-1,0.5-1.5,0.5C13,33.8,12.5,33.6,12.1,33.3"/>
	</defs>
	<clipPath id="SVGID_22_">
		<use xlink:href="#SVGID_21_"  style="overflow:visible;"/>
	</clipPath>
	<rect x="7.1" y="28.2" class="st11" width="13" height="21.3"/>
</g>
<g>
	<defs>
		<path id="SVGID_23_" d="M23,19.7c-0.9,0.7-1.7,1.4-2.6,2.1c0,0,0,0,0,0c0.7,0.9,1,2,1,3.2V25c0,1.2-0.4,2.3-1,3.2
			c0,0,0,0.1-0.1,0.1c-0.9,1-2.1,1.6-3.4,1.6c0,0-0.9,0-1.9,0c0.5,0.4,0.8,1,0.8,1.7c0,0.5-0.2,1-0.5,1.4c0.4,0,1,0.1,1.4,0.1
			c4.7,0,8.2-3.7,8.2-8v-0.1C24.9,22.9,24.2,21.1,23,19.7"/>
	</defs>
	<clipPath id="SVGID_24_">
		<use xlink:href="#SVGID_23_"  style="overflow:visible;"/>
	</clipPath>
	<rect x="10" y="14.7" class="st12" width="19.9" height="23.4"/>
</g>
<g>
	<defs>
		<path id="SVGID_25_" d="M20.5,14.5v-11h-2.7v11c0.4-0.3,0.9-0.5,1.4-0.5C19.7,14,20.1,14.2,20.5,14.5"/>
	</defs>
	<clipPath id="SVGID_26_">
		<use xlink:href="#SVGID_25_"  style="overflow:visible;"/>
	</clipPath>
	<rect x="12.8" y="-1.5" class="st13" width="12.7" height="21"/>
</g>
<g>
	<defs>
		<path id="SVGID_27_" d="M9.8,28.4c0.9-0.7,1.7-1.4,2.6-2.2c0,0,0,0,0,0c-0.7-0.9-1-2-1-3.2v-0.1c0-1.2,0.4-2.3,1-3.2
			c0,0,0-0.1,0.1-0.1c0.9-1.1,2.1-1.6,3.4-1.6c0,0,0.9,0,1.9,0c-0.5-0.4-0.8-1-0.8-1.7c0-0.5,0.2-1,0.5-1.4c-0.4,0-1-0.1-1.4-0.1
			c-4.7,0-8.2,3.7-8.2,8.2V23C7.9,25.1,8.6,26.9,9.8,28.4"/>
	</defs>
	<clipPath id="SVGID_28_">
		<use xlink:href="#SVGID_27_"  style="overflow:visible;"/>
	</clipPath>
	<rect x="2.9" y="9.8" class="st14" width="19.9" height="23.6"/>
</g>
<g>
	<defs>
		<path id="SVGID_29_" d="M19.3,18c0.5,0,1-0.3,1.3-0.7c0.2-0.3,0.3-0.6,0.3-0.9c0-0.3-0.1-0.6-0.3-0.9c-0.3-0.4-0.8-0.7-1.3-0.7
			c-0.9,0-1.6,0.7-1.6,1.6C17.8,17.2,18.5,18,19.3,18"/>
	</defs>
	<clipPath id="SVGID_30_">
		<use xlink:href="#SVGID_29_"  style="overflow:visible;"/>
	</clipPath>
	<rect x="12.8" y="9.8" class="st15" width="13.2" height="13.2"/>
</g>
<g>
	<defs>
		<path id="SVGID_31_" d="M13.4,29.8c-0.5,0-1,0.3-1.3,0.7c-0.2,0.3-0.3,0.6-0.3,0.9c0,0.3,0.1,0.6,0.3,0.9c0.3,0.4,0.8,0.7,1.3,0.7
			c0.9,0,1.6-0.7,1.6-1.6C15,30.6,14.3,29.8,13.4,29.8"/>
	</defs>
	<clipPath id="SVGID_32_">
		<use xlink:href="#SVGID_31_"  style="overflow:visible;"/>
	</clipPath>
	<rect x="6.9" y="24.8" class="st16" width="13.2" height="13.2"/>
</g>
</svg>
