<svg id="Layer_1" data-name="Layer 1" xmlns="http://www.w3.org/2000/svg" viewBox="0 0 418.7 170.91">
  <defs>
    <style>
      .cls-1,.cls-2{fill:none;}.cls-2{clip-rule:evenodd;}.cls-3{clip-path:url(#clip-path);}.cls-4{clip-path:url(#clip-path-2);}.cls-5{clip-path:url(#clip-path-3);}.cls-6{clip-path:url(#clip-path-4);}.cls-7{clip-path:url(#clip-path-5);}.cls-8{clip-path:url(#clip-path-6);}.cls-9{clip-path:url(#clip-path-7);}.cls-10{fill:#27a9e0;}.cls-11{clip-path:url(#clip-path-8);}.cls-12{clip-path:url(#clip-path-10);}.cls-13{clip-path:url(#clip-path-12);}.cls-14{isolation:isolate;}.cls-15{clip-path:url(#clip-path-13);}.cls-16{clip-path:url(#clip-path-14);}.cls-17{clip-path:url(#clip-path-15);}.cls-18{clip-path:url(#clip-path-16);}.cls-19{clip-path:url(#clip-path-17);}.cls-20{clip-path:url(#clip-path-19);}.cls-21{clip-path:url(#clip-path-21);}.cls-22{clip-path:url(#clip-path-23);}.cls-23{fill:#06202e;}.cls-24{clip-path:url(#clip-path-25);}.cls-25{clip-path:url(#clip-path-27);}.cls-26{clip-path:url(#clip-path-29);}.cls-27{clip-path:url(#clip-path-31);}.cls-28{clip-path:url(#clip-path-33);}.cls-29{clip-path:url(#clip-path-35);}.cls-30{clip-path:url(#clip-path-37);}
    </style>
    <clipPath id="clip-path">
      <path class="cls-1"
            d="M-418.6,264v74.3h99c-14.4,43.3-53.3,74.3-99,74.3-57.9,0-104.9-50-104.9-111.5s47.1-111.5,104.9-111.5a100.3,100.3,0,0,1,68,26.9l46-56c-31.5-29.1-71.9-45.2-113.9-45.2-96.4,0-174.9,83.4-174.9,185.8s78.5,185.8,174.9,185.8,174.9-83.4,174.9-185.8v-37.2Z"/>
    </clipPath>
    <clipPath id="clip-path-2">
      <path class="cls-1"
            d="M-282.7-334c33.4,2.6,66.6,5.4,94,13.9-27.2-4.4-60.2-11.1-94-12-14,27.2-42.1,40.5-80.9,43.3,4.2,8.9,12.2,12.3,14.1,26.8,2.9,21.5-4.6,53,2.8,67.3,3.5,6.9,9.3,7,13.2,12.9-9.5,11.1-33.1-1.3-35.7-12.9-4.6-20,7-51-5.6-64.6.9,21.8-5.2,52.4.9,71.9,2.4,7.7,9.4,10.6,7.5,17.5-44.2,4.4-25.7-56.4-32.9-92.2-6.7.5-3.7,9.8-3.8,13.8-.2,35,7.3,83.1-31,78.4-1.1-7.3,5.2-9.9,7.5-16.6,7-19.7-1.3-49.1,1.9-72.9-14.6,10.9,1.5,48.8-7.5,68.3-5.2,11.2-22,16.1-34.8,11.1,1.7-8.3,10.4-7,14.1-14.7,5.2-10.9,0-26.4,1.9-42.4-27.1,5.3-48.1-.7-58.3-17.5-4.6-7.5-5.7-16.4-11.3-23s-14.4-7.6-16.9-16.6c33.5-8,34.8,34,64.9,35,9.2.3,14-2.6,22.6-4.6,2.4-10.6,7.5-18.5,15.1-24-37.5-5.1-68.4-16.6-82.8-44.3a523.85,523.85,0,0,0-94.1,12.9c26.2-9.4,58.5-12.7,93.1-13.8-2-12.1-19.9-8.8-31-8.3-20.6.9-46.6,3.4-63,6.5,23.8-8.4,57.2-7.3,89.4-7.4-9.8-30.5-6.5-78.8,15-96.8-6.1-15.1-4.2-39.9,3.8-51.7,24,1.1,38.5,11.4,53.6,21.2,18.7-5.2,38.3-7.8,63.9-6.4,10.8.6,22,5.3,30.1,4.6s16.7-9.5,24.5-12.9c10.1-4.4,18.6-6,30.1-6.5,5.5,12.4,9.1,32.9,3.8,48,21.9,18.4,29.3,63.1,18.8,99.6,31.1,2.3,68.2-1.1,92.2,8.3-22.4-2.8-52.9-8.4-81.8-6.5C-275.1-341-283.1-341.53-282.7-334Z"/>
    </clipPath>
    <clipPath id="clip-path-3">
      <path class="cls-1"
            d="M245.6-1227a40.83,40.83,0,0,0-.8,23.5,41.74,41.74,0,0,0,30.1,30.1,42.57,42.57,0,0,0,23.5-.8Zm41.2-176.3c70.6,0,132.3,34.1,184.8,90.1a428,428,0,0,1,47,60.4c8,12.4,13.5,22.2,16.5,28.1a21,21,0,0,1-.3,19.2,412.23,412.23,0,0,1-47.5,70.2,20.81,20.81,0,0,1-29.4,2.5,20.81,20.81,0,0,1-2.5-29.4,362.47,362.47,0,0,0,37.2-53.2c-2.6-4.5-5.6-9.5-9-14.7a387.06,387.06,0,0,0-42.4-54.5c-45.3-48.4-97.1-76.9-154.4-76.9a171,171,0,0,0-39,4.5,20.88,20.88,0,0,1-25.1-15.6,20.88,20.88,0,0,1,15.6-25.1A213.54,213.54,0,0,1,286.8-1403.33Zm-125.5,91.9a364,364,0,0,0-80.3,96.1c2.6,4.5,5.6,9.5,9,14.7a387.06,387.06,0,0,0,42.4,54.5c45.3,48.4,97.1,76.9,154,76.9a189.55,189.55,0,0,0,91.6-25.3l-48.4-48.6a83.1,83.1,0,0,1-65,10.1,83.49,83.49,0,0,1-60.2-60.2,83.94,83.94,0,0,1,10.1-65ZM42.4-1459.83a20.76,20.76,0,0,1,29.5,0l459.2,459.2a20.76,20.76,0,0,1,0,29.5,20.76,20.76,0,0,1-29.5,0l-93.2-93.2a231.56,231.56,0,0,1-121.6,36.7c-70.6,0-132.3-34.1-184.8-90.1a428,428,0,0,1-47-60.4c-8-12.4-13.5-22.2-16.5-28.1a21,21,0,0,1,.3-19.2,405.07,405.07,0,0,1,92.9-115.7l-89.3-89.2A20.94,20.94,0,0,1,42.4-1459.83Z"/>
    </clipPath>
    <clipPath id="clip-path-4">
      <path class="cls-1"
            d="M-1291.74,500.47a34.69,34.69,0,0,0-.7,19.7,34.88,34.88,0,0,0,25.1,25.1,34.72,34.72,0,0,0,19.7-.7Zm34.4-147.1c58.9,0,110.4,28.4,154.3,75.2a355.15,355.15,0,0,1,39.2,50.4,253.54,253.54,0,0,1,13.7,23.4,17.69,17.69,0,0,1-.2,16A331.8,331.8,0,0,1-1090,577a17.33,17.33,0,0,1-24.5,2.1,17.33,17.33,0,0,1-2.1-24.5,302.54,302.54,0,0,0,31.1-44.4q-3.3-5.7-7.5-12.3a314.83,314.83,0,0,0-35.4-45.4c-37.8-40.4-81-64.2-128.9-64.2a143,143,0,0,0-32.6,3.7,17.35,17.35,0,0,1-20.9-13,17.35,17.35,0,0,1,13-20.9A171.82,171.82,0,0,1-1257.34,353.37Zm-104.8,76.7a305.69,305.69,0,0,0-67,80.2q3.3,5.7,7.5,12.3a314.83,314.83,0,0,0,35.4,45.4c37.8,40.4,81,64.2,128.6,64.2a157.65,157.65,0,0,0,76.5-21.2l-40.4-40.4a69.64,69.64,0,0,1-54.3,8.5,69.7,69.7,0,0,1-50.3-50.3,69.77,69.77,0,0,1,8.5-54.3Zm-99.2-123.9a17.38,17.38,0,0,1,24.6,0l88,88a15.37,15.37,0,0,1,1.7,1.9l-1.4-1.6,206.7,206.7.2.2.1.2,88,88a17.52,17.52,0,0,1,1.6,22.9l-1.6,1.8a17.38,17.38,0,0,1-24.6,0l-77.8-78a193.11,193.11,0,0,1-101.5,30.7c-58.9,0-110.4-28.4-154.3-75.2a355.15,355.15,0,0,1-39.2-50.4,253.54,253.54,0,0,1-13.7-23.4,17.69,17.69,0,0,1,.2-16,339,339,0,0,1,77.5-96.6l-74.5-74.5A17.5,17.5,0,0,1-1461.34,306.17Z"/>
    </clipPath>
    <clipPath id="clip-path-5">
      <path class="cls-1"
            d="M1906.78,1393.67H1821a21.66,21.66,0,0,0-21.5,21.8v21.8h128.8v-21.8a21.73,21.73,0,0,0-20.4-21.8Zm0,152.5a21.66,21.66,0,0,1,21.5,21.8v130.8a21.5,21.5,0,1,1-43,0V1568A21.72,21.72,0,0,1,1906.78,1546.17Zm-85.8,0a21.66,21.66,0,0,1,21.5,21.8v130.8a21.5,21.5,0,1,1-43,0V1568A21.66,21.66,0,0,1,1821,1546.17Zm171.7-65.4h-257.6v283.3a21.73,21.73,0,0,0,20.4,21.8h215.6a21.66,21.66,0,0,0,21.5-21.8Zm-85.9-130.7c35.6,0,64.4,29.3,64.4,65.4v21.8H2057a21.55,21.55,0,0,1,21.4,20.7v1.1a21.66,21.66,0,0,1-21.5,21.8h-21.5v283.3c0,35.6-28,64.6-62.9,65.4h-215.9c-35.6,0-64.4-29.3-64.4-65.4v-283.3h-21.5a21.55,21.55,0,0,1-21.4-20.7v-1.1a21.66,21.66,0,0,1,21.5-21.8h85.8v-21.8c0-35.6,28-64.6,62.9-65.4h87.3Z"/>
    </clipPath>
    <clipPath id="clip-path-6">
      <path class="cls-2"
            d="M198.57,79v-.15a21.12,21.12,0,0,1,21.55-21.16c12.37,0,21.46,9.43,21.46,21v.16c0,11.5-9.16,21.08-21.61,21.08s-21.4-9.43-21.4-20.93m33.77,0v-.15c0-7.13-5.12-13-12.37-13-7.42,0-12.15,5.83-12.15,12.88v.16c0,7,5.12,13,12.3,13,7.48,0,12.22-5.82,12.22-12.8"/>
    </clipPath>
    <clipPath id="clip-path-7">
      <rect class="cls-1" x="-9.23" y="0.09" width="440.7" height="171.09"/>
    </clipPath>
    <clipPath id="clip-path-8">
      <path class="cls-2"
            d="M248.76,79v-.15a20.86,20.86,0,0,1,21-21.16,20.33,20.33,0,0,1,16.12,7l-5.8,6.21c-2.83-3-5.81-5.06-10.39-5.06C263,65.77,258,71.6,258,78.65v.16c0,7.2,5,13,12.07,13,4.35,0,7.56-2,10.46-5l5.58,5.52c-4,4.45-8.63,7.59-16.5,7.59A20.64,20.64,0,0,1,248.76,79"/>
    </clipPath>
    <clipPath id="clip-path-10">
      <path class="cls-2"
            d="M334.94,78.88v-.15c0-11.58,8.17-21.08,19.71-21.08,12.83,0,19.32,10.11,19.32,21.77,0,.84-.07,1.69-.15,2.61H344.18c1,6.59,5.65,10.27,11.61,10.27,4.51,0,7.72-1.69,10.93-4.83l5.42,4.83a20.37,20.37,0,0,1-16.5,7.59C344,99.89,334.94,91.38,334.94,78.88Zm29.87-3c-.61-6-4.13-10.65-10.24-10.65-5.65,0-9.63,4.36-10.47,10.65Z"/>
    </clipPath>
    <clipPath id="clip-path-12">
      <rect class="cls-1" x="14.96" y="7" width="390.33" height="158.57"/>
    </clipPath>
    <clipPath id="clip-path-13">
      <rect class="cls-1" x="14.96" y="5.27" width="390.58" height="160.72"/>
    </clipPath>
    <clipPath id="clip-path-14">
      <rect class="cls-1" x="397.95" y="58.49" width="7.35" height="7.97"/>
    </clipPath>
    <clipPath id="clip-path-15">
      <path class="cls-2"
            d="M394.45,86.32V47.37H385.2V58.49h-5.12v8h5.12V87.78c0,8.89,4.82,11.88,11.61,11.88a16,16,0,0,0,8.33-2.07V90a12.36,12.36,0,0,1-5.73,1.38c-3.13,0-5-1.46-5-5.06"/>
    </clipPath>
    <clipPath id="clip-path-16">
      <rect class="cls-1" x="14.96" y="7" width="390.58" height="159"/>
    </clipPath>
    <clipPath id="clip-path-17">
      <polygon class="cls-2"
               points="297.02 98.75 297.04 58.5 305.04 58.44 305.06 72.64 317.15 58.39 327.11 58.41 305.03 84.8 304.97 98.75 297.02 98.75"/>
    </clipPath>
    <clipPath id="clip-path-19">
      <path class="cls-2"
            d="M328.86,99.12h-10l-8.1-11.75,5.18-6.58Zm-23.52,0h-8.69l0-41,8.74-.07,0,13.56L317,58l10.93,0L305.4,84.94Z"/>
    </clipPath>
    <clipPath id="clip-path-21">
      <path class="cls-2"
            d="M185.13,64.38c-2.27,1.83-4.53,3.69-6.72,5.62a.47.47,0,0,1-.09.06A13.66,13.66,0,0,1,181,78.37v.15a13.54,13.54,0,0,1-2.67,8.26c-.06.06-.11.13-.17.2a11.61,11.61,0,0,1-8.94,4.07L156.93,91v33.86h7.21V99s3,.42,4.53.42c12.45,0,21.62-9.58,21.62-21.08v-.16a20.84,20.84,0,0,0-5.16-13.83"/>
    </clipPath>
    <clipPath id="clip-path-23">
      <path class="cls-2"
            d="M120.9,87.11a47.49,47.49,0,0,1-31.13,44.6v10.84a58.65,58.65,0,0,0,0-112.46V42.5A47.51,47.51,0,0,1,120.9,87.11"/>
    </clipPath>
    <clipPath id="clip-path-25">
      <path class="cls-2"
            d="M15,86.32A58.58,58.58,0,0,0,57.1,142.6V131.71a47.52,47.52,0,0,1,0-89.21V30A58.57,58.57,0,0,0,15,86.32"/>
    </clipPath>
    <clipPath id="clip-path-27">
      <path class="cls-2" d="M57.1,122.43v43.14H67.79V122.11a8.63,8.63,0,0,1-10.69.32"/>
    </clipPath>
    <clipPath id="clip-path-29">
      <path class="cls-2"
            d="M98.9,69.4c-3.37,2.71-6.72,5.46-10,8.33l-.13.09a20.26,20.26,0,0,1,4,12.31v.22a20,20,0,0,1-4,12.24l-.26.3a17.18,17.18,0,0,1-13.24,6l-7.45-.05a8.7,8.7,0,0,1,1,12c1.48.18,4,.47,5.52.47,18.46,0,32.05-14.21,32.05-31.25V89.9A30.86,30.86,0,0,0,98.9,69.4"/>
    </clipPath>
    <clipPath id="clip-path-31">
      <path class="cls-2" d="M89.77,50.14V7H79.08V50.46a8.63,8.63,0,0,1,10.69-.32"/>
    </clipPath>
    <clipPath id="clip-path-33">
      <path class="cls-2"
            d="M48,103.17c3.38-2.71,6.72-5.46,10-8.32l.13-.1a20.15,20.15,0,0,1-4-12.31v-.22A20,20,0,0,1,58,70l.26-.3a17.18,17.18,0,0,1,13.24-6l7.45.06a8.71,8.71,0,0,1-1-12c-1.48-.18-4-.47-5.53-.47-18.45,0-32,14.21-32,31.25v.23A30.89,30.89,0,0,0,48,103.17"/>
    </clipPath>
    <clipPath id="clip-path-35">
      <path class="cls-2" d="M84.63,63.34a6.2,6.2,0,1,0-6.17-6.2,6.19,6.19,0,0,0,6.17,6.2"/>
    </clipPath>
    <clipPath id="clip-path-37">
      <path class="cls-2" d="M62.24,109.4a6.2,6.2,0,1,0,6.17,6.2,6.14,6.14,0,0,0-6.17-6.2"/>
    </clipPath>
  </defs>
  <g class="cls-8">
    <g class="cls-9">
      <rect class="cls-10" x="189.93" y="49" width="60.29" height="59.53"/>
    </g>
  </g>
  <g class="cls-11">
    <g class="cls-9">
      <rect class="cls-10" x="240.12" y="49" width="54.64" height="59.53"/>
    </g>
  </g>
  <g class="cls-12">
    <g class="cls-9">
      <rect class="cls-10" x="326.3" y="49" width="56.32" height="59.53"/>
    </g>
  </g>
  <g class="cls-13">
    <g class="cls-14">
      <g class="cls-15">
        <g class="cls-16">
          <rect class="cls-10" x="389.31" y="49.85" width="24.63" height="25.26"/>
        </g>
        <g class="cls-17">
          <g class="cls-18">
            <rect class="cls-10" x="371.44" y="38.73" width="42.34" height="69.57"/>
          </g>
        </g>
        <g class="cls-19">
          <g class="cls-18">
            <rect class="cls-10" x="288.38" y="49.75" width="47.37" height="57.64"/>
          </g>
        </g>
        <g class="cls-20">
          <g class="cls-18">
            <rect class="cls-10" x="288.01" y="49.38" width="49.49" height="58.39"/>
          </g>
        </g>
        <g class="cls-21">
          <g class="cls-18">
            <rect class="cls-10" x="148.29" y="55.74" width="50.64" height="77.72"/>
          </g>
        </g>
        <g class="cls-22">
          <g class="cls-18">
            <rect class="cls-23" x="81.13" y="21.44" width="59.25" height="129.74"/>
          </g>
        </g>
        <g class="cls-24">
          <g class="cls-18">
            <rect class="cls-23" x="6.32" y="21.39" width="59.42" height="129.84"/>
          </g>
        </g>
        <g class="cls-25">
          <g class="cls-18">
            <rect class="cls-10" x="48.45" y="113.47" width="27.98" height="60.75"/>
          </g>
        </g>
        <g class="cls-26">
          <g class="cls-18">
            <rect class="cls-10" x="59.28" y="60.76" width="55.89" height="69.26"/>
          </g>
        </g>
        <g class="cls-27">
          <g class="cls-18">
            <rect class="cls-10" x="70.44" y="-1.64" width="27.98" height="60.75"/>
          </g>
        </g>
        <g class="cls-28">
          <g class="cls-18">
            <rect class="cls-10" x="31.69" y="42.55" width="55.9" height="69.26"/>
          </g>
        </g>
        <g class="cls-29">
          <g class="cls-18">
            <rect class="cls-23" x="69.82" y="42.3" width="29.63" height="29.67"/>
          </g>
        </g>
        <g class="cls-30">
          <g class="cls-18">
            <rect class="cls-23" x="47.42" y="100.76" width="29.63" height="29.67"/>
          </g>
        </g>
      </g>
    </g>
  </g>
</svg>
