<svg id="mail" data-name="mail" xmlns="http://www.w3.org/2000/svg" xmlns:xlink="http://www.w3.org/1999/xlink" viewBox="0 0 221.25 170.94"><defs><style>.cls-1{fill:none;}.cls-2{clip-path:url(#clip-path);}.cls-3{clip-path:url(#clip-path-2);}.cls-4{clip-path:url(#clip-path-3);}.cls-5{clip-path:url(#clip-path-4);}.cls-6{clip-path:url(#clip-path-5);}.cls-7{clip-path:url(#clip-path-6);}.cls-8{clip-path:url(#clip-path-7);}.cls-9{fill:#25a9e0;}</style><clipPath id="clip-path"><path class="cls-1" d="M-520.56,243.45v74.3h99c-14.4,43.3-53.3,74.3-99,74.3-57.9,0-104.9-50-104.9-111.5s47.1-111.5,104.9-111.5a100.3,100.3,0,0,1,68,26.9l46-56c-31.5-29.1-71.9-45.2-113.9-45.2-96.4,0-174.9,83.4-174.9,185.8s78.5,185.8,174.9,185.8,174.9-83.4,174.9-185.8v-37.2Z"/></clipPath><clipPath id="clip-path-2"><path class="cls-1" d="M-384.66-354.55c33.4,2.6,66.6,5.4,94,13.9-27.2-4.4-60.2-11.1-94-12-14,27.2-42.1,40.5-80.9,43.3,4.2,8.9,12.2,12.3,14.1,26.8,2.9,21.5-4.6,53,2.8,67.3,3.5,6.9,9.3,7,13.2,12.9-9.5,11.1-33.1-1.3-35.7-12.9-4.6-20,7-51-5.6-64.6.9,21.8-5.2,52.4.9,71.9,2.4,7.7,9.4,10.6,7.5,17.5-44.2,4.4-25.7-56.4-32.9-92.2-6.7.5-3.7,9.8-3.8,13.8-.2,35,7.3,83.1-31,78.4-1.1-7.3,5.2-9.9,7.5-16.6,7-19.7-1.3-49.1,1.9-72.9-14.6,10.9,1.5,48.8-7.5,68.3-5.2,11.2-22,16.1-34.8,11.1,1.7-8.3,10.4-7,14.1-14.7,5.2-10.9,0-26.4,1.9-42.4-27.1,5.3-48.1-.7-58.3-17.5-4.6-7.5-5.7-16.4-11.3-23s-14.4-7.6-16.9-16.6c33.5-8,34.8,34,64.9,35,9.2.3,14-2.6,22.6-4.6,2.4-10.6,7.5-18.5,15.1-24-37.5-5.1-68.4-16.6-82.8-44.3a523.85,523.85,0,0,0-94.1,12.9c26.2-9.4,58.5-12.7,93.1-13.8-2-12.1-19.9-8.8-31-8.3-20.6.9-46.6,3.4-63,6.5,23.8-8.4,57.2-7.3,89.4-7.4-9.8-30.5-6.5-78.8,15-96.8-6.1-15.1-4.2-39.9,3.8-51.7,24,1.1,38.5,11.4,53.6,21.2,18.7-5.2,38.3-7.8,63.9-6.4,10.8.6,22,5.3,30.1,4.6s16.7-9.5,24.5-12.9c10.1-4.4,18.6-6,30.1-6.5,5.5,12.4,9.1,32.9,3.8,48,21.9,18.4,29.3,63.1,18.8,99.6,31.1,2.3,68.2-1.1,92.2,8.3-22.4-2.8-52.9-8.4-81.8-6.5C-377.06-361.55-385.06-362-384.66-354.55Z"/></clipPath><clipPath id="clip-path-3"><path class="cls-1" d="M143.64-1247.55a40.83,40.83,0,0,0-.8,23.5,41.74,41.74,0,0,0,30.1,30.1,42.57,42.57,0,0,0,23.5-.8Zm41.2-176.3c70.6,0,132.3,34.1,184.8,90.1a428,428,0,0,1,47,60.4c8,12.4,13.5,22.2,16.5,28.1a21,21,0,0,1-.3,19.2,412.23,412.23,0,0,1-47.5,70.2,20.81,20.81,0,0,1-29.4,2.5,20.81,20.81,0,0,1-2.5-29.4,362.47,362.47,0,0,0,37.2-53.2c-2.6-4.5-5.6-9.5-9-14.7a387.06,387.06,0,0,0-42.4-54.5c-45.3-48.4-97.1-76.9-154.4-76.9a171,171,0,0,0-39,4.5,20.88,20.88,0,0,1-25.1-15.6,20.88,20.88,0,0,1,15.6-25.1A213.54,213.54,0,0,1,184.84-1423.85Zm-125.5,91.9a364,364,0,0,0-80.3,96.1c2.6,4.5,5.6,9.5,9,14.7a387.06,387.06,0,0,0,42.4,54.5c45.3,48.4,97.1,76.9,154,76.9A189.55,189.55,0,0,0,276-1115l-48.4-48.6a83.1,83.1,0,0,1-65,10.1,83.49,83.49,0,0,1-60.2-60.2,83.94,83.94,0,0,1,10.1-65Zm-118.9-148.4a20.76,20.76,0,0,1,29.5,0l459.2,459.2a20.76,20.76,0,0,1,0,29.5,20.76,20.76,0,0,1-29.5,0l-93.2-93.2a231.56,231.56,0,0,1-121.6,36.7c-70.6,0-132.3-34.1-184.8-90.1a428,428,0,0,1-47-60.4c-8-12.4-13.5-22.2-16.5-28.1a21,21,0,0,1,.3-19.2,405.07,405.07,0,0,1,92.9-115.7l-89.3-89.2A20.94,20.94,0,0,1-59.56-1480.35Z"/></clipPath><clipPath id="clip-path-4"><path class="cls-1" d="M-1341,262.38a17.21,17.21,0,0,0-.35,9.76,17.29,17.29,0,0,0,12.44,12.44,17.18,17.18,0,0,0,9.77-.34Zm17-72.91c29.19,0,54.72,14.07,76.48,37.27a176.52,176.52,0,0,1,19.43,25,126.44,126.44,0,0,1,6.79,11.6,8.76,8.76,0,0,1-.1,7.93,163.9,163.9,0,0,1-19.68,29,8.59,8.59,0,0,1-12.14,1,8.59,8.59,0,0,1-1-12.15,149.85,149.85,0,0,0,15.41-22q-1.64-2.83-3.72-6.1a155.32,155.32,0,0,0-17.54-22.5c-18.74-20-40.15-31.83-63.89-31.83a70.83,70.83,0,0,0-16.16,1.84,8.61,8.61,0,0,1-10.36-6.44A8.61,8.61,0,0,1-1344,191.8,85.06,85.06,0,0,1-1324,189.47Zm-52,38a151.81,151.81,0,0,0-33.21,39.75c1.1,1.89,2.33,3.92,3.72,6.1a156.11,156.11,0,0,0,17.55,22.5c18.73,20,40.15,31.83,63.74,31.83a78.2,78.2,0,0,0,37.92-10.51l-20-20a34.49,34.49,0,0,1-26.91,4.22,34.56,34.56,0,0,1-24.93-24.94,34.56,34.56,0,0,1,4.21-26.91Zm-49.17-61.41a8.62,8.62,0,0,1,12.2,0l43.62,43.62a8.4,8.4,0,0,1,.84.94l-.7-.79,102.46,102.45.1.1,0,.1,43.62,43.62a8.68,8.68,0,0,1,.8,11.35l-.8.89a8.61,8.61,0,0,1-12.19,0l-38.56-38.66A95.71,95.71,0,0,1-1324,344.9c-29.2,0-54.72-14.07-76.48-37.27a175.79,175.79,0,0,1-19.43-25,126.44,126.44,0,0,1-6.79-11.6,8.76,8.76,0,0,1,.1-7.93,168,168,0,0,1,38.41-47.88l-36.93-36.93A8.67,8.67,0,0,1-1425.08,166.07Z"/></clipPath><clipPath id="clip-path-5"><path class="cls-1" d="M-959,598.52h-33.35a8.42,8.42,0,0,0-8.36,8.48v8.47h50.07V607a8.45,8.45,0,0,0-7.93-8.48Zm0,59.28a8.42,8.42,0,0,1,8.36,8.48v50.85A8.42,8.42,0,0,1-959,725.6a8.42,8.42,0,0,1-8.36-8.47V666.28A8.45,8.45,0,0,1-959,657.8Zm-33.35,0a8.42,8.42,0,0,1,8.35,8.48v50.85a8.42,8.42,0,0,1-8.35,8.47,8.42,8.42,0,0,1-8.36-8.47V666.28A8.42,8.42,0,0,1-992.31,657.8Zm66.74-25.42h-100.14V742.51a8.46,8.46,0,0,0,7.93,8.48H-934a8.43,8.43,0,0,0,8.36-8.48ZM-959,581.57a25.23,25.23,0,0,1,25,25.43v8.47h33.35a8.39,8.39,0,0,1,8.32,8v.42a8.42,8.42,0,0,1-8.36,8.48H-909V742.55A25.23,25.23,0,0,1-933.42,768h-83.93a25.22,25.22,0,0,1-25-25.42V632.42h-8.36a8.38,8.38,0,0,1-8.32-8v-.43a8.42,8.42,0,0,1,8.36-8.47h33.35V607a25.25,25.25,0,0,1,24.45-25.43H-959Z"/></clipPath><clipPath id="clip-path-6"><path class="cls-1" d="M192.05,148.88H26V43.5l83,52.69,83-52.69Zm0-126.46L109,75.11,26,22.42Zm20.75,0A21,21,0,0,0,192.05,1.35H26A21,21,0,0,0,5.28,22.42V148.88A21,21,0,0,0,26,170h166a21,21,0,0,0,20.75-21.08Z"/></clipPath><clipPath id="clip-path-7"><rect class="cls-1" x="-4508.31" y="-1081.66" width="9338.46" height="5518.77"/></clipPath></defs><g class="cls-7"><g class="cls-8"><rect class="cls-9" x="-27.15" y="-31.08" width="272.37" height="233.46"/></g></g></svg>