<svg id="Layer_1" data-name="Layer 1" xmlns="http://www.w3.org/2000/svg" xmlns:xlink="http://www.w3.org/1999/xlink" viewBox="0 0 419.1 418.69"><defs><style>.cls-1,.cls-2{fill:none;}.cls-2{clip-rule:evenodd;}.cls-3{fill:#27a9e0;}.cls-4{clip-path:url(#clip-path);}.cls-5{clip-path:url(#clip-path-2);}.cls-6{clip-path:url(#clip-path-3);}.cls-7{clip-path:url(#clip-path-4);}</style><clipPath id="clip-path"><path class="cls-1" d="M-418.2,764.3v74.3h99c-14.4,43.3-53.3,74.3-99,74.3-57.9,0-104.9-50-104.9-111.5S-476,689.9-418.2,689.9a100.3,100.3,0,0,1,68,26.9l46-56c-31.5-29.1-71.9-45.2-113.9-45.2C-514.5,615.6-593,699-593,801.4s78.5,185.8,174.9,185.8,174.9-83.4,174.9-185.8V764.2Z"/></clipPath><clipPath id="clip-path-2"><path class="cls-1" d="M-282.3,166.3c33.4,2.6,66.6,5.4,94,13.9-27.2-4.4-60.2-11.1-94-12-14,27.2-42.1,40.5-80.9,43.3,4.2,8.9,12.2,12.3,14.1,26.8,2.9,21.5-4.6,53,2.8,67.3,3.5,6.9,9.3,7,13.2,12.9-9.5,11.1-33.1-1.3-35.7-12.9-4.6-20,7-51-5.6-64.6.9,21.8-5.2,52.4.9,71.9,2.4,7.7,9.4,10.6,7.5,17.5-44.2,4.4-25.7-56.4-32.9-92.2-6.7.5-3.7,9.8-3.8,13.8-.2,35,7.3,83.1-31,78.4-1.1-7.3,5.2-9.9,7.5-16.6,7-19.7-1.3-49.1,1.9-72.9-14.6,10.9,1.5,48.8-7.5,68.3-5.2,11.2-22,16.1-34.8,11.1,1.7-8.3,10.4-7,14.1-14.7,5.2-10.9,0-26.4,1.9-42.4-27.1,5.3-48.1-.7-58.3-17.5-4.6-7.5-5.7-16.4-11.3-23s-14.4-7.6-16.9-16.6c33.5-8,34.8,34,64.9,35,9.2.3,14-2.6,22.6-4.6,2.4-10.6,7.5-18.5,15.1-24-37.5-5.1-68.4-16.6-82.8-44.3a523.85,523.85,0,0,0-94.1,12.9c26.2-9.4,58.5-12.7,93.1-13.8-2-12.1-19.9-8.8-31-8.3-20.6.9-46.6,3.4-63,6.5,23.8-8.4,57.2-7.3,89.4-7.4-9.8-30.5-6.5-78.8,15-96.8-6.1-15.1-4.2-39.9,3.8-51.7,24,1.1,38.5,11.4,53.6,21.2,18.7-5.2,38.3-7.8,63.9-6.4,10.8.6,22,5.3,30.1,4.6s16.7-9.5,24.5-12.9c10.1-4.4,18.6-6,30.1-6.5,5.5,12.4,9.1,32.9,3.8,48,21.9,18.4,29.3,63.1,18.8,99.6,31.1,2.3,68.2-1.1,92.2,8.3-22.4-2.8-52.9-8.4-81.8-6.5C-274.7,159.3-282.7,158.8-282.3,166.3Z"/></clipPath><clipPath id="clip-path-3"><path class="cls-2" d="M246-726.73a41.67,41.67,0,0,0-.84,23.52,41.73,41.73,0,0,0,30.12,30.12,41.71,41.71,0,0,0,23.53-.84ZM287.19-903c70.55,0,132.32,34.07,184.84,90.09a428.37,428.37,0,0,1,47,60.36,317.8,317.8,0,0,1,16.47,28.09,20.89,20.89,0,0,1-.26,19.17,407.31,407.31,0,0,1-47.53,70.19,20.87,20.87,0,0,1-29.41,2.53,20.87,20.87,0,0,1-2.54-29.41A365,365,0,0,0,493-715.15c-2.62-4.53-5.64-9.46-9-14.72a385.77,385.77,0,0,0-42.38-54.45c-45.33-48.36-97.07-76.9-154.43-76.9a169.29,169.29,0,0,0-39,4.46A20.89,20.89,0,0,1,223-872.33a20.86,20.86,0,0,1,15.57-25.08A210.6,210.6,0,0,1,287.19-903ZM161.68-811.1A364.36,364.36,0,0,0,81.42-715c2.62,4.52,5.62,9.45,9,14.7a386.51,386.51,0,0,0,42.38,54.45c45.34,48.36,97.08,76.91,154,76.91a189.34,189.34,0,0,0,91.58-25.35L330-642.78a83.51,83.51,0,0,1-65,10.15,83.49,83.49,0,0,1-60.24-60.25,83.51,83.51,0,0,1,10.14-65ZM42.81-959.48a20.86,20.86,0,0,1,29.52,0L531.58-500.24a20.89,20.89,0,0,1,0,29.53,20.88,20.88,0,0,1-29.52,0L408.8-563.95a231.52,231.52,0,0,1-121.61,36.73c-70.55,0-132.32-34.08-184.84-90.1a428.37,428.37,0,0,1-47-60.36A315.8,315.8,0,0,1,38.9-705.76,20.88,20.88,0,0,1,39.17-725,406,406,0,0,1,132.05-840.7L42.81-930A20.86,20.86,0,0,1,42.81-959.48Z"/></clipPath><clipPath id="clip-path-4"><path class="cls-2" d="M-1082.08-260.17a34.88,34.88,0,0,0-.71,19.65,34.86,34.86,0,0,0,25.14,25.14,34.83,34.83,0,0,0,19.66-.71Zm34.36-147.07c58.88,0,110.43,28.44,154.26,75.19a356.08,356.08,0,0,1,39.22,50.38,263.87,263.87,0,0,1,13.74,23.43,17.41,17.41,0,0,1-.22,16,339.58,339.58,0,0,1-39.66,58.58,17.42,17.42,0,0,1-24.55,2.11A17.42,17.42,0,0,1-907-206.09,305.19,305.19,0,0,0-876-250.48c-2.19-3.78-4.7-7.9-7.53-12.29a322.57,322.57,0,0,0-35.37-45.45c-37.83-40.35-81-64.18-128.88-64.18a142.33,142.33,0,0,0-32.58,3.72,17.41,17.41,0,0,1-20.93-13,17.42,17.42,0,0,1,13-20.93A176.07,176.07,0,0,1-1047.72-407.24Zm-104.75,76.67a304,304,0,0,0-67,80.18c2.19,3.78,4.7,7.89,7.53,12.27a322.48,322.48,0,0,0,35.36,45.45c37.84,40.35,81,64.18,128.56,64.18a158.11,158.11,0,0,0,76.46-21.16L-1012-190.1a69.71,69.71,0,0,1-54.27,8.48,69.71,69.71,0,0,1-50.28-50.28,69.72,69.72,0,0,1,8.48-54.27Zm-99.21-123.83a17.41,17.41,0,0,1,24.64,0l88,88a17.9,17.9,0,0,1,1.72,1.94l-1.43-1.64L-932.1-159.46c.05.05.11.1.16.16l.14.15,88,88a17.44,17.44,0,0,1,1.56,22.85l-1.56,1.79a17.43,17.43,0,0,1-24.64,0l-77.82-77.83a193.14,193.14,0,0,1-101.5,30.66c-58.89,0-110.43-28.44-154.27-75.19a356.72,356.72,0,0,1-39.21-50.38,264.61,264.61,0,0,1-13.75-23.43,17.42,17.42,0,0,1,.24-16,338.79,338.79,0,0,1,77.53-96.61l-74.5-74.48A17.4,17.4,0,0,1-1251.68-454.4Z"/></clipPath></defs><path class="cls-3" d="M417.68,201.48C381,123.55,301.32,52.83,210.44,52.83c-91.53,0-171,71.61-207.24,148.65a19.57,19.57,0,0,0,0,16.3c36.67,77.93,116.36,148.65,207.24,148.65,102.89,0,178.74-88.09,207.24-148.65A19,19,0,0,0,417.68,201.48ZM210.44,330.71c-74.14,0-136.36-53.7-173.92-121.12C73.67,142.88,135.65,88.46,210.44,88.46c74.39,0,136.53,54.06,173.92,121.13-37.72,67.68-100.19,121.12-173.92,121.12Zm0-201.16a80.18,80.18,0,0,0-80.18,80c0,44.07,36,80,80.18,80a80,80,0,1,0,0-160Zm0,127.5A47.42,47.42,0,1,1,258,209.63a47.52,47.52,0,0,1-47.52,47.42Z"/></svg>