<svg id="Layer_1" data-name="Layer 1" xmlns="http://www.w3.org/2000/svg" xmlns:xlink="http://www.w3.org/1999/xlink" viewBox="0 0 344.37 344.56"><defs><style>.cls-1{fill:none;}.cls-2{fill:#fff;}.cls-3{fill:#25a9e0;}.cls-4{clip-path:url(#clip-path);}.cls-5{clip-path:url(#clip-path-2);}.cls-6{clip-path:url(#clip-path-3);}.cls-7{clip-path:url(#clip-path-4);}.cls-8{clip-path:url(#clip-path-5);}.cls-9{clip-path:url(#clip-path-6);}.cls-10{clip-path:url(#clip-path-7);}.cls-11{clip-path:url(#clip-path-8);}.cls-12{clip-path:url(#clip-path-9);}.cls-13{clip-path:url(#clip-path-10);}.cls-14{clip-path:url(#clip-path-11);}.cls-15{clip-path:url(#clip-path-12);}.cls-16{clip-path:url(#clip-path-13);}.cls-17{clip-path:url(#clip-path-14);}.cls-18{clip-path:url(#clip-path-15);}.cls-19{clip-path:url(#clip-path-16);}.cls-20{clip-path:url(#clip-path-17);}.cls-21{clip-path:url(#clip-path-18);}.cls-22{clip-path:url(#clip-path-19);}.cls-23{isolation:isolate;}.cls-24{clip-path:url(#clip-path-20);}.cls-25{clip-path:url(#clip-path-21);}.cls-26{fill:#afafaf;}</style><clipPath id="clip-path"><path class="cls-1" d="M-463.59,216v74.3h99c-14.4,43.3-53.3,74.3-99,74.3-57.9,0-104.9-50-104.9-111.5s47.1-111.5,104.9-111.5a100.3,100.3,0,0,1,68,26.9l46-56c-31.5-29.1-71.9-45.2-113.9-45.2-96.4,0-174.9,83.4-174.9,185.8s78.5,185.8,174.9,185.8,174.9-83.4,174.9-185.8v-37.2Z"/></clipPath><clipPath id="clip-path-2"><path class="cls-1" d="M-327.69-382c33.4,2.6,66.6,5.4,94,13.9-27.2-4.4-60.2-11.1-94-12-14,27.2-42.1,40.5-80.9,43.3,4.2,8.9,12.2,12.3,14.1,26.8,2.9,21.5-4.6,53,2.8,67.3,3.5,6.9,9.3,7,13.2,12.9-9.5,11.1-33.1-1.3-35.7-12.9-4.6-20,7-51-5.6-64.6.9,21.8-5.2,52.4.9,71.9,2.4,7.7,9.4,10.6,7.5,17.5-44.2,4.4-25.7-56.4-32.9-92.2-6.7.5-3.7,9.8-3.8,13.8-.2,35,7.3,83.1-31,78.4-1.1-7.3,5.2-9.9,7.5-16.6,7-19.7-1.3-49.1,1.9-72.9-14.6,10.9,1.5,48.8-7.5,68.3-5.2,11.2-22,16.1-34.8,11.1,1.7-8.3,10.4-7,14.1-14.7,5.2-10.9,0-26.4,1.9-42.4-27.1,5.3-48.1-.7-58.3-17.5-4.6-7.5-5.7-16.4-11.3-23s-14.4-7.6-16.9-16.6c33.5-8,34.8,34,64.9,35,9.2.3,14-2.6,22.6-4.6,2.4-10.6,7.5-18.5,15.1-24-37.5-5.1-68.4-16.6-82.8-44.3a523.85,523.85,0,0,0-94.1,12.9c26.2-9.4,58.5-12.7,93.1-13.8-2-12.1-19.9-8.8-31-8.3-20.6.9-46.6,3.4-63,6.5,23.8-8.4,57.2-7.3,89.4-7.4-9.8-30.5-6.5-78.8,15-96.8-6.1-15.1-4.2-39.9,3.8-51.7,24,1.1,38.5,11.4,53.6,21.2,18.7-5.2,38.3-7.8,63.9-6.4,10.8.6,22,5.3,30.1,4.6s16.7-9.5,24.5-12.9c10.1-4.4,18.6-6,30.1-6.5,5.5,12.4,9.1,32.9,3.8,48,21.9,18.4,29.3,63.1,18.8,99.6,31.1,2.3,68.2-1.1,92.2,8.3-22.4-2.8-52.9-8.4-81.8-6.5C-320.09-389-328.09-389.55-327.69-382Z"/></clipPath><clipPath id="clip-path-3"><path class="cls-1" d="M200.61-1275a40.83,40.83,0,0,0-.8,23.5,41.74,41.74,0,0,0,30.1,30.1,42.57,42.57,0,0,0,23.5-.8Zm41.2-176.3c70.6,0,132.3,34.1,184.8,90.1a428,428,0,0,1,47,60.4c8,12.4,13.5,22.2,16.5,28.1a21,21,0,0,1-.3,19.2,412.23,412.23,0,0,1-47.5,70.2,20.81,20.81,0,0,1-29.4,2.5,20.81,20.81,0,0,1-2.5-29.4,362.47,362.47,0,0,0,37.2-53.2c-2.6-4.5-5.6-9.5-9-14.7a387.06,387.06,0,0,0-42.4-54.5c-45.3-48.4-97.1-76.9-154.4-76.9a171,171,0,0,0-39,4.5,20.88,20.88,0,0,1-25.1-15.6,20.88,20.88,0,0,1,15.6-25.1A213.54,213.54,0,0,1,241.81-1451.35Zm-125.5,91.9a364,364,0,0,0-80.3,96.1c2.6,4.5,5.6,9.5,9,14.7a387.06,387.06,0,0,0,42.4,54.5c45.3,48.4,97.1,76.9,154,76.9a189.55,189.55,0,0,0,91.6-25.3l-48.4-48.6a83.1,83.1,0,0,1-65,10.1,83.49,83.49,0,0,1-60.2-60.2,83.94,83.94,0,0,1,10.1-65Zm-118.9-148.4a20.76,20.76,0,0,1,29.5,0l459.2,459.2a20.76,20.76,0,0,1,0,29.5,20.76,20.76,0,0,1-29.5,0l-93.2-93.2a231.56,231.56,0,0,1-121.6,36.7c-70.6,0-132.3-34.1-184.8-90.1a428,428,0,0,1-47-60.4c-8-12.4-13.5-22.2-16.5-28.1a21,21,0,0,1,.3-19.2,405.07,405.07,0,0,1,92.9-115.7l-89.3-89.2A20.94,20.94,0,0,1-2.59-1507.85Z"/></clipPath><clipPath id="clip-path-4"><path class="cls-1" d="M-1284,235a17.17,17.17,0,0,0-.3,9.8,17.14,17.14,0,0,0,12.4,12.4,18.12,18.12,0,0,0,9.8-.3Zm17-72.9c29.2,0,54.7,14.1,76.5,37.3a177.21,177.21,0,0,1,19.4,25c3.3,5.2,5.6,9.2,6.8,11.6a8.79,8.79,0,0,1-.1,7.9,159.28,159.28,0,0,1-19.7,29,8.49,8.49,0,0,1-12.1,1,8.49,8.49,0,0,1-1-12.1,144.86,144.86,0,0,0,15.4-22c-1.1-1.9-2.3-3.9-3.7-6.1a158.64,158.64,0,0,0-17.5-22.5c-18.7-20-40.1-31.8-63.9-31.8a73.13,73.13,0,0,0-16.2,1.8,8.64,8.64,0,0,1-10.4-6.4,8.69,8.69,0,0,1,6.4-10.4A84.92,84.92,0,0,1-1267,162.05Zm-51.9,38a151.19,151.19,0,0,0-33.2,39.8c1.1,1.9,2.3,3.9,3.7,6.1a158.64,158.64,0,0,0,17.5,22.5c18.7,20,40.1,31.8,63.7,31.8a78.49,78.49,0,0,0,37.9-10.5l-20-20a34.23,34.23,0,0,1-26.9,4.2,34.53,34.53,0,0,1-24.9-24.9,34.65,34.65,0,0,1,4.2-26.9Zm-49.2-61.4a8.57,8.57,0,0,1,12.2,0l43.6,43.6a6.47,6.47,0,0,1,.8.9l-.7-.8,102.5,102.5.1.1v.1l43.6,43.6a8.69,8.69,0,0,1,.8,11.4l-.8.9a8.57,8.57,0,0,1-12.2,0l-38.6-38.7a95.76,95.76,0,0,1-50.3,15.2c-29.2,0-54.7-14.1-76.5-37.3a177.21,177.21,0,0,1-19.4-25c-3.3-5.2-5.6-9.2-6.8-11.6a8.79,8.79,0,0,1,.1-7.9,169.69,169.69,0,0,1,38.4-47.9l-36.9-36.9A8.85,8.85,0,0,1-1368.09,138.65Z"/></clipPath><clipPath id="clip-path-5"><path class="cls-1" d="M-147.39,94.9h-33.4a8.47,8.47,0,0,0-8.4,8.5v8.5h50.1v-8.5a8.52,8.52,0,0,0-7.9-8.5Zm0,59.3a8.47,8.47,0,0,1,8.4,8.5v50.8a8.41,8.41,0,0,1-8.4,8.5,8.41,8.41,0,0,1-8.4-8.5V162.7A8.6,8.6,0,0,1-147.39,154.2Zm-33.3,0a8.47,8.47,0,0,1,8.4,8.5v50.8a8.41,8.41,0,0,1-8.4,8.5,8.41,8.41,0,0,1-8.4-8.5V162.7A8.47,8.47,0,0,1-180.69,154.2Zm66.7-25.4h-100.1V238.9a8.52,8.52,0,0,0,7.9,8.5h83.8a8.47,8.47,0,0,0,8.4-8.5ZM-147.39,78a25.22,25.22,0,0,1,25,25.4v8.5H-89a8.35,8.35,0,0,1,8.3,8v.4a8.41,8.41,0,0,1-8.4,8.5h-8.4V238.9A25.26,25.26,0,0,1-122,264.3h-83.9a25.22,25.22,0,0,1-25-25.4V128.8h-8.4a8.35,8.35,0,0,1-8.3-8v-.4a8.41,8.41,0,0,1,8.4-8.5h33.4v-8.5A25.26,25.26,0,0,1-181.29,78h33.9Z"/></clipPath><clipPath id="clip-path-6"><path class="cls-1" d="M880.11,1485.45h-166v-105.4l83,52.7,83-52.7Zm0-126.4-83,52.7-83-52.7Zm20.8,0a21,21,0,0,0-20.8-21.1h-166a21,21,0,0,0-20.8,21.1v126.5a21,21,0,0,0,20.8,21.1h166a21,21,0,0,0,20.8-21.1Z"/></clipPath><clipPath id="clip-path-7"><path class="cls-1" d="M173.24,1237.34V1266h30.58Zm-59.08,39.73c6.54,0,11.9,5,11.9,11.11s-5.36,11.11-11.9,11.11H90.51c-6.54,0-11.9-5-11.9-11.11s5.36-11.11,11.9-11.11Zm71,44.18c6.54,0,11.9,5,11.9,11.11s-5.36,11.11-11.9,11.11H90.51c-6.54,0-11.9-5-11.9-11.11s5.36-11.11,11.9-11.11Zm0,44.31c6.54,0,11.9,5,11.9,11.11s-5.36,11.11-11.9,11.11H90.51c-6.54,0-11.9-5-11.9-11.11s5.36-11.11,11.9-11.11Zm-35.55-143.9H66.72c-6.54,0-11.89,5-11.89,11.11v177c0,6.15,5.35,11.11,11.89,11.11H208.79c6.54,0,11.89-5,11.89-11.11V1288.05h-59.2c-6.28,0-11.37-4.57-11.77-10.32v-.79Zm11.9-22.09h1.17a1.69,1.69,0,0,1,.79.13h.13a9.52,9.52,0,0,1,2.74.78.13.13,0,0,1,.13.13,6.91,6.91,0,0,1,1.7.92h.13a2.31,2.31,0,0,1,.66.52,202142753269,202142753269,0,0,0,.26.26l.52.52,71,66.4.65.65-.65-.65.79.78a8.64,8.64,0,0,1,1.56,2.23.13.13,0,0,0,.13.13,10,10,0,0,1,1.05,3.4v134c0,18.3-16,33.2-35.55,33.2H66.59C47,1442.93,31,1428,31,1409.73v-177c0-18.29,15.94-33.19,35.55-33.19Z"/></clipPath><clipPath id="clip-path-8"><path class="cls-1" d="M346.05,925.54a6.27,6.27,0,0,0-6.3,6.3v36.1a6.17,6.17,0,0,1-6.3,6.1H210.85a6.17,6.17,0,0,1-6.3-6.1v-36.1a6.27,6.27,0,0,0-6.3-6.3h0a6.27,6.27,0,0,0-6.3,6.3v36.1a18.55,18.55,0,0,0,18.8,18.3h122.7a18.55,18.55,0,0,0,18.8-18.3v-36.1a6.13,6.13,0,0,0-6.2-6.3Z"/></clipPath><clipPath id="clip-path-9"><path class="cls-1" d="M270.55,831.54l-30.8,30.4a6.28,6.28,0,0,0,0,8.8h0a6,6,0,0,0,8.6,0l19.2-18.9v88.8a6.23,6.23,0,0,0,6.2,6.2h0a6.23,6.23,0,0,0,6.2-6.2v-88.9l19.2,18.9a6,6,0,0,0,8.6,0h0a6.28,6.28,0,0,0,0-8.8l-30.9-30.4A4.63,4.63,0,0,0,270.55,831.54Z"/></clipPath><clipPath id="clip-path-10"><path class="cls-1" d="M660.9-209.73l-115,6.64L541.1-255H672.43Zm-16.85,59.29a7.65,7.65,0,0,1-7.71-7.57,7.65,7.65,0,0,1,7.71-7.57,7.65,7.65,0,0,1,7.71,7.57A7.65,7.65,0,0,1,644.05-150.44Zm-83.49,0a7.64,7.64,0,0,1-7.7-7.57,7.64,7.64,0,0,1,7.7-7.57,7.65,7.65,0,0,1,7.71,7.57A7.65,7.65,0,0,1,560.56-150.44ZM682-269.68H539.76l-2.11-23.13a7.42,7.42,0,0,0-7.44-6.68H515a7.4,7.4,0,0,0-7.47,7.33,7.41,7.41,0,0,0,7.47,7.34h8.35c4.56,49.91-7.23-79.1,8.59,94a28.07,28.07,0,0,0,10.76,19.12c-11.58,14.52-1,35.93,17.83,35.93,15.64,0,26.66-15.31,21.3-29.81h40.89c-5.35,14.48,5.65,29.81,21.3,29.81A22.47,22.47,0,0,0,666.7-158a22.47,22.47,0,0,0-22.65-22.24H560.61a13.87,13.87,0,0,1-12.75-8.26l119.4-6.89a7.45,7.45,0,0,0,6.81-5.55l15.18-59.62A7.37,7.37,0,0,0,682-269.68Z"/></clipPath><clipPath id="clip-path-11"><path class="cls-1" d="M72.73,617.59h58.12a6.77,6.77,0,0,1,6.77,6.77v11.71a6.77,6.77,0,0,1-6.77,6.77H72.73l9,9a6.77,6.77,0,0,1,0,9.56l-8.22,8.26a6.78,6.78,0,0,1-9.59,0L29.35,635a6.77,6.77,0,0,1,0-9.55L63.9,590.76a6.78,6.78,0,0,1,9.59,0L81.71,599a6.77,6.77,0,0,1,0,9.56Zm114-77.33,34.11,34.62a6.78,6.78,0,0,1,0,9.5L186.75,619a6.78,6.78,0,0,1-9.65,0L169,610.8a6.77,6.77,0,0,1,0-9.51l8.91-9H119.28a6.77,6.77,0,0,1-6.77-6.77v-11.7a6.77,6.77,0,0,1,6.77-6.77h58.65L169,558a6.76,6.76,0,0,1,0-9.5l8.08-8.2A6.78,6.78,0,0,1,186.75,540.26Z"/></clipPath><clipPath id="clip-path-12"><path class="cls-2" d="M750.53,554.13a12.26,12.26,0,0,0-17.81,0l-54.08,56.12-22.59-23.44a12.28,12.28,0,0,0-17.81,0,13.43,13.43,0,0,0,0,18.49L669.73,638a12.28,12.28,0,0,0,17.82,0l63-65.37A13.41,13.41,0,0,0,750.53,554.13Z"/></clipPath><clipPath id="clip-path-13"><path class="cls-1" d="M415.34-401.52l-83.41,83.41v24h24l83.41-83.41Zm6.55-19.66L459-384.11A9.27,9.27,0,0,1,459-371l-92.67,92.67a9.27,9.27,0,0,1-6.56,2.71H322.66a9.26,9.26,0,0,1-9.26-9.26v-37.07a9.23,9.23,0,0,1,2.71-6.55l92.67-92.68A9.27,9.27,0,0,1,421.89-421.18Zm-86.81,15.82a9.27,9.27,0,0,1,9.27,9.27,9.27,9.27,0,0,1-9.27,9.27H285.6a9.27,9.27,0,0,0-9.27,9.26v129.75a9.27,9.27,0,0,0,9.27,9.26H415.34a9.26,9.26,0,0,0,9.26-9.26V-297.3a9.27,9.27,0,0,1,9.27-9.27,9.27,9.27,0,0,1,9.27,9.27v49.49a27.8,27.8,0,0,1-27.8,27.8H285.6a27.81,27.81,0,0,1-27.81-27.8V-377.56a27.81,27.81,0,0,1,27.81-27.8Z"/></clipPath><clipPath id="clip-path-14"><path class="cls-3" d="M-611-176.95H-647.9a9.21,9.21,0,0,0-9.21,9.22v9.21h55.3v-9.21a9.21,9.21,0,0,0-8.14-9.16Zm0,64.52a9.21,9.21,0,0,1,9.21,9.21v55.3A9.21,9.21,0,0,1-611-38.7a9.22,9.22,0,0,1-9.22-9.22v-55.3A9.21,9.21,0,0,1-611-112.43Zm-36.87,0a9.21,9.21,0,0,1,9.22,9.21v55.3a9.22,9.22,0,0,1-9.22,9.22,9.21,9.21,0,0,1-9.21-9.22v-55.3A9.21,9.21,0,0,1-647.9-112.43Zm73.73-27.66h-110.6V-20.27a9.2,9.2,0,0,0,8.14,9.15l1.07.07h92.17a9.21,9.21,0,0,0,9.21-9.22ZM-611-195.38a27.65,27.65,0,0,1,27.65,27.65v9.21h36.86a9.23,9.23,0,0,1,9.16,8.14l.06,1.08a9.22,9.22,0,0,1-9.22,9.22h-9.22V-20.27a27.64,27.64,0,0,1-26,27.6l-1.62,0h-92.17A27.65,27.65,0,0,1-703.2-20.27V-140.09h-9.21a9.22,9.22,0,0,1-9.16-8.15l-.06-1.07a9.22,9.22,0,0,1,9.22-9.22h36.86v-9.21a27.66,27.66,0,0,1,26-27.61l1.62,0Z"/></clipPath><clipPath id="clip-path-15"><path class="cls-1" d="M268.29,627.33a66.22,66.22,0,1,0,46.56,113.29l.23-.29.28-.27a66.18,66.18,0,0,0-47.07-112.73Zm0-20.38a86.6,86.6,0,0,1,68,140.2l46.16,46.15a10.19,10.19,0,0,1-14.41,14.41l-46.16-46.16A86.59,86.59,0,1,1,268.29,607Z"/></clipPath><clipPath id="clip-path-16"><path class="cls-1" d="M568.27,833.52a13.88,13.88,0,0,1,13.89,13.88v160.83L614,976.42a13.9,13.9,0,0,1,18.08-1.34l1.56,1.34a13.89,13.89,0,0,1,0,19.64l-55.54,55.54a14.76,14.76,0,0,1-1.46,1.27l-.5.36c-.35.23-.7.46-1.07.66l-.75.39c-.31.15-.64.3-1,.43s-.5.19-.76.27-.69.21-1.05.3l-.86.17a13.48,13.48,0,0,1-2.4.21l1.43-.07-.9.06h-1.07l-.89-.06-1-.13-.88-.18c-.37-.09-.73-.2-1.09-.31l-.67-.24c-.36-.14-.71-.3-1.06-.47l-.68-.35c-.4-.23-.79-.47-1.16-.73a14.09,14.09,0,0,1-1.9-1.58l1.49,1.28a14,14,0,0,1-1.49-1.28l-55.53-55.54a13.88,13.88,0,0,1,19.63-19.64l31.83,31.83V847.4a13.88,13.88,0,0,1,12-13.75Zm125,208.26a13.87,13.87,0,0,1,13.88,13.88v41.65A41.66,41.66,0,0,1,665.46,1139H471.08a41.66,41.66,0,0,1-41.65-41.66v-41.65a13.89,13.89,0,0,1,27.77,0v41.65a13.89,13.89,0,0,0,13.88,13.89H665.46a13.88,13.88,0,0,0,13.88-13.89v-41.65A13.88,13.88,0,0,1,693.23,1041.78Z"/></clipPath><clipPath id="clip-path-17"><path class="cls-1" d="M-122.16,767h-8.91v4.45h8.91Zm2.68,6.24h-14.27a.89.89,0,0,0-.89.89v4.46a.89.89,0,0,0,.89.89h.89v-2.67a.89.89,0,0,1,.89-.9h10.71a.89.89,0,0,1,.89.9v2.67h.89a.9.9,0,0,0,.89-.78v-4.57A.89.89,0,0,0-119.48,773.19Zm-2.68,4.46h-8.91V783h8.91Zm.9-12.49a.89.89,0,0,1,.89.89v5.35h.89a2.67,2.67,0,0,1,2.67,2.5v4.63a2.68,2.68,0,0,1-2.68,2.68h-.89v2.68a.89.89,0,0,1-.89.89H-132a.89.89,0,0,1-.89-.89v-2.68h-.89a2.68,2.68,0,0,1-2.67-2.51v-4.63a2.66,2.66,0,0,1,2.67-2.67h.89v-5.35a.89.89,0,0,1,.78-.88h10.82Z"/></clipPath><clipPath id="clip-path-18"><path class="cls-1" d="M225.38,76.53H119v53.19h106.4ZM257.3,151H87.08a10.64,10.64,0,0,0-10.64,10.64v53.2a10.63,10.63,0,0,0,10.64,10.63H97.71V193.56a10.64,10.64,0,0,1,10.64-10.64H236a10.64,10.64,0,0,1,10.64,10.64v31.91H257.3a10.63,10.63,0,0,0,10.55-9.3l.08-1.33v-53.2A10.64,10.64,0,0,0,257.3,151Zm-31.92,53.2H119V268H225.38ZM236,55.26A10.64,10.64,0,0,1,246.66,65.9v63.82H257.3a31.92,31.92,0,0,1,31.85,29.89l.06,2v53.2a31.91,31.91,0,0,1-31.91,31.91H246.65v31.93A10.65,10.65,0,0,1,236,289.31H108.36a10.64,10.64,0,0,1-10.64-10.64V246.74H87.08a31.91,31.91,0,0,1-31.85-29.9l-.07-2v-53.2a31.92,31.92,0,0,1,31.92-31.91H97.71V65.9A10.64,10.64,0,0,1,107,55.34l1.34-.08Z"/></clipPath><clipPath id="clip-path-19"><rect class="cls-1" x="-3728.65" y="-13725.19" width="17177.98" height="15603.34"/></clipPath><clipPath id="clip-path-20"><rect class="cls-1" x="-6.75" y="-6.66" width="357.87" height="357.87"/></clipPath><clipPath id="clip-path-21"><rect class="cls-1" x="52.9" y="52.99" width="238.58" height="238.58"/></clipPath></defs><path class="cls-2" d="M750.53,554.13a12.26,12.26,0,0,0-17.81,0l-54.08,56.12-22.59-23.44a12.28,12.28,0,0,0-17.81,0,13.43,13.43,0,0,0,0,18.49L669.73,638a12.28,12.28,0,0,0,17.82,0l63-65.37A13.41,13.41,0,0,0,750.53,554.13Z"/><g class="cls-15"><rect class="cls-2" x="-8284.24" y="-1589.65" width="10136.59" height="9207.4"/></g><path class="cls-3" d="M-611-176.95H-647.9a9.21,9.21,0,0,0-9.21,9.22v9.21h55.3v-9.21a9.21,9.21,0,0,0-8.14-9.16Zm0,64.52a9.21,9.21,0,0,1,9.21,9.21v55.3A9.21,9.21,0,0,1-611-38.7a9.22,9.22,0,0,1-9.22-9.22v-55.3A9.21,9.21,0,0,1-611-112.43Zm-36.87,0a9.21,9.21,0,0,1,9.22,9.21v55.3a9.22,9.22,0,0,1-9.22,9.22,9.21,9.21,0,0,1-9.21-9.22v-55.3A9.21,9.21,0,0,1-647.9-112.43Zm73.73-27.66h-110.6V-20.27a9.2,9.2,0,0,0,8.14,9.15l1.07.07h92.17a9.21,9.21,0,0,0,9.21-9.22ZM-611-195.38a27.65,27.65,0,0,1,27.65,27.65v9.21h36.86a9.23,9.23,0,0,1,9.16,8.14l.06,1.08a9.22,9.22,0,0,1-9.22,9.22h-9.22V-20.27a27.64,27.64,0,0,1-26,27.6l-1.62,0h-92.17A27.65,27.65,0,0,1-703.2-20.27V-140.09h-9.21a9.22,9.22,0,0,1-9.16-8.15l-.06-1.07a9.22,9.22,0,0,1,9.22-9.22h36.86v-9.21a27.66,27.66,0,0,1,26-27.61l1.62,0Z"/><g class="cls-17"><rect class="cls-3" x="-6204.21" y="-7724.68" width="13844.81" height="8441.5"/></g><g class="cls-21"><g class="cls-22"><g class="cls-23"><g class="cls-24"><g class="cls-25"><rect x="-4.48" y="-4.39" width="353.34" height="353.34"/><rect class="cls-26" x="-15.12" y="-15.03" width="374.62" height="374.62"/></g></g></g></g></g></svg>