<?xml version="1.0" encoding="UTF-8"?>
<svg width="18px" height="21px" viewBox="0 0 18 21" version="1.1" xmlns="http://www.w3.org/2000/svg" xmlns:xlink="http://www.w3.org/1999/xlink">
    <title>Documentation</title>
    <defs>
        <filter id="filter-1">
            <feColorMatrix in="SourceGraphic" type="matrix" values="0 0 0 0 1.000000 0 0 0 0 1.000000 0 0 0 0 1.000000 0 0 0 1.000000 0"></feColorMatrix>
        </filter>
        <path d="M10.7401961,0.120098039 C10.781248,0.120098039 10.8216877,0.122719497 10.8613568,0.127804145 L10.7401961,0.120098039 C10.7860436,0.120098039 10.8315472,0.123434556 10.8763821,0.129973126 C10.9116121,0.134947898 10.9461494,0.141972626 10.9799472,0.150824557 C10.987578,0.15306756 10.9949524,0.155103242 11.0022986,0.157227538 C11.0282301,0.164451267 11.0538966,0.173084279 11.079044,0.182763048 C11.0943907,0.188937264 11.109725,0.195303569 11.1248834,0.202070877 C11.1498918,0.213015733 11.1736924,0.22492304 11.1968941,0.237779586 C11.2042215,0.242014519 11.2125402,0.246767585 11.2207888,0.251648858 C11.2481653,0.267755321 11.2737776,0.284733633 11.2984739,0.302885464 C11.305404,0.308043693 11.3123171,0.313263898 11.319163,0.318583376 C11.3227574,0.321327397 11.3265842,0.324350469 11.3303869,0.32740239 L11.4074414,0.396480121 L11.4074414,0.396480121 L17.0692062,6.05824483 C17.0956338,6.08467243 17.1205011,6.11266031 17.1436581,6.14205844 L17.0692062,6.05824483 C17.105859,6.09489766 17.1391852,6.13425529 17.1689904,6.17584857 C17.1840966,6.19676346 17.1984481,6.21858938 17.2118942,6.24102018 C17.2181364,6.25172397 17.224403,6.2626892 17.2304443,6.27377002 C17.2436221,6.29752842 17.2555867,6.32186048 17.2665077,6.34675435 C17.2708415,6.35724319 17.2751747,6.36763954 17.2793207,6.37811078 C17.2909273,6.40669082 17.3010153,6.43633336 17.3096307,6.4665962 C17.3113978,6.47368671 17.313144,6.48007974 17.3148232,6.48649268 C17.3215681,6.5113449 17.3272257,6.53737513 17.3317858,6.56378114 C17.3408795,6.61704466 17.3455882,6.67102469 17.3455882,6.7254902 L17.3455882,18.0490196 C17.3455882,19.6124728 16.078159,20.879902 14.5147059,20.879902 L3.19117647,20.879902 C1.62772332,20.879902 0.360294118,19.6124728 0.360294118,18.0490196 L0.360294118,2.95098039 C0.360294118,1.38752724 1.62772332,0.120098039 3.19117647,0.120098039 Z M9.79629412,2.00709804 L3.19117647,2.00735294 C2.67002542,2.00735294 2.24754902,2.42982934 2.24754902,2.95098039 L2.24754902,18.0490196 C2.24754902,18.5701707 2.67002542,18.9926471 3.19117647,18.9926471 L14.5147059,18.9926471 C15.0358569,18.9926471 15.4583333,18.5701707 15.4583333,18.0490196 L15.4582941,7.66909804 L10.7401961,7.66911765 C10.2562701,7.66911765 9.85742584,7.30483953 9.8029171,6.83553709 L9.79656863,6.7254902 L9.79629412,2.00709804 Z M11.6838235,12.3872549 C12.2049746,12.3872549 12.627451,12.8097313 12.627451,13.3308824 C12.627451,13.8520334 12.2049746,14.2745098 11.6838235,14.2745098 L11.6838235,14.2745098 L6.02205882,14.2745098 C5.50090777,14.2745098 5.07843137,13.8520334 5.07843137,13.3308824 C5.07843137,12.8097313 5.50090777,12.3872549 6.02205882,12.3872549 L6.02205882,12.3872549 Z M11.6832941,3.34109804 L11.6838235,5.78186275 L14.1232941,5.78109804 L11.6832941,3.34109804 Z" id="path-2"></path>
    </defs>
    <g id="Documentation" stroke="none" stroke-width="1" fill="none" fill-rule="evenodd">
        <g filter="url(#filter-1)" id="file-minus-copy">
            <g transform="translate(-0.000000, 0.000000)">
                <mask id="mask-3" fill="white">
                    <use xlink:href="#path-2"></use>
                </mask>
                <use id="Combined-Shape" fill="#000000" fill-rule="nonzero" xlink:href="#path-2"></use>
                <g id="COLOR/-black" mask="url(#mask-3)" fill="#27A9E0">
                    <g transform="translate(-2.470588, -0.823529)" id="Rectangle">
                        <rect x="0" y="0" width="22.6470588" height="22.6470588"></rect>
                    </g>
                </g>
            </g>
        </g>
    </g>
</svg>