<svg id="Layer_1" data-name="Layer 1" xmlns="http://www.w3.org/2000/svg" viewBox="0 0 208.93 208.78">
  <defs>
    <style>
      .cls-1,.cls-2{fill:none;}.cls-2{clip-rule:evenodd;}.cls-3{clip-path:url(#clip-path);}.cls-4{clip-path:url(#clip-path-2);}.cls-5{clip-path:url(#clip-path-3);}.cls-6{clip-path:url(#clip-path-4);}.cls-7{clip-path:url(#clip-path-5);}.cls-8{clip-path:url(#clip-path-6);}.cls-9{clip-path:url(#clip-path-7);}.cls-10{clip-path:url(#clip-path-8);}.cls-11{fill:#fff;}.cls-12{clip-path:url(#clip-path-9);}
    </style>
    <clipPath id="clip-path">
      <path class="cls-1"
            d="M-526.76,86.74V161h99c-14.4,43.3-53.3,74.3-99,74.3-57.9,0-104.9-50-104.9-111.5s47.1-111.5,104.9-111.5a100.3,100.3,0,0,1,68,26.9l46-56c-31.5-29.1-71.9-45.2-113.9-45.2-96.4,0-174.9,83.4-174.9,185.8s78.5,185.8,174.9,185.8,174.9-83.4,174.9-185.8V86.64Z"/>
    </clipPath>
    <clipPath id="clip-path-2">
      <path class="cls-1"
            d="M-390.86-511.26c33.4,2.6,66.6,5.4,94,13.9-27.2-4.4-60.2-11.1-94-12-14,27.2-42.1,40.5-80.9,43.3,4.2,8.9,12.2,12.3,14.1,26.8,2.9,21.5-4.6,53,2.8,67.3,3.5,6.9,9.3,7,13.2,12.9-9.5,11.1-33.1-1.3-35.7-12.9-4.6-20,7-51-5.6-64.6.9,21.8-5.2,52.4.9,71.9,2.4,7.7,9.4,10.6,7.5,17.5-44.2,4.4-25.7-56.4-32.9-92.2-6.7.5-3.7,9.8-3.8,13.8-.2,35,7.3,83.1-31,78.4-1.1-7.3,5.2-9.9,7.5-16.6,7-19.7-1.3-49.1,1.9-72.9-14.6,10.9,1.5,48.8-7.5,68.3-5.2,11.2-22,16.1-34.8,11.1,1.7-8.3,10.4-7,14.1-14.7,5.2-10.9,0-26.4,1.9-42.4-27.1,5.3-48.1-.7-58.3-17.5-4.6-7.5-5.7-16.4-11.3-23s-14.4-7.6-16.9-16.6c33.5-8,34.8,34,64.9,35,9.2.3,14-2.6,22.6-4.6,2.4-10.6,7.5-18.5,15.1-24-37.5-5.1-68.4-16.6-82.8-44.3a523.85,523.85,0,0,0-94.1,12.9c26.2-9.4,58.5-12.7,93.1-13.8-2-12.1-19.9-8.8-31-8.3-20.6.9-46.6,3.4-63,6.5,23.8-8.4,57.2-7.3,89.4-7.4-9.8-30.5-6.5-78.8,15-96.8-6.1-15.1-4.2-39.9,3.8-51.7,24,1.1,38.5,11.4,53.6,21.2,18.7-5.2,38.3-7.8,63.9-6.4,10.8.6,22,5.3,30.1,4.6s16.7-9.5,24.5-12.9c10.1-4.4,18.6-6,30.1-6.5,5.5,12.4,9.1,32.9,3.8,48,21.9,18.4,29.3,63.1,18.8,99.6,31.1,2.3,68.2-1.1,92.2,8.3-22.4-2.8-52.9-8.4-81.8-6.5C-383.26-518.26-391.26-518.76-390.86-511.26Z"/>
    </clipPath>
    <clipPath id="clip-path-3">
      <path class="cls-1"
            d="M137.44-1404.26a40.83,40.83,0,0,0-.8,23.5,41.74,41.74,0,0,0,30.1,30.1,42.57,42.57,0,0,0,23.5-.8Zm41.2-176.3c70.6,0,132.3,34.1,184.8,90.1a428,428,0,0,1,47,60.4c8,12.4,13.5,22.2,16.5,28.1a21,21,0,0,1-.3,19.2,412.23,412.23,0,0,1-47.5,70.2,20.81,20.81,0,0,1-29.4,2.5,20.81,20.81,0,0,1-2.5-29.4,362.47,362.47,0,0,0,37.2-53.2c-2.6-4.5-5.6-9.5-9-14.7a387.06,387.06,0,0,0-42.4-54.5c-45.3-48.4-97.1-76.9-154.4-76.9a171,171,0,0,0-39,4.5,20.88,20.88,0,0,1-25.1-15.6,20.88,20.88,0,0,1,15.6-25.1A213.54,213.54,0,0,1,178.64-1580.56Zm-125.5,91.9a364,364,0,0,0-80.3,96.1c2.6,4.5,5.6,9.5,9,14.7a387.06,387.06,0,0,0,42.4,54.5c45.3,48.4,97.1,76.9,154,76.9a189.55,189.55,0,0,0,91.6-25.3l-48.4-48.6a83.1,83.1,0,0,1-65,10.1,83.49,83.49,0,0,1-60.2-60.2,83.94,83.94,0,0,1,10.1-65Zm-118.9-148.4a20.76,20.76,0,0,1,29.5,0l459.2,459.2a20.76,20.76,0,0,1,0,29.5,20.76,20.76,0,0,1-29.5,0l-93.2-93.2a231.56,231.56,0,0,1-121.6,36.7c-70.6,0-132.3-34.1-184.8-90.1a428,428,0,0,1-47-60.4c-8-12.4-13.5-22.2-16.5-28.1a21,21,0,0,1,.3-19.2,405.07,405.07,0,0,1,92.9-115.7l-89.3-89.2A20.94,20.94,0,0,1-65.76-1637.06Z"/>
    </clipPath>
    <clipPath id="clip-path-4">
      <path class="cls-1"
            d="M-1347.21,105.67a17.21,17.21,0,0,0-.35,9.76,17.32,17.32,0,0,0,12.44,12.45,17.26,17.26,0,0,0,9.77-.35Zm17-72.91c29.19,0,54.72,14.08,76.48,37.27a176.52,176.52,0,0,1,19.43,25,126.44,126.44,0,0,1,6.79,11.6,8.76,8.76,0,0,1-.1,7.93,164,164,0,0,1-19.68,29.05,8.59,8.59,0,0,1-12.14,1,8.58,8.58,0,0,1-1-12.14,149.94,149.94,0,0,0,15.41-22q-1.63-2.83-3.71-6.1a156.66,156.66,0,0,0-17.55-22.5c-18.74-20-40.15-31.82-63.89-31.82a70.82,70.82,0,0,0-16.16,1.83,8.6,8.6,0,0,1-10.36-6.44,8.61,8.61,0,0,1,6.44-10.36A85.06,85.06,0,0,1-1330.16,32.76Zm-51.95,38a151.42,151.42,0,0,0-33.2,39.75c1.09,1.88,2.32,3.91,3.71,6.09A156.18,156.18,0,0,0-1394,139.13c18.73,20,40.15,31.82,63.74,31.82a78.2,78.2,0,0,0,37.92-10.51l-20-20a34.53,34.53,0,0,1-26.91,4.21,34.54,34.54,0,0,1-24.93-24.93A34.58,34.58,0,0,1-1360,92.78Zm-49.16-61.42a8.61,8.61,0,0,1,12.19,0L-1375.46,53a9.39,9.39,0,0,1,.84.94l-.7-.79,102.46,102.45.1.1,0,.1,43.61,43.62a8.68,8.68,0,0,1,.8,11.35l-.8.89a8.61,8.61,0,0,1-12.19,0L-1279.85,173a95.72,95.72,0,0,1-50.31,15.22c-29.2,0-54.72-14.08-76.48-37.28a175.22,175.22,0,0,1-19.43-25,125.09,125.09,0,0,1-6.79-11.6,8.76,8.76,0,0,1,.1-7.93,168.08,168.08,0,0,1,38.41-47.88l-36.92-36.92A8.67,8.67,0,0,1-1431.27,9.36Z"/>
    </clipPath>
    <clipPath id="clip-path-5">
      <path class="cls-1"
            d="M-965.16,441.81h-33.35a8.42,8.42,0,0,0-8.36,8.48v8.47h50.07v-8.47a8.46,8.46,0,0,0-7.93-8.48Zm0,59.29a8.42,8.42,0,0,1,8.36,8.47v50.85a8.42,8.42,0,0,1-8.36,8.47,8.43,8.43,0,0,1-8.36-8.47V509.57A8.44,8.44,0,0,1-965.16,501.1Zm-33.35,0a8.43,8.43,0,0,1,8.36,8.47v50.85a8.43,8.43,0,0,1-8.36,8.47,8.42,8.42,0,0,1-8.36-8.47V509.57A8.42,8.42,0,0,1-998.51,501.1Zm66.74-25.43h-100.14V585.8a8.45,8.45,0,0,0,7.93,8.48h83.82a8.43,8.43,0,0,0,8.36-8.48Zm-33.39-50.81a25.23,25.23,0,0,1,25,25.43v8.47h33.35a8.38,8.38,0,0,1,8.32,8.05v.43a8.42,8.42,0,0,1-8.36,8.47h-8.36V585.84a25.24,25.24,0,0,1-24.45,25.43h-83.93a25.22,25.22,0,0,1-25-25.43V475.71h-8.36a8.37,8.37,0,0,1-8.32-8v-.43a8.42,8.42,0,0,1,8.36-8.48h33.35v-8.47a25.26,25.26,0,0,1,24.45-25.43h33.94Z"/>
    </clipPath>
    <clipPath id="clip-path-6">
      <path class="cls-1"
            d="M816.9,1356.21h-166V1250.83l83,52.69,83-52.69Zm0-126.45-83,52.69-83-52.69Zm20.75,0a21,21,0,0,0-20.75-21.08h-166a21,21,0,0,0-20.75,21.08v126.45a21,21,0,0,0,20.75,21.08h166a21,21,0,0,0,20.75-21.08Z"/>
    </clipPath>
    <clipPath id="clip-path-7">
      <path class="cls-1"
            d="M-506.07,1220.31v21.89h23.41Zm-45.27,30.35c5,0,9.05,3.79,9.05,8.47s-4.05,8.46-9.05,8.46h-18.11c-5,0-9-3.79-9-8.46s4-8.47,9-8.47Zm54.32,33.86c5,0,9.06,3.79,9.06,8.47s-4.05,8.46-9.06,8.46h-72.43c-5,0-9-3.79-9-8.46s4-8.47,9-8.47Zm0,33.86c5,0,9.06,3.79,9.06,8.46s-4.05,8.47-9.06,8.47h-72.43c-5,0-9-3.79-9-8.47s4-8.46,9-8.46Zm-27.16-110h-63.38c-5,0-9.05,3.79-9.05,8.47v135.42c0,4.68,4.05,8.47,9.05,8.47h108.65c5,0,9.06-3.79,9.06-8.47v-93.1h-45.26a8.83,8.83,0,0,1-9-7.89l0-.58Zm9.06-16.92c.23,0,.47,0,.7,0l-.7,0c.31,0,.62,0,.93,0l.61.08h.07a9.5,9.5,0,0,1,2.13.62l.14.06a8.32,8.32,0,0,1,1.28.7l.06,0a4.67,4.67,0,0,1,.51.36l.1.08.15.11.42.37,54.32,50.79a5.78,5.78,0,0,1,.49.5l-.49-.5c.22.2.42.41.61.62a8.16,8.16,0,0,1,1.17,1.74l.06.12a7.9,7.9,0,0,1,.77,2.64c0,.07,0,.14,0,.21,0,.22,0,.43,0,.65v101.57c0,14-12.17,25.4-27.17,25.4H-587.56c-15,0-27.16-11.37-27.16-25.4V1216.81c0-14,12.16-25.39,27.16-25.39Z"/>
    </clipPath>
    <clipPath id="clip-path-8">
      <path class="cls-1"
            d="M104.47,28.79a74.72,74.72,0,1,0,74.92,74.71A74.82,74.82,0,0,0,104.47,28.79Zm0-18.94A93.66,93.66,0,1,1,10.81,103.5,93.65,93.65,0,0,1,104.47,9.85Z"/>
    </clipPath>
    <clipPath id="clip-path-9">
      <path class="cls-2" d="M104.47,84.77A18.73,18.73,0,1,0,123.2,103.5a18.74,18.74,0,0,0-18.73-18.73"/>
    </clipPath>
  </defs>
  <g class="cls-10">
    <rect class="cls-11" x="-36.02" y="-36.98" width="280.97" height="280.97"/>
  </g>
  <g class="cls-12">
    <rect class="cls-11" x="38.91" y="37.94" width="131.12" height="131.12"/>
  </g>
</svg>
