<svg id="Layer_1" data-name="Layer 1" xmlns="http://www.w3.org/2000/svg" xmlns:xlink="http://www.w3.org/1999/xlink" viewBox="0 0 208.9 208.8"><defs><style>.cls-1{fill:none;}.cls-2{clip-path:url(#clip-path);}.cls-3{clip-path:url(#clip-path-2);}.cls-4{clip-path:url(#clip-path-3);}.cls-5{clip-path:url(#clip-path-4);}.cls-6{clip-path:url(#clip-path-5);}.cls-7{clip-path:url(#clip-path-6);}.cls-8{clip-path:url(#clip-path-7);}.cls-9{clip-path:url(#clip-path-8);}.cls-10{clip-path:url(#clip-path-9);}.cls-11{clip-path:url(#clip-path-10);}.cls-12{clip-path:url(#clip-path-11);}.cls-13{clip-path:url(#clip-path-12);}.cls-14{fill:#25a9e0;}.cls-15{clip-path:url(#clip-path-13);}.cls-16{clip-path:url(#clip-path-14);}</style><clipPath id="clip-path"><path class="cls-1" d="M-526.8,86.7V161h99c-14.4,43.3-53.3,74.3-99,74.3-57.9,0-104.9-50-104.9-111.5S-584.6,12.3-526.8,12.3a100.3,100.3,0,0,1,68,26.9l46-56C-444.3-45.9-484.7-62-526.7-62c-96.4,0-174.9,83.4-174.9,185.8s78.5,185.8,174.9,185.8,174.9-83.4,174.9-185.8V86.6Z"/></clipPath><clipPath id="clip-path-2"><path class="cls-1" d="M-390.9-511.3c33.4,2.6,66.6,5.4,94,13.9-27.2-4.4-60.2-11.1-94-12-14,27.2-42.1,40.5-80.9,43.3,4.2,8.9,12.2,12.3,14.1,26.8,2.9,21.5-4.6,53,2.8,67.3,3.5,6.9,9.3,7,13.2,12.9-9.5,11.1-33.1-1.3-35.7-12.9-4.6-20,7-51-5.6-64.6.9,21.8-5.2,52.4.9,71.9,2.4,7.7,9.4,10.6,7.5,17.5-44.2,4.4-25.7-56.4-32.9-92.2-6.7.5-3.7,9.8-3.8,13.8-.2,35,7.3,83.1-31,78.4-1.1-7.3,5.2-9.9,7.5-16.6,7-19.7-1.3-49.1,1.9-72.9-14.6,10.9,1.5,48.8-7.5,68.3-5.2,11.2-22,16.1-34.8,11.1,1.7-8.3,10.4-7,14.1-14.7,5.2-10.9,0-26.4,1.9-42.4-27.1,5.3-48.1-.7-58.3-17.5-4.6-7.5-5.7-16.4-11.3-23s-14.4-7.6-16.9-16.6c33.5-8,34.8,34,64.9,35,9.2.3,14-2.6,22.6-4.6,2.4-10.6,7.5-18.5,15.1-24-37.5-5.1-68.4-16.6-82.8-44.3A523.85,523.85,0,0,0-720-496.5c26.2-9.4,58.5-12.7,93.1-13.8-2-12.1-19.9-8.8-31-8.3-20.6.9-46.6,3.4-63,6.5,23.8-8.4,57.2-7.3,89.4-7.4-9.8-30.5-6.5-78.8,15-96.8-6.1-15.1-4.2-39.9,3.8-51.7,24,1.1,38.5,11.4,53.6,21.2,18.7-5.2,38.3-7.8,63.9-6.4,10.8.6,22,5.3,30.1,4.6s16.7-9.5,24.5-12.9c10.1-4.4,18.6-6,30.1-6.5,5.5,12.4,9.1,32.9,3.8,48,21.9,18.4,29.3,63.1,18.8,99.6,31.1,2.3,68.2-1.1,92.2,8.3-22.4-2.8-52.9-8.4-81.8-6.5C-383.3-518.3-391.3-518.8-390.9-511.3Z"/></clipPath><clipPath id="clip-path-3"><path class="cls-1" d="M137.4-1404.3a40.83,40.83,0,0,0-.8,23.5,41.74,41.74,0,0,0,30.1,30.1,42.57,42.57,0,0,0,23.5-.8Zm41.2-176.3c70.6,0,132.3,34.1,184.8,90.1a428,428,0,0,1,47,60.4c8,12.4,13.5,22.2,16.5,28.1a21,21,0,0,1-.3,19.2,412.23,412.23,0,0,1-47.5,70.2,20.81,20.81,0,0,1-29.4,2.5,20.81,20.81,0,0,1-2.5-29.4,362.47,362.47,0,0,0,37.2-53.2c-2.6-4.5-5.6-9.5-9-14.7a387.06,387.06,0,0,0-42.4-54.5c-45.3-48.4-97.1-76.9-154.4-76.9a171,171,0,0,0-39,4.5,20.88,20.88,0,0,1-25.1-15.6,20.88,20.88,0,0,1,15.6-25.1A213.54,213.54,0,0,1,178.6-1580.6ZM53.1-1488.7a364,364,0,0,0-80.3,96.1c2.6,4.5,5.6,9.5,9,14.7a387.06,387.06,0,0,0,42.4,54.5c45.3,48.4,97.1,76.9,154,76.9a189.55,189.55,0,0,0,91.6-25.3l-48.4-48.6a83.1,83.1,0,0,1-65,10.1,83.49,83.49,0,0,1-60.2-60.2,83.94,83.94,0,0,1,10.1-65ZM-65.8-1637.1a20.76,20.76,0,0,1,29.5,0l459.2,459.2a20.76,20.76,0,0,1,0,29.5,20.76,20.76,0,0,1-29.5,0l-93.2-93.2a231.56,231.56,0,0,1-121.6,36.7C108-1204.9,46.3-1239-6.2-1295a428,428,0,0,1-47-60.4c-8-12.4-13.5-22.2-16.5-28.1a21,21,0,0,1,.3-19.2,405.07,405.07,0,0,1,92.9-115.7l-89.3-89.2A20.94,20.94,0,0,1-65.8-1637.1Z"/></clipPath><clipPath id="clip-path-4"><path class="cls-1" d="M-1347.2,105.7a17.17,17.17,0,0,0-.3,9.8,17.14,17.14,0,0,0,12.4,12.4,18.12,18.12,0,0,0,9.8-.3Zm17-72.9c29.2,0,54.7,14.1,76.5,37.3a177.21,177.21,0,0,1,19.4,25c3.3,5.2,5.6,9.2,6.8,11.6a8.79,8.79,0,0,1-.1,7.9,159.28,159.28,0,0,1-19.7,29,8.49,8.49,0,0,1-12.1,1,8.49,8.49,0,0,1-1-12.1,144.86,144.86,0,0,0,15.4-22c-1.1-1.9-2.3-3.9-3.7-6.1a158.64,158.64,0,0,0-17.5-22.5c-18.7-20-40.1-31.8-63.9-31.8a73.13,73.13,0,0,0-16.2,1.8,8.64,8.64,0,0,1-10.4-6.4,8.69,8.69,0,0,1,6.4-10.4A84.92,84.92,0,0,1-1330.2,32.8Zm-51.9,38a151.19,151.19,0,0,0-33.2,39.8c1.1,1.9,2.3,3.9,3.7,6.1a158.64,158.64,0,0,0,17.5,22.5c18.7,20,40.1,31.8,63.7,31.8a78.49,78.49,0,0,0,37.9-10.5l-20-20a34.23,34.23,0,0,1-26.9,4.2,34.53,34.53,0,0,1-24.9-24.9,34.65,34.65,0,0,1,4.2-26.9Zm-49.2-61.4a8.57,8.57,0,0,1,12.2,0l43.6,43.6a6.47,6.47,0,0,1,.8.9l-.7-.8,102.5,102.5.1.1v.1l43.6,43.6a8.69,8.69,0,0,1,.8,11.4l-.8.9a8.57,8.57,0,0,1-12.2,0L-1280,173a95.76,95.76,0,0,1-50.3,15.2c-29.2,0-54.7-14.1-76.5-37.3a177.21,177.21,0,0,1-19.4-25c-3.3-5.2-5.6-9.2-6.8-11.6a8.79,8.79,0,0,1,.1-7.9,169.69,169.69,0,0,1,38.4-47.9l-36.9-36.9A8.85,8.85,0,0,1-1431.3,9.4Z"/></clipPath><clipPath id="clip-path-5"><path class="cls-1" d="M-965.2,441.8h-33.4a8.47,8.47,0,0,0-8.4,8.5v8.5h50.1v-8.5a8.52,8.52,0,0,0-7.9-8.5Zm0,59.3a8.47,8.47,0,0,1,8.4,8.5v50.8a8.41,8.41,0,0,1-8.4,8.5,8.41,8.41,0,0,1-8.4-8.5V509.6A8.6,8.6,0,0,1-965.2,501.1Zm-33.3,0a8.47,8.47,0,0,1,8.4,8.5v50.8a8.41,8.41,0,0,1-8.4,8.5,8.41,8.41,0,0,1-8.4-8.5V509.6A8.47,8.47,0,0,1-998.5,501.1Zm66.7-25.4h-100.1V585.8a8.52,8.52,0,0,0,7.9,8.5h83.8a8.47,8.47,0,0,0,8.4-8.5Zm-33.4-50.8a25.22,25.22,0,0,1,25,25.4v8.5h33.4a8.35,8.35,0,0,1,8.3,8v.4a8.41,8.41,0,0,1-8.4,8.5h-8.4V585.8a25.26,25.26,0,0,1-24.5,25.4h-83.9a25.22,25.22,0,0,1-25-25.4V475.7h-8.4a8.35,8.35,0,0,1-8.3-8v-.4a8.41,8.41,0,0,1,8.4-8.5h33.4v-8.5a25.26,25.26,0,0,1,24.5-25.4h33.9Z"/></clipPath><clipPath id="clip-path-6"><path class="cls-1" d="M816.9,1356.2h-166V1250.8l83,52.7,83-52.7Zm0-126.4-83,52.7-83-52.7Zm20.8,0a21,21,0,0,0-20.8-21.1h-166a21,21,0,0,0-20.8,21.1v126.5a21,21,0,0,0,20.8,21.1h166a21,21,0,0,0,20.8-21.1Z"/></clipPath><clipPath id="clip-path-7"><path class="cls-1" d="M-506.1,1220.3v21.9h23.4Zm-45.2,30.4c5,0,9.1,3.8,9.1,8.5s-4.1,8.5-9.1,8.5h-18.1c-5,0-9.1-3.8-9.1-8.5s4.1-8.5,9.1-8.5Zm54.3,33.8c5,0,9.1,3.8,9.1,8.5s-4.1,8.5-9.1,8.5h-72.4c-5,0-9.1-3.8-9.1-8.5s4.1-8.5,9.1-8.5Zm0,33.9c5,0,9.1,3.8,9.1,8.5s-4.1,8.5-9.1,8.5h-72.4c-5,0-9.1-3.8-9.1-8.5s4.1-8.5,9.1-8.5Zm-27.2-110.1h-63.4c-5,0-9.1,3.8-9.1,8.5v135.4c0,4.7,4.1,8.5,9.1,8.5h108.7c5,0,9.1-3.8,9.1-8.5v-93.1h-45.3a8.79,8.79,0,0,1-9-7.9v-.6Zm9.1-16.9h.9a1.27,1.27,0,0,1,.6.1h.1a7.27,7.27,0,0,1,2.1.6.1.1,0,0,1,.1.1,5.39,5.39,0,0,1,1.3.7h.1a1.76,1.76,0,0,1,.5.4.1.1,0,0,1,.1.1.1.1,0,0,1,.1.1l.4.4,54.3,50.8.5.5-.5-.5.6.6a6.57,6.57,0,0,1,1.2,1.7.1.1,0,0,0,.1.1,7.86,7.86,0,0,1,.8,2.6v102.5c0,14-12.2,25.4-27.2,25.4H-587.7c-15,0-27.2-11.4-27.2-25.4V1216.8c0-14,12.2-25.4,27.2-25.4Z"/></clipPath><clipPath id="clip-path-8"><path class="cls-1" d="M282.85,796.29a6.27,6.27,0,0,0-6.3,6.3v36.1a6.17,6.17,0,0,1-6.3,6.1H147.65a6.17,6.17,0,0,1-6.3-6.1v-36.1a6.27,6.27,0,0,0-6.3-6.3h0a6.27,6.27,0,0,0-6.3,6.3v36.1a18.55,18.55,0,0,0,18.8,18.3h122.7a18.55,18.55,0,0,0,18.8-18.3v-36.1a6.13,6.13,0,0,0-6.2-6.3Z"/></clipPath><clipPath id="clip-path-9"><path class="cls-1" d="M207.35,702.29l-30.8,30.4a6.28,6.28,0,0,0,0,8.8h0a6,6,0,0,0,8.6,0l19.2-18.9v88.8a6.23,6.23,0,0,0,6.2,6.2h0a6.23,6.23,0,0,0,6.2-6.2v-88.9l19.2,18.9a6,6,0,0,0,8.6,0h0a6.28,6.28,0,0,0,0-8.8l-30.9-30.4A4.63,4.63,0,0,0,207.35,702.29Z"/></clipPath><clipPath id="clip-path-10"><path class="cls-1" d="M326.4,203.7h0c.1.1.1.1.1.2v.1l.1.1h0a.1.1,0,0,0,.1.1h0a.37.37,0,0,1,.1.3h0v.1h0v1.5c0,.1-.1.2-.1.3v.1c0,.1-.1.1-.1.2v.1a.1.1,0,0,1-.1.1h0c0,.1-.1.1-.2.2l.1-.1h0l-9.7,9.7a2.26,2.26,0,0,1-3.2-3.2l5.8-5.8H289.2a2.29,2.29,0,0,1-2.3-2.1v-.2a2.26,2.26,0,0,1,2.3-2.3h30.1l-5.8-5.8a2.21,2.21,0,0,1-.1-3.1l.1-.1a2.23,2.23,0,0,1,3.2,0Zm-21.1-11.3a2.26,2.26,0,1,1-3.2,3.2l-9.7-9.7a2.23,2.23,0,0,0-3.2,0l-17.8,17.8a2.23,2.23,0,0,0,0,3.2l17.8,17.8a2.23,2.23,0,0,0,3.2,0l9.7-9.7a2.26,2.26,0,1,1,3.2,3.2l-9.7,9.7a6.82,6.82,0,0,1-9.7,0L268,210.2a6.82,6.82,0,0,1,0-9.7l17.8-17.8a6.82,6.82,0,0,1,9.7,0Z"/></clipPath><clipPath id="clip-path-11"><path class="cls-1" d="M165.7,112.66,50.64,119.3,45.9,67.38H177.22ZM148.84,172a7.57,7.57,0,1,1,7.71-7.57A7.64,7.64,0,0,1,148.84,172Zm-83.48,0a7.57,7.57,0,1,1,7.71-7.57A7.65,7.65,0,0,1,65.36,172ZM186.79,52.71H44.56L42.44,29.58A7.41,7.41,0,0,0,35,22.9H19.82a7.34,7.34,0,1,0,0,14.67h8.35c4.56,49.92-7.23-79.09,8.59,94A28.11,28.11,0,0,0,47.52,150.7c-11.58,14.52-1,35.93,17.84,35.93,15.63,0,26.66-15.31,21.3-29.82h40.89c-5.36,14.49,5.65,29.82,21.29,29.82a22.25,22.25,0,1,0,0-44.49H65.41a13.89,13.89,0,0,1-12.76-8.26L172.05,127a7.43,7.43,0,0,0,6.81-5.54L194,61.83A7.37,7.37,0,0,0,186.79,52.71Z"/></clipPath><clipPath id="clip-path-12"><rect class="cls-1" x="-1715.86" y="-1309.64" width="6549" height="5948.68"/></clipPath><clipPath id="clip-path-13"><path class="cls-1" d="M44.87-85.72H87.29v16.5H44.87l9,9L42.23-48.54,13.41-77.47l28.82-28.94L53.86-94.74Zm71.38-53.76,28.51,28.94L116.25-81.61,104.76-93.27l8.88-9H70.87v-16.5h42.77l-8.88-9Z"/></clipPath><clipPath id="clip-path-14"><path class="cls-1" d="M46-252.19a5.41,5.41,0,0,0-7.84,0L14.4-227.5,4.46-237.81a5.41,5.41,0,0,0-7.84,0,5.91,5.91,0,0,0,0,8.13L10.48-215.3a5.4,5.4,0,0,0,3.92,1.69,5.39,5.39,0,0,0,3.91-1.69L46-244.06A5.91,5.91,0,0,0,46-252.19Z"/></clipPath></defs><g class="cls-12"><g class="cls-13"><rect class="cls-14" x="-10.39" y="0.16" width="227.4" height="209.2"/></g></g></svg>