<svg id="Layer_1" data-name="Layer 1" xmlns="http://www.w3.org/2000/svg" xmlns:xlink="http://www.w3.org/1999/xlink" viewBox="0 0 419.1 418.69"><defs><style>.cls-1,.cls-2{fill:none;}.cls-2{clip-rule:evenodd;}.cls-3{clip-path:url(#clip-path);}.cls-4{clip-path:url(#clip-path-2);}.cls-5{clip-path:url(#clip-path-3);}.cls-6{clip-path:url(#clip-path-4);}.cls-7{clip-path:url(#clip-path-5);}.cls-8{isolation:isolate;}.cls-9{clip-path:url(#clip-path-6);}.cls-10{clip-path:url(#clip-path-7);}.cls-11{fill:#27a9e0;}</style><clipPath id="clip-path"><path class="cls-1" d="M-418.2,764.3v74.3h99c-14.4,43.3-53.3,74.3-99,74.3-57.9,0-104.9-50-104.9-111.5S-476,689.9-418.2,689.9a100.3,100.3,0,0,1,68,26.9l46-56c-31.5-29.1-71.9-45.2-113.9-45.2C-514.5,615.6-593,699-593,801.4s78.5,185.8,174.9,185.8,174.9-83.4,174.9-185.8V764.2Z"/></clipPath><clipPath id="clip-path-2"><path class="cls-1" d="M-282.3,166.3c33.4,2.6,66.6,5.4,94,13.9-27.2-4.4-60.2-11.1-94-12-14,27.2-42.1,40.5-80.9,43.3,4.2,8.9,12.2,12.3,14.1,26.8,2.9,21.5-4.6,53,2.8,67.3,3.5,6.9,9.3,7,13.2,12.9-9.5,11.1-33.1-1.3-35.7-12.9-4.6-20,7-51-5.6-64.6.9,21.8-5.2,52.4.9,71.9,2.4,7.7,9.4,10.6,7.5,17.5-44.2,4.4-25.7-56.4-32.9-92.2-6.7.5-3.7,9.8-3.8,13.8-.2,35,7.3,83.1-31,78.4-1.1-7.3,5.2-9.9,7.5-16.6,7-19.7-1.3-49.1,1.9-72.9-14.6,10.9,1.5,48.8-7.5,68.3-5.2,11.2-22,16.1-34.8,11.1,1.7-8.3,10.4-7,14.1-14.7,5.2-10.9,0-26.4,1.9-42.4-27.1,5.3-48.1-.7-58.3-17.5-4.6-7.5-5.7-16.4-11.3-23s-14.4-7.6-16.9-16.6c33.5-8,34.8,34,64.9,35,9.2.3,14-2.6,22.6-4.6,2.4-10.6,7.5-18.5,15.1-24-37.5-5.1-68.4-16.6-82.8-44.3a523.85,523.85,0,0,0-94.1,12.9c26.2-9.4,58.5-12.7,93.1-13.8-2-12.1-19.9-8.8-31-8.3-20.6.9-46.6,3.4-63,6.5,23.8-8.4,57.2-7.3,89.4-7.4-9.8-30.5-6.5-78.8,15-96.8-6.1-15.1-4.2-39.9,3.8-51.7,24,1.1,38.5,11.4,53.6,21.2,18.7-5.2,38.3-7.8,63.9-6.4,10.8.6,22,5.3,30.1,4.6s16.7-9.5,24.5-12.9c10.1-4.4,18.6-6,30.1-6.5,5.5,12.4,9.1,32.9,3.8,48,21.9,18.4,29.3,63.1,18.8,99.6,31.1,2.3,68.2-1.1,92.2,8.3-22.4-2.8-52.9-8.4-81.8-6.5C-274.7,159.3-282.7,158.8-282.3,166.3Z"/></clipPath><clipPath id="clip-path-3"><path class="cls-2" d="M246-726.73a41.67,41.67,0,0,0-.84,23.52,41.73,41.73,0,0,0,30.12,30.12,41.71,41.71,0,0,0,23.53-.84ZM287.19-903c70.55,0,132.32,34.07,184.84,90.09a428.37,428.37,0,0,1,47,60.36,317.8,317.8,0,0,1,16.47,28.09,20.89,20.89,0,0,1-.26,19.17,407.31,407.31,0,0,1-47.53,70.19,20.87,20.87,0,0,1-29.41,2.53,20.87,20.87,0,0,1-2.54-29.41A365,365,0,0,0,493-715.15c-2.62-4.53-5.64-9.46-9-14.72a385.77,385.77,0,0,0-42.38-54.45c-45.33-48.36-97.07-76.9-154.43-76.9a169.29,169.29,0,0,0-39,4.46A20.89,20.89,0,0,1,223-872.33a20.86,20.86,0,0,1,15.57-25.08A210.6,210.6,0,0,1,287.19-903ZM161.68-811.1A364.36,364.36,0,0,0,81.42-715c2.62,4.52,5.62,9.45,9,14.7a386.51,386.51,0,0,0,42.38,54.45c45.34,48.36,97.08,76.91,154,76.91a189.34,189.34,0,0,0,91.58-25.35L330-642.78a83.51,83.51,0,0,1-65,10.15,83.49,83.49,0,0,1-60.24-60.25,83.51,83.51,0,0,1,10.14-65ZM42.81-959.48a20.86,20.86,0,0,1,29.52,0L531.58-500.24a20.89,20.89,0,0,1,0,29.53,20.88,20.88,0,0,1-29.52,0L408.8-563.95a231.52,231.52,0,0,1-121.61,36.73c-70.55,0-132.32-34.08-184.84-90.1a428.37,428.37,0,0,1-47-60.36A315.8,315.8,0,0,1,38.9-705.76,20.88,20.88,0,0,1,39.17-725,406,406,0,0,1,132.05-840.7L42.81-930A20.86,20.86,0,0,1,42.81-959.48Z"/></clipPath><clipPath id="clip-path-4"><path class="cls-2" d="M175.12,199.67a34.85,34.85,0,0,0,44.08,44.09ZM209.47,52.6c58.88,0,110.43,28.44,154.26,75.2A356.57,356.57,0,0,1,403,178.17a264.41,264.41,0,0,1,13.75,23.44,17.45,17.45,0,0,1-.22,16,339.25,339.25,0,0,1-39.67,58.58,17.42,17.42,0,1,1-26.66-22.43,304.8,304.8,0,0,0,31.07-44.4c-2.19-3.78-4.7-7.9-7.54-12.29a321.75,321.75,0,0,0-35.37-45.44c-37.83-40.36-81-64.18-128.88-64.18a141.14,141.14,0,0,0-32.57,3.72,17.42,17.42,0,1,1-7.94-33.93A176.53,176.53,0,0,1,209.47,52.6ZM104.72,129.28a304,304,0,0,0-67,80.18c2.18,3.77,4.69,7.89,7.52,12.27a321.75,321.75,0,0,0,35.37,45.44c37.83,40.36,81,64.18,128.56,64.19a158,158,0,0,0,76.45-21.17l-40.45-40.45a69.69,69.69,0,0,1-96.06-96.06ZM5.51,5.44a17.43,17.43,0,0,1,24.64,0l88,88a16.89,16.89,0,0,1,1.72,1.94L118.4,93.7,325.1,300.38l.15.16.15.16,88,88A17.43,17.43,0,0,1,415,411.58l-1.56,1.78a17.43,17.43,0,0,1-24.64,0L311,335.54a193.21,193.21,0,0,1-101.5,30.66C150.59,366.2,99,337.76,55.21,291A356.57,356.57,0,0,1,16,240.63,263.67,263.67,0,0,1,2.25,217.19a17.42,17.42,0,0,1,.23-16A338.78,338.78,0,0,1,80,104.56L5.51,30.08A17.43,17.43,0,0,1,5.51,5.44Z"/></clipPath><clipPath id="clip-path-5"><rect class="cls-1" x="-17226.36" y="-7463.2" width="30105.03" height="19191.96"/></clipPath><clipPath id="clip-path-6"><rect class="cls-1" x="-104.12" y="-104.19" width="627.19" height="627.19"/></clipPath><clipPath id="clip-path-7"><rect class="cls-1" x="0.41" y="0.34" width="418.13" height="418.13"/></clipPath></defs><g class="cls-6"><g class="cls-7"><g class="cls-8"><g class="cls-9"><g class="cls-10"><rect x="-104.12" y="-104.19" width="627.19" height="627.19"/><rect class="cls-11" x="-104.12" y="-104.19" width="627.19" height="627.19"/></g></g></g></g></g></svg>