<svg id="Layer_1" data-name="Layer 1" xmlns="http://www.w3.org/2000/svg" viewBox="0 0 336.77 275.87">
  <defs>
    <style>
      .cls-1{fill:none;}.cls-2{fill:#fff;}.cls-3{fill:#25a9e0;}.cls-4{clip-path:url(#clip-path);}.cls-5{clip-path:url(#clip-path-2);}.cls-6{clip-path:url(#clip-path-3);}.cls-7{clip-path:url(#clip-path-4);}.cls-8{clip-path:url(#clip-path-5);}.cls-9{clip-path:url(#clip-path-6);}.cls-10{clip-path:url(#clip-path-7);}.cls-11{clip-path:url(#clip-path-8);}.cls-12{clip-path:url(#clip-path-9);}.cls-13{clip-path:url(#clip-path-10);}.cls-14{clip-path:url(#clip-path-11);}.cls-15{clip-path:url(#clip-path-12);}.cls-16{clip-path:url(#clip-path-13);}.cls-17{clip-path:url(#clip-path-14);}.cls-18{clip-path:url(#clip-path-15);}.cls-19{clip-path:url(#clip-path-16);}.cls-20{isolation:isolate;}.cls-21{clip-path:url(#clip-path-17);}.cls-22{clip-path:url(#clip-path-18);}.cls-23{clip-path:url(#clip-path-19);}
    </style>
    <clipPath id="clip-path">
      <path class="cls-1"
            d="M-463.59,179v74.3h99c-14.4,43.3-53.3,74.3-99,74.3-57.9,0-104.9-50-104.9-111.5s47.1-111.5,104.9-111.5a100.3,100.3,0,0,1,68,26.9l46-56c-31.5-29.1-71.9-45.2-113.9-45.2-96.4,0-174.9,83.4-174.9,185.8s78.5,185.8,174.9,185.8,174.9-83.4,174.9-185.8v-37.2Z"/>
    </clipPath>
    <clipPath id="clip-path-2">
      <path class="cls-1"
            d="M-327.69-419c33.4,2.6,66.6,5.4,94,13.9-27.2-4.4-60.2-11.1-94-12-14,27.2-42.1,40.5-80.9,43.3,4.2,8.9,12.2,12.3,14.1,26.8,2.9,21.5-4.6,53,2.8,67.3,3.5,6.9,9.3,7,13.2,12.9-9.5,11.1-33.1-1.3-35.7-12.9-4.6-20,7-51-5.6-64.6.9,21.8-5.2,52.4.9,71.9,2.4,7.7,9.4,10.6,7.5,17.5-44.2,4.4-25.7-56.4-32.9-92.2-6.7.5-3.7,9.8-3.8,13.8-.2,35,7.3,83.1-31,78.4-1.1-7.3,5.2-9.9,7.5-16.6,7-19.7-1.3-49.1,1.9-72.9-14.6,10.9,1.5,48.8-7.5,68.3-5.2,11.2-22,16.1-34.8,11.1,1.7-8.3,10.4-7,14.1-14.7,5.2-10.9,0-26.4,1.9-42.4-27.1,5.3-48.1-.7-58.3-17.5-4.6-7.5-5.7-16.4-11.3-23s-14.4-7.6-16.9-16.6c33.5-8,34.8,34,64.9,35,9.2.3,14-2.6,22.6-4.6,2.4-10.6,7.5-18.5,15.1-24-37.5-5.1-68.4-16.6-82.8-44.3a523.85,523.85,0,0,0-94.1,12.9c26.2-9.4,58.5-12.7,93.1-13.8-2-12.1-19.9-8.8-31-8.3-20.6.9-46.6,3.4-63,6.5,23.8-8.4,57.2-7.3,89.4-7.4-9.8-30.5-6.5-78.8,15-96.8-6.1-15.1-4.2-39.9,3.8-51.7,24,1.1,38.5,11.4,53.6,21.2,18.7-5.2,38.3-7.8,63.9-6.4,10.8.6,22,5.3,30.1,4.6s16.7-9.5,24.5-12.9c10.1-4.4,18.6-6,30.1-6.5,5.5,12.4,9.1,32.9,3.8,48,21.9,18.4,29.3,63.1,18.8,99.6,31.1,2.3,68.2-1.1,92.2,8.3-22.4-2.8-52.9-8.4-81.8-6.5C-320.09-426-328.09-426.53-327.69-419Z"/>
    </clipPath>
    <clipPath id="clip-path-3">
      <path class="cls-1"
            d="M200.61-1312a40.83,40.83,0,0,0-.8,23.5,41.74,41.74,0,0,0,30.1,30.1,42.57,42.57,0,0,0,23.5-.8Zm41.2-176.3c70.6,0,132.3,34.1,184.8,90.1a428,428,0,0,1,47,60.4c8,12.4,13.5,22.2,16.5,28.1a21,21,0,0,1-.3,19.2,412.23,412.23,0,0,1-47.5,70.2,20.81,20.81,0,0,1-29.4,2.5,20.81,20.81,0,0,1-2.5-29.4,362.47,362.47,0,0,0,37.2-53.2c-2.6-4.5-5.6-9.5-9-14.7a387.06,387.06,0,0,0-42.4-54.5c-45.3-48.4-97.1-76.9-154.4-76.9a171,171,0,0,0-39,4.5,20.88,20.88,0,0,1-25.1-15.6,20.88,20.88,0,0,1,15.6-25.1A213.54,213.54,0,0,1,241.81-1488.33Zm-125.5,91.9a364,364,0,0,0-80.3,96.1c2.6,4.5,5.6,9.5,9,14.7a387.06,387.06,0,0,0,42.4,54.5c45.3,48.4,97.1,76.9,154,76.9a189.55,189.55,0,0,0,91.6-25.3l-48.4-48.6a83.1,83.1,0,0,1-65,10.1,83.49,83.49,0,0,1-60.2-60.2,83.94,83.94,0,0,1,10.1-65Zm-118.9-148.4a20.76,20.76,0,0,1,29.5,0l459.2,459.2a20.76,20.76,0,0,1,0,29.5,20.76,20.76,0,0,1-29.5,0l-93.2-93.2a231.56,231.56,0,0,1-121.6,36.7c-70.6,0-132.3-34.1-184.8-90.1a428,428,0,0,1-47-60.4c-8-12.4-13.5-22.2-16.5-28.1a21,21,0,0,1,.3-19.2,405.07,405.07,0,0,1,92.9-115.7l-89.3-89.2A20.94,20.94,0,0,1-2.59-1544.83Z"/>
    </clipPath>
    <clipPath id="clip-path-4">
      <path class="cls-1"
            d="M-1284,198a17.17,17.17,0,0,0-.3,9.8,17.14,17.14,0,0,0,12.4,12.4,18.12,18.12,0,0,0,9.8-.3Zm17-72.9c29.2,0,54.7,14.1,76.5,37.3a177.21,177.21,0,0,1,19.4,25c3.3,5.2,5.6,9.2,6.8,11.6a8.79,8.79,0,0,1-.1,7.9,159.28,159.28,0,0,1-19.7,29,8.49,8.49,0,0,1-12.1,1,8.49,8.49,0,0,1-1-12.1,144.86,144.86,0,0,0,15.4-22c-1.1-1.9-2.3-3.9-3.7-6.1a158.64,158.64,0,0,0-17.5-22.5c-18.7-20-40.1-31.8-63.9-31.8a73.13,73.13,0,0,0-16.2,1.8,8.64,8.64,0,0,1-10.4-6.4,8.69,8.69,0,0,1,6.4-10.4A84.92,84.92,0,0,1-1267,125.07Zm-51.9,38a151.19,151.19,0,0,0-33.2,39.8c1.1,1.9,2.3,3.9,3.7,6.1a158.64,158.64,0,0,0,17.5,22.5c18.7,20,40.1,31.8,63.7,31.8a78.49,78.49,0,0,0,37.9-10.5l-20-20a34.23,34.23,0,0,1-26.9,4.2,34.53,34.53,0,0,1-24.9-24.9,34.65,34.65,0,0,1,4.2-26.9Zm-49.2-61.4a8.57,8.57,0,0,1,12.2,0l43.6,43.6a6.47,6.47,0,0,1,.8.9l-.7-.8,102.5,102.5.1.1v.1l43.6,43.6a8.69,8.69,0,0,1,.8,11.4l-.8.9a8.57,8.57,0,0,1-12.2,0l-38.6-38.7a95.76,95.76,0,0,1-50.3,15.2c-29.2,0-54.7-14.1-76.5-37.3a177.21,177.21,0,0,1-19.4-25c-3.3-5.2-5.6-9.2-6.8-11.6a8.79,8.79,0,0,1,.1-7.9,169.69,169.69,0,0,1,38.4-47.9l-36.9-36.9A8.85,8.85,0,0,1-1368.09,101.67Z"/>
    </clipPath>
    <clipPath id="clip-path-5">
      <path class="cls-1"
            d="M-147.39,57.93h-33.4a8.47,8.47,0,0,0-8.4,8.5v8.5h50.1v-8.5a8.52,8.52,0,0,0-7.9-8.5Zm0,59.3a8.47,8.47,0,0,1,8.4,8.5v50.8a8.41,8.41,0,0,1-8.4,8.5,8.41,8.41,0,0,1-8.4-8.5v-50.8A8.6,8.6,0,0,1-147.39,117.23Zm-33.3,0a8.47,8.47,0,0,1,8.4,8.5v50.8a8.41,8.41,0,0,1-8.4,8.5,8.41,8.41,0,0,1-8.4-8.5v-50.8A8.47,8.47,0,0,1-180.69,117.23Zm66.7-25.4h-100.1v110.1a8.52,8.52,0,0,0,7.9,8.5h83.8a8.47,8.47,0,0,0,8.4-8.5ZM-147.39,41a25.22,25.22,0,0,1,25,25.4v8.5H-89a8.35,8.35,0,0,1,8.3,8v.4a8.41,8.41,0,0,1-8.4,8.5h-8.4v110.1a25.26,25.26,0,0,1-24.5,25.4h-83.9a25.22,25.22,0,0,1-25-25.4V91.83h-8.4a8.35,8.35,0,0,1-8.3-8v-.4a8.41,8.41,0,0,1,8.4-8.5h33.4v-8.5A25.26,25.26,0,0,1-181.29,41h33.9Z"/>
    </clipPath>
    <clipPath id="clip-path-6">
      <path class="cls-1"
            d="M880.11,1448.47h-166v-105.4l83,52.7,83-52.7Zm0-126.4-83,52.7-83-52.7Zm20.8,0a21,21,0,0,0-20.8-21.1h-166a21,21,0,0,0-20.8,21.1v126.5a21,21,0,0,0,20.8,21.1h166a21,21,0,0,0,20.8-21.1Z"/>
    </clipPath>
    <clipPath id="clip-path-7">
      <path class="cls-1"
            d="M173.24,1200.37V1229h30.58Zm-59.08,39.73c6.54,0,11.9,5,11.9,11.11s-5.36,11.11-11.9,11.11H90.51c-6.54,0-11.9-5-11.9-11.11s5.36-11.11,11.9-11.11Zm71,44.17c6.54,0,11.9,5,11.9,11.11s-5.36,11.11-11.9,11.11H90.51c-6.54,0-11.9-5-11.9-11.11s5.36-11.11,11.9-11.11Zm0,44.31c6.54,0,11.9,5,11.9,11.11s-5.36,11.11-11.9,11.11H90.51c-6.54,0-11.9-5-11.9-11.11s5.36-11.11,11.9-11.11Zm-35.55-143.9H66.72c-6.54,0-11.89,5-11.89,11.11v177c0,6.14,5.35,11.11,11.89,11.11H208.79c6.54,0,11.89-5,11.89-11.11V1251.08h-59.2c-6.28,0-11.37-4.58-11.77-10.33V1240Zm11.9-22.09h1.17a1.69,1.69,0,0,1,.79.13h.13a9.53,9.53,0,0,1,2.74.79.13.13,0,0,1,.13.13,6.89,6.89,0,0,1,1.7.91h.13a2.2,2.2,0,0,1,.66.53,202142753269.22,202142753269.22,0,0,0,.26.26l.52.52,71,66.4.65.65-.65-.65.79.78a8.59,8.59,0,0,1,1.56,2.22.13.13,0,0,0,.13.13,10.12,10.12,0,0,1,1.05,3.4v134c0,18.3-16,33.2-35.55,33.2H66.59C47,1406,31,1391.06,31,1372.76v-177c0-18.3,15.94-33.2,35.55-33.2Z"/>
    </clipPath>
    <clipPath id="clip-path-8">
      <path class="cls-1"
            d="M346.05,888.57a6.27,6.27,0,0,0-6.3,6.3V931a6.17,6.17,0,0,1-6.3,6.1H210.85a6.17,6.17,0,0,1-6.3-6.1v-36.1a6.27,6.27,0,0,0-6.3-6.3h0a6.27,6.27,0,0,0-6.3,6.3V931a18.55,18.55,0,0,0,18.8,18.3h122.7a18.55,18.55,0,0,0,18.8-18.3v-36.1a6.13,6.13,0,0,0-6.2-6.3Z"/>
    </clipPath>
    <clipPath id="clip-path-9">
      <path class="cls-1"
            d="M270.55,794.57,239.75,825a6.28,6.28,0,0,0,0,8.8h0a6,6,0,0,0,8.6,0l19.2-18.9v88.8a6.23,6.23,0,0,0,6.2,6.2h0a6.23,6.23,0,0,0,6.2-6.2v-88.9l19.2,18.9a6,6,0,0,0,8.6,0h0a6.28,6.28,0,0,0,0-8.8l-30.9-30.4A4.63,4.63,0,0,0,270.55,794.57Z"/>
    </clipPath>
    <clipPath id="clip-path-10">
      <path class="cls-1"
            d="M660.9-246.71l-115,6.64L541.1-292H672.43Zm-16.85,59.29a7.65,7.65,0,0,1-7.71-7.57,7.64,7.64,0,0,1,7.71-7.56,7.64,7.64,0,0,1,7.71,7.56A7.65,7.65,0,0,1,644.05-187.42Zm-83.49,0a7.64,7.64,0,0,1-7.7-7.57,7.64,7.64,0,0,1,7.7-7.56,7.64,7.64,0,0,1,7.71,7.56A7.65,7.65,0,0,1,560.56-187.42ZM682-306.66H539.76l-2.11-23.13a7.43,7.43,0,0,0-7.44-6.68H515a7.41,7.41,0,0,0-7.47,7.34A7.4,7.4,0,0,0,515-321.8h8.35c4.56,49.92-7.23-79.09,8.59,94a28.11,28.11,0,0,0,10.76,19.12c-11.58,14.52-1,35.93,17.83,35.93,15.64,0,26.66-15.31,21.3-29.81h40.89c-5.35,14.48,5.65,29.81,21.3,29.81A22.48,22.48,0,0,0,666.7-195a22.47,22.47,0,0,0-22.65-22.24H560.61a13.87,13.87,0,0,1-12.75-8.26l119.4-6.89a7.44,7.44,0,0,0,6.81-5.54l15.18-59.62A7.38,7.38,0,0,0,682-306.66Z"/>
    </clipPath>
    <clipPath id="clip-path-11">
      <path class="cls-1"
            d="M72.73,580.62h58.12a6.77,6.77,0,0,1,6.77,6.77v11.7a6.77,6.77,0,0,1-6.77,6.77H72.73l9,9a6.77,6.77,0,0,1,0,9.56l-8.22,8.25a6.76,6.76,0,0,1-9.59,0L29.35,598a6.78,6.78,0,0,1,0-9.56L63.9,553.79a6.76,6.76,0,0,1,9.59,0l8.22,8.26a6.76,6.76,0,0,1,0,9.55Zm114-77.34,34.11,34.62a6.78,6.78,0,0,1,0,9.5L186.75,582a6.78,6.78,0,0,1-9.65,0l-8.08-8.2a6.76,6.76,0,0,1,0-9.5l8.91-9.05H119.28a6.77,6.77,0,0,1-6.77-6.76V536.8a6.77,6.77,0,0,1,6.77-6.77h58.65L169,521a6.76,6.76,0,0,1,0-9.5l8.08-8.21A6.78,6.78,0,0,1,186.75,503.28Z"/>
    </clipPath>
    <clipPath id="clip-path-12">
      <path class="cls-2"
            d="M750.53,517.15a12.28,12.28,0,0,0-17.81,0l-54.08,56.12-22.59-23.43a12.26,12.26,0,0,0-17.81,0,13.41,13.41,0,0,0,0,18.48L669.73,601a12.28,12.28,0,0,0,17.82,0l63-65.37A13.43,13.43,0,0,0,750.53,517.15Z"/>
    </clipPath>
    <clipPath id="clip-path-13">
      <path class="cls-1"
            d="M415.34-438.49l-83.41,83.4v24h24l83.41-83.41Zm6.55-19.66L459-421.08a9.26,9.26,0,0,1,0,13.1L366.29-315.3a9.31,9.31,0,0,1-6.56,2.71H322.66a9.27,9.27,0,0,1-9.26-9.27v-37.07a9.26,9.26,0,0,1,2.71-6.55l92.67-92.67A9.27,9.27,0,0,1,421.89-458.15Zm-86.81,15.82a9.27,9.27,0,0,1,9.27,9.27,9.27,9.27,0,0,1-9.27,9.26H285.6a9.27,9.27,0,0,0-9.27,9.27v129.74a9.27,9.27,0,0,0,9.27,9.27H415.34a9.26,9.26,0,0,0,9.26-9.27v-49.49a9.27,9.27,0,0,1,9.27-9.26,9.27,9.27,0,0,1,9.27,9.26v49.49a27.8,27.8,0,0,1-27.8,27.8H285.6a27.8,27.8,0,0,1-27.81-27.8V-414.53a27.81,27.81,0,0,1,27.81-27.8Z"/>
    </clipPath>
    <clipPath id="clip-path-14">
      <path class="cls-3"
            d="M-611-213.92H-647.9a9.21,9.21,0,0,0-9.21,9.21v9.21h55.3v-9.21a9.21,9.21,0,0,0-8.14-9.15Zm0,64.51a9.21,9.21,0,0,1,9.21,9.22v55.3A9.21,9.21,0,0,1-611-75.68a9.21,9.21,0,0,1-9.22-9.21v-55.3A9.22,9.22,0,0,1-611-149.41Zm-36.87,0a9.22,9.22,0,0,1,9.22,9.22v55.3a9.21,9.21,0,0,1-9.22,9.21,9.21,9.21,0,0,1-9.21-9.21v-55.3A9.21,9.21,0,0,1-647.9-149.41Zm73.73-27.65h-110.6V-57.24a9.21,9.21,0,0,0,8.14,9.15l1.07.06h92.17a9.21,9.21,0,0,0,9.21-9.21ZM-611-232.36a27.65,27.65,0,0,1,27.65,27.65v9.21h36.86a9.23,9.23,0,0,1,9.16,8.14l.06,1.08a9.21,9.21,0,0,1-9.22,9.21h-9.22V-57.24a27.65,27.65,0,0,1-26,27.6l-1.62.05h-92.17A27.65,27.65,0,0,1-703.2-57.24V-177.06h-9.21a9.22,9.22,0,0,1-9.16-8.14l-.06-1.07a9.22,9.22,0,0,1,9.22-9.22h36.86v-9.21a27.65,27.65,0,0,1,26-27.6l1.62-.05Z"/>
    </clipPath>
    <clipPath id="clip-path-15">
      <path class="cls-1"
            d="M268.29,590.35a66.22,66.22,0,1,0,46.56,113.3l.23-.29a2.37,2.37,0,0,1,.28-.27,66.19,66.19,0,0,0-47.07-112.74Zm0-20.37a86.59,86.59,0,0,1,68,140.19l46.16,46.16a10.19,10.19,0,0,1-14.41,14.4l-46.16-46.15A86.59,86.59,0,1,1,268.29,570Z"/>
    </clipPath>
    <clipPath id="clip-path-16">
      <rect class="cls-1" x="-96.34" y="-22.76" width="528" height="367" rx="12"/>
    </clipPath>
    <clipPath id="clip-path-17">
      <rect class="cls-1" x="3.11" y="8.82" width="326.77" height="260.43"/>
    </clipPath>
    <clipPath id="clip-path-18">
      <path class="cls-1"
            d="M222.49,133.44l-23-49,78-36.43,30.75,44Zm53.06,69.76-78.74,43.87V117.26l14.37,30.68a8.24,8.24,0,0,0,4.66,4.23,7.87,7.87,0,0,0,2.74.48,8.36,8.36,0,0,0,3.54-.8l53.42-25.74ZM64.27,214.28V134.74L142.4,155a8.41,8.41,0,0,0,2,.26,8.17,8.17,0,0,0,6.8-3.66l29.19-44V249.92ZM59,64.88,174.93,86.33l-34.06,51.3L27.48,108.24Zm96.09-36.94L251.4,42.13,187.54,71.94,86.41,53.23Zm131.92,5a8.12,8.12,0,0,0-7.91-3.33l-.34-.09L155.45,11.37a8.13,8.13,0,0,0-4,.42L52.65,48.14l-.12.06a3,3,0,0,1-.31.15,8.94,8.94,0,0,0-1.51.86l-.42.33a7.78,7.78,0,0,0-1.36,1.39l-.07.08L7.14,108.31A8.26,8.26,0,0,0,6,115.93a8.17,8.17,0,0,0,5.66,5.19l36.2,9.38v89.86a8.21,8.21,0,0,0,5.8,7.86l132.54,40.67s.09,0,.13,0a8.54,8.54,0,0,0,2.2.32h.06a8.31,8.31,0,0,0,2.31-.36c.24-.08.46-.18.71-.29a8.48,8.48,0,0,0,.95-.37l95.11-53a8.21,8.21,0,0,0,4.22-7.19V118.2l32.17-15.5a8.25,8.25,0,0,0,3.16-12.13Z"/>
    </clipPath>
    <clipPath id="clip-path-19">
      <rect class="cls-1" x="5.56" y="11.28" width="324.31" height="257.97"/>
    </clipPath>
  </defs>
  <path class="cls-2"
        d="M750.53,517.15a12.28,12.28,0,0,0-17.81,0l-54.08,56.12-22.59-23.43a12.26,12.26,0,0,0-17.81,0,13.41,13.41,0,0,0,0,18.48L669.73,601a12.28,12.28,0,0,0,17.82,0l63-65.37A13.43,13.43,0,0,0,750.53,517.15Z"/>
  <g class="cls-15">
    <rect class="cls-2" x="-8284.24" y="-1626.62" width="10136.59" height="9207.4"/>
  </g>
  <path class="cls-3"
        d="M-611-213.92H-647.9a9.21,9.21,0,0,0-9.21,9.21v9.21h55.3v-9.21a9.21,9.21,0,0,0-8.14-9.15Zm0,64.51a9.21,9.21,0,0,1,9.21,9.22v55.3A9.21,9.21,0,0,1-611-75.68a9.21,9.21,0,0,1-9.22-9.21v-55.3A9.22,9.22,0,0,1-611-149.41Zm-36.87,0a9.22,9.22,0,0,1,9.22,9.22v55.3a9.21,9.21,0,0,1-9.22,9.21,9.21,9.21,0,0,1-9.21-9.21v-55.3A9.21,9.21,0,0,1-647.9-149.41Zm73.73-27.65h-110.6V-57.24a9.21,9.21,0,0,0,8.14,9.15l1.07.06h92.17a9.21,9.21,0,0,0,9.21-9.21ZM-611-232.36a27.65,27.65,0,0,1,27.65,27.65v9.21h36.86a9.23,9.23,0,0,1,9.16,8.14l.06,1.08a9.21,9.21,0,0,1-9.22,9.21h-9.22V-57.24a27.65,27.65,0,0,1-26,27.6l-1.62.05h-92.17A27.65,27.65,0,0,1-703.2-57.24V-177.06h-9.21a9.22,9.22,0,0,1-9.16-8.14l-.06-1.07a9.22,9.22,0,0,1,9.22-9.22h36.86v-9.21a27.65,27.65,0,0,1,26-27.6l1.62-.05Z"/>
  <g class="cls-17">
    <rect class="cls-3" x="-6204.21" y="-7761.66" width="13844.81" height="8441.5"/>
  </g>
  <g class="cls-20">
    <g class="cls-21">
      <g class="cls-22">
        <g class="cls-23">
          <rect class="cls-3" x="-6.72" y="-1" width="347.74" height="282.54"/>
        </g>
      </g>
    </g>
  </g>
</svg>
