<?xml version="1.0" encoding="utf-8"?>
<!-- Generator: Adobe Illustrator 24.1.2, SVG Export Plug-In . SVG Version: 6.00 Build 0)  -->
<svg version="1.1" id="Layer_1" xmlns="http://www.w3.org/2000/svg" xmlns:xlink="http://www.w3.org/1999/xlink" x="0px" y="0px"
	 viewBox="0 0 504.7 114.1" style="enable-background:new 0 0 504.7 114.1;" xml:space="preserve">
<style type="text/css">
	.st0{clip-path:url(#SVGID_2_);}
	.st1{fill:#27A9E0;}
	.st2{clip-path:url(#SVGID_4_);}
	.st3{clip-path:url(#SVGID_6_);}
	.st4{clip-path:url(#SVGID_8_);}
	.st5{clip-path:url(#SVGID_10_);}
	.st6{clip-path:url(#SVGID_12_);}
	.st7{clip-path:url(#SVGID_14_);}
	.st8{clip-path:url(#SVGID_16_);}
	.st9{clip-path:url(#SVGID_18_);}
	.st10{clip-path:url(#SVGID_20_);}
	.st11{clip-path:url(#SVGID_22_);}
	.st12{clip-path:url(#SVGID_24_);}
	.st13{clip-path:url(#SVGID_26_);}
	.st14{clip-path:url(#SVGID_28_);}
	.st15{clip-path:url(#SVGID_30_);}
	.st16{clip-path:url(#SVGID_32_);}
	.st17{fill:#06202E;}
	.st18{clip-path:url(#SVGID_34_);}
	.st19{clip-path:url(#SVGID_36_);}
	.st20{clip-path:url(#SVGID_38_);}
	.st21{clip-path:url(#SVGID_40_);}
	.st22{clip-path:url(#SVGID_42_);}
	.st23{clip-path:url(#SVGID_44_);}
	.st24{clip-path:url(#SVGID_46_);}
	.st25{clip-path:url(#SVGID_48_);}
	.st26{clip-path:url(#SVGID_50_);}
	.st27{clip-path:url(#SVGID_52_);}
	.st28{clip-path:url(#SVGID_54_);}
	.st29{clip-path:url(#SVGID_56_);}
	.st30{clip-path:url(#SVGID_58_);}
	.st31{clip-path:url(#SVGID_60_);}
	.st32{fill:#515151;}
</style>
<g>
	<defs>
		<path id="SVGID_1_" d="M106,52.8L106,52.8c0.2-6.9,5.9-12.4,12.7-12.2c6.6,0.2,11.9,5.4,12.1,12v0.1c0,6.7-5.5,12.2-12.2,12.2
			c0,0,0,0,0,0h-0.2c-6.7,0.2-12.2-5.1-12.4-11.8c0,0,0,0,0,0V52.8 M125.5,52.8L125.5,52.8c0.2-4.1-2.9-7.4-6.9-7.6c0,0,0,0,0,0
			h-0.2c-4.3,0-7,3.4-7,7.5v0.1c-0.1,4,3,7.3,6.9,7.5h0.1C122.7,60.2,125.4,56.9,125.5,52.8"/>
	</defs>
	<clipPath id="SVGID_2_">
		<use xlink:href="#SVGID_1_"  style="overflow:visible;"/>
	</clipPath>
	<g class="st0">
		<rect x="94.8" y="29.3" class="st1" width="47.2" height="46.8"/>
	</g>
</g>
<g>
	<defs>
		<path id="SVGID_3_" d="M135,52.8L135,52.8c-0.1-6.7,5.2-12.2,11.9-12.3c0,0,0,0,0,0h0.2c3.5-0.2,7,1.3,9.3,4l-3.4,3.6
			c-1.5-1.8-3.7-2.9-6-2.9c-3.9,0-6.8,3.4-6.8,7.5v0.1c0,4.2,2.9,7.5,7,7.5c2.3-0.1,4.5-1.1,6-2.9l3.2,3.2c-2.3,2.9-5.8,4.5-9.5,4.4
			c-6.6,0-12-5.3-12-11.8c0,0,0,0,0,0V52.8"/>
	</defs>
	<clipPath id="SVGID_4_">
		<use xlink:href="#SVGID_3_"  style="overflow:visible;"/>
	</clipPath>
	<g class="st2">
		<rect x="123.8" y="29.3" class="st1" width="44" height="46.8"/>
	</g>
</g>
<g>
	<defs>
		<path id="SVGID_5_" d="M184.7,52.8L184.7,52.8c0-6.8,4.7-12.3,11.4-12.3c7.4,0,11.1,5.9,11.1,12.6c0,0.5,0,1-0.1,1.5h-17.1
			c0.3,3.4,3.3,6.1,6.7,5.9c2.4,0,4.7-1,6.3-2.8l3.1,2.8c-2.3,2.9-5.8,4.5-9.5,4.4C189.9,64.9,184.7,60,184.7,52.8z M202,51
			c-0.4-3.5-2.4-6.2-5.9-6.2c-3.3,0-5.6,2.5-6,6.2H202z"/>
	</defs>
	<clipPath id="SVGID_6_">
		<use xlink:href="#SVGID_5_"  style="overflow:visible;"/>
	</clipPath>
	<g class="st3">
		<rect x="173.5" y="29.3" class="st1" width="45" height="46.8"/>
	</g>
</g>
<g>
	<defs>
		<rect id="SVGID_7_" y="11.2" width="225.3" height="91.7"/>
	</defs>
	<clipPath id="SVGID_8_">
		<use xlink:href="#SVGID_7_"  style="overflow:visible;"/>
	</clipPath>
	<g class="st4">
		<g>
			<defs>
				<rect id="SVGID_9_" y="9" width="226.5" height="94.2"/>
			</defs>
			<clipPath id="SVGID_10_">
				<use xlink:href="#SVGID_9_"  style="overflow:visible;"/>
			</clipPath>
			<g class="st5">
				<g>
					<defs>
						<rect id="SVGID_11_" x="221.1" y="41" width="4.2" height="4.6"/>
					</defs>
					<clipPath id="SVGID_12_">
						<use xlink:href="#SVGID_11_"  style="overflow:visible;"/>
					</clipPath>
					<g class="st6">
						<rect x="209.9" y="29.8" class="st1" width="26.7" height="27"/>
					</g>
				</g>
				<g>
					<defs>
						<path id="SVGID_13_" d="M219.1,57V34.5h-5.3V41h-3v4.6h3v12.3c0,5.1,2.8,6.9,6.7,6.9c1.7,0,3.3-0.4,4.8-1.2v-4.4
							c-1,0.5-2.2,0.8-3.3,0.8C220.1,60,219.1,59.2,219.1,57"/>
					</defs>
					<clipPath id="SVGID_14_">
						<use xlink:href="#SVGID_13_"  style="overflow:visible;"/>
					</clipPath>
					<g class="st7">
						<g>
							<defs>
								<rect id="SVGID_15_" y="11.2" width="226.5" height="91.9"/>
							</defs>
							<clipPath id="SVGID_16_">
								<use xlink:href="#SVGID_15_"  style="overflow:visible;"/>
							</clipPath>
							<g class="st8">
								<rect x="199.6" y="23.3" class="st1" width="36.9" height="52.7"/>
							</g>
						</g>
					</g>
				</g>
				<g>
					<defs>
						<polygon id="SVGID_17_" points="162.8,64.3 162.8,41 167.5,41 167.5,49.2 174.4,40.9 180.2,40.9 167.4,56.2 167.4,64.3 						
							"/>
					</defs>
					<clipPath id="SVGID_18_">
						<use xlink:href="#SVGID_17_"  style="overflow:visible;"/>
					</clipPath>
					<g class="st9">
						<g>
							<defs>
								<rect id="SVGID_19_" y="11.2" width="226.5" height="91.9"/>
							</defs>
							<clipPath id="SVGID_20_">
								<use xlink:href="#SVGID_19_"  style="overflow:visible;"/>
							</clipPath>
							<g class="st10">
								<rect x="151.6" y="29.7" class="st1" width="39.8" height="45.8"/>
							</g>
						</g>
					</g>
				</g>
				<g>
					<defs>
						<path id="SVGID_21_" d="M181.2,64.5h-5.8l-4.7-6.8l3-3.8L181.2,64.5z M167.6,64.5h-5V40.8h5.1v7.8l6.7-7.9h6.3l-13,15.6
							L167.6,64.5z"/>
					</defs>
					<clipPath id="SVGID_22_">
						<use xlink:href="#SVGID_21_"  style="overflow:visible;"/>
					</clipPath>
					<g class="st11">
						<g>
							<defs>
								<rect id="SVGID_23_" y="11.2" width="226.5" height="91.9"/>
							</defs>
							<clipPath id="SVGID_24_">
								<use xlink:href="#SVGID_23_"  style="overflow:visible;"/>
							</clipPath>
							<g class="st12">
								<rect x="151.4" y="29.5" class="st1" width="41" height="46.2"/>
							</g>
						</g>
					</g>
				</g>
				<g>
					<defs>
						<path id="SVGID_25_" d="M98.2,44.4c-1.3,1.1-2.6,2.1-3.9,3.2h-0.1c1,1.4,1.6,3.1,1.6,4.8v0.1c0,1.7-0.5,3.4-1.6,4.8
							c0,0-0.1,0.1-0.1,0.1c-1.3,1.5-3.2,2.4-5.2,2.4L82,59.7v19.6h4.2V64.4c0.9,0.1,1.7,0.2,2.6,0.2c6.7,0.1,12.3-5.2,12.5-11.9
							v-0.3C101.3,49.4,100.2,46.6,98.2,44.4"/>
					</defs>
					<clipPath id="SVGID_26_">
						<use xlink:href="#SVGID_25_"  style="overflow:visible;"/>
					</clipPath>
					<g class="st13">
						<g>
							<defs>
								<rect id="SVGID_27_" y="11.2" width="226.5" height="91.9"/>
							</defs>
							<clipPath id="SVGID_28_">
								<use xlink:href="#SVGID_27_"  style="overflow:visible;"/>
							</clipPath>
							<g class="st14">
								<rect x="70.7" y="33.2" class="st1" width="41.7" height="57.4"/>
							</g>
						</g>
					</g>
				</g>
				<g>
					<defs>
						<path id="SVGID_29_" d="M61.2,57.5c0,11.5-7.2,21.8-18,25.8v6.3c17.9-5.4,28.2-24.3,22.8-42.2c-3.3-11-11.8-19.5-22.8-22.8
							v7.2C54,35.7,61.2,46,61.2,57.5"/>
					</defs>
					<clipPath id="SVGID_30_">
						<use xlink:href="#SVGID_29_"  style="overflow:visible;"/>
					</clipPath>
					<g class="st15">
						<g>
							<defs>
								<rect id="SVGID_31_" y="11.2" width="226.5" height="91.9"/>
							</defs>
							<clipPath id="SVGID_32_">
								<use xlink:href="#SVGID_31_"  style="overflow:visible;"/>
							</clipPath>
							<g class="st16">
								<rect x="32" y="13.4" class="st17" width="46.6" height="87.4"/>
							</g>
						</g>
					</g>
				</g>
				<g>
					<defs>
						<path id="SVGID_33_" d="M0,57c0,15.1,9.9,28.3,24.3,32.6v-6.3C10.1,78.1,2.8,62.3,8,48c2.8-7.5,8.7-13.5,16.3-16.3v-7.2
							C9.9,28.8,0,42,0,57"/>
					</defs>
					<clipPath id="SVGID_34_">
						<use xlink:href="#SVGID_33_"  style="overflow:visible;"/>
					</clipPath>
					<g class="st18">
						<g>
							<defs>
								<rect id="SVGID_35_" y="11.2" width="226.5" height="91.9"/>
							</defs>
							<clipPath id="SVGID_36_">
								<use xlink:href="#SVGID_35_"  style="overflow:visible;"/>
							</clipPath>
							<g class="st19">
								<rect x="-11.2" y="13.3" class="st17" width="46.8" height="87.5"/>
							</g>
						</g>
					</g>
				</g>
				<g>
					<defs>
						<path id="SVGID_37_" d="M24.3,78v24.9h6.2V77.8C28.7,79.3,26.1,79.3,24.3,78"/>
					</defs>
					<clipPath id="SVGID_38_">
						<use xlink:href="#SVGID_37_"  style="overflow:visible;"/>
					</clipPath>
					<g class="st20">
						<g>
							<defs>
								<rect id="SVGID_39_" y="11.2" width="226.5" height="91.9"/>
							</defs>
							<clipPath id="SVGID_40_">
								<use xlink:href="#SVGID_39_"  style="overflow:visible;"/>
							</clipPath>
							<g class="st21">
								<rect x="13.1" y="66.6" class="st1" width="28.6" height="47.6"/>
							</g>
						</g>
					</g>
				</g>
				<g>
					<defs>
						<path id="SVGID_41_" d="M48.5,47.3c-2,1.6-3.9,3.2-5.8,4.8h-0.1c1.6,2.1,2.4,4.6,2.4,7.2v0.1c0,2.5-0.8,5-2.3,7.1l-0.2,0.2
							c-1.9,2.2-4.7,3.5-7.6,3.5h-4.3c2.1,1.8,2.3,4.9,0.6,7c1.1,0.1,2.1,0.2,3.2,0.3c10,0.2,18.2-7.7,18.5-17.7v-0.5
							C52.9,54.9,51.3,50.7,48.5,47.3"/>
					</defs>
					<clipPath id="SVGID_42_">
						<use xlink:href="#SVGID_41_"  style="overflow:visible;"/>
					</clipPath>
					<g class="st22">
						<g>
							<defs>
								<rect id="SVGID_43_" y="11.2" width="226.5" height="91.9"/>
							</defs>
							<clipPath id="SVGID_44_">
								<use xlink:href="#SVGID_43_"  style="overflow:visible;"/>
							</clipPath>
							<g class="st23">
								<rect x="19.4" y="36.1" class="st1" width="44.7" height="52.5"/>
							</g>
						</g>
					</g>
				</g>
				<g>
					<defs>
						<path id="SVGID_45_" d="M43.2,36.2V11.2H37v25.1C38.8,34.9,41.4,34.8,43.2,36.2"/>
					</defs>
					<clipPath id="SVGID_46_">
						<use xlink:href="#SVGID_45_"  style="overflow:visible;"/>
					</clipPath>
					<g class="st24">
						<g>
							<defs>
								<rect id="SVGID_47_" y="11.2" width="226.5" height="91.9"/>
							</defs>
							<clipPath id="SVGID_48_">
								<use xlink:href="#SVGID_47_"  style="overflow:visible;"/>
							</clipPath>
							<g class="st25">
								<rect x="25.8" class="st1" width="28.6" height="47.5"/>
							</g>
						</g>
					</g>
				</g>
				<g>
					<defs>
						<path id="SVGID_49_" d="M19,66.8c2-1.6,3.9-3.2,5.8-4.8h0.1c-1.5-2.1-2.4-4.6-2.3-7.1v-0.1c0-2.5,0.8-5,2.3-7.1l0.1-0.2
							c1.9-2.2,4.7-3.5,7.6-3.5h4.3c-2.1-1.8-2.3-4.9-0.6-7c-0.9-0.1-2.3-0.3-3.2-0.3c-10-0.2-18.2,7.7-18.5,17.7V55
							C14.6,59.3,16.2,63.5,19,66.8"/>
					</defs>
					<clipPath id="SVGID_50_">
						<use xlink:href="#SVGID_49_"  style="overflow:visible;"/>
					</clipPath>
					<g class="st26">
						<g>
							<defs>
								<rect id="SVGID_51_" y="11.2" width="226.5" height="91.9"/>
							</defs>
							<clipPath id="SVGID_52_">
								<use xlink:href="#SVGID_51_"  style="overflow:visible;"/>
							</clipPath>
							<g class="st27">
								<rect x="3.4" y="25.5" class="st1" width="44.7" height="52.5"/>
							</g>
						</g>
					</g>
				</g>
				<g>
					<defs>
						<path id="SVGID_53_" d="M40.2,43.8c2,0,3.6-1.5,3.7-3.5c0-2-1.5-3.6-3.5-3.7c-2,0-3.6,1.5-3.7,3.5c0,0.7,0.2,1.4,0.6,2.1
							C37.9,43.2,39,43.8,40.2,43.8"/>
					</defs>
					<clipPath id="SVGID_54_">
						<use xlink:href="#SVGID_53_"  style="overflow:visible;"/>
					</clipPath>
					<g class="st28">
						<g>
							<defs>
								<rect id="SVGID_55_" y="11.2" width="226.5" height="91.9"/>
							</defs>
							<clipPath id="SVGID_56_">
								<use xlink:href="#SVGID_55_"  style="overflow:visible;"/>
							</clipPath>
							<g class="st29">
								<rect x="25.5" y="25.4" class="st17" width="29.5" height="29.6"/>
							</g>
						</g>
					</g>
				</g>
				<g>
					<defs>
						<path id="SVGID_57_" d="M27.3,70.4c-1.2,0-2.3,0.6-3,1.6c-0.8,1.2-0.8,2.8,0,4c1.1,1.7,3.3,2.2,4.9,1.1
							c1.7-1.1,2.2-3.3,1.1-4.9c0-0.1-0.1-0.1-0.1-0.2C29.5,71,28.5,70.5,27.3,70.4"/>
					</defs>
					<clipPath id="SVGID_58_">
						<use xlink:href="#SVGID_57_"  style="overflow:visible;"/>
					</clipPath>
					<g class="st30">
						<g>
							<defs>
								<rect id="SVGID_59_" y="11.2" width="226.5" height="91.9"/>
							</defs>
							<clipPath id="SVGID_60_">
								<use xlink:href="#SVGID_59_"  style="overflow:visible;"/>
							</clipPath>
							<g class="st31">
								<rect x="12.5" y="59.2" class="st17" width="29.5" height="29.6"/>
							</g>
						</g>
					</g>
				</g>
			</g>
		</g>
	</g>
</g>
<path class="st32" d="M255,65.8c-0.1,0.2-0.2,0.4-0.4,0.5c-0.2,0.1-0.4,0.2-0.6,0.2h-0.7l11.2-26.9c0.1-0.4,0.6-0.7,1-0.7h0.7
	L255,65.8z"/>
<path class="st32" d="M312.1,52.3c0,1.8-0.3,3.6-0.9,5.3c-0.5,1.5-1.4,2.9-2.5,4c-1.1,1.1-2.4,2-3.8,2.5c-1.6,0.6-3.2,0.9-4.9,0.9
	h-9.2V39.6h9.2c1.7,0,3.4,0.3,4.9,0.9c1.4,0.6,2.7,1.4,3.8,2.5c1.1,1.1,1.9,2.5,2.5,4C311.8,48.7,312.1,50.5,312.1,52.3z
	 M310.2,52.3c0-1.6-0.2-3.2-0.7-4.7c-0.4-1.3-1.1-2.5-2-3.5c-0.9-1-2-1.7-3.2-2.2c-1.3-0.5-2.8-0.8-4.2-0.8h-7.4v22.4h7.4
	c1.4,0,2.8-0.2,4.2-0.8c1.2-0.5,2.3-1.2,3.2-2.2c0.9-1,1.6-2.2,2.1-3.6C310,55.5,310.2,53.9,310.2,52.3z"/>
<path class="st32" d="M336.6,65h-1.4c-0.1,0-0.3,0-0.4-0.1c-0.1-0.1-0.2-0.2-0.2-0.3l-3-7.4H319l-3,7.4c-0.1,0.3-0.4,0.5-0.7,0.5
	H314l10.4-25.4h1.8L336.6,65z M319.6,55.8H331L325.8,43c-0.1-0.2-0.2-0.5-0.2-0.7c-0.1-0.3-0.2-0.5-0.2-0.8
	c-0.1,0.3-0.2,0.6-0.3,0.8s-0.2,0.5-0.2,0.7L319.6,55.8z"/>
<path class="st32" d="M352.9,42.7c-0.1,0.2-0.3,0.3-0.5,0.3c-0.2,0-0.4-0.2-0.6-0.3c-0.3-0.3-0.6-0.5-1-0.7c-0.5-0.3-1-0.6-1.6-0.8
	c-1.6-0.5-3.2-0.5-4.8,0.1c-0.7,0.2-1.3,0.6-1.8,1.1c-0.5,0.4-0.8,1-1.1,1.6c-0.2,0.6-0.4,1.2-0.4,1.9c0,0.8,0.2,1.5,0.5,2.1
	c0.4,0.6,0.9,1.1,1.4,1.4c0.6,0.4,1.3,0.7,2,1c0.8,0.3,1.5,0.5,2.3,0.8s1.6,0.5,2.4,0.9c0.7,0.3,1.4,0.7,2,1.2
	c0.6,0.5,1.1,1.1,1.4,1.8c0.4,0.8,0.6,1.7,0.5,2.6c0,1-0.2,2-0.5,3c-0.4,0.9-0.9,1.7-1.6,2.4c-0.7,0.7-1.6,1.3-2.5,1.6
	c-1.1,0.4-2.3,0.6-3.4,0.6c-1.5,0-3-0.3-4.3-0.9c-1.2-0.6-2.2-1.4-3.1-2.3l0.5-0.8c0.1-0.2,0.3-0.3,0.5-0.3c0.2,0,0.3,0.1,0.4,0.2
	l0.6,0.5c0.3,0.2,0.6,0.5,0.9,0.7c0.4,0.3,0.8,0.5,1.2,0.7c0.5,0.2,1,0.4,1.5,0.5c0.7,0.2,1.3,0.2,2,0.2c0.9,0,1.8-0.1,2.7-0.5
	c0.7-0.3,1.4-0.7,2-1.2c0.5-0.5,0.9-1.2,1.2-1.9c0.3-0.7,0.4-1.5,0.4-2.3c0-0.8-0.2-1.5-0.5-2.2c-0.4-0.6-0.9-1.1-1.5-1.5
	c-0.6-0.4-1.3-0.8-2-1c-0.8-0.3-1.5-0.5-2.3-0.8s-1.6-0.5-2.3-0.8c-0.7-0.3-1.4-0.7-2-1.2c-0.6-0.5-1.1-1.1-1.5-1.8
	c-0.4-0.9-0.6-1.8-0.5-2.7c0-0.8,0.2-1.7,0.5-2.5c0.3-0.8,0.8-1.5,1.4-2.1c0.7-0.6,1.5-1.1,2.3-1.5c1-0.4,2.1-0.6,3.1-0.5
	c1.2,0,2.4,0.2,3.5,0.6c1.1,0.4,2,1.1,2.9,1.9L352.9,42.7z"/>
<path class="st32" d="M378.9,65h-1.9V52.9h-15.9V65h-1.8V39.6h1.9v11.8h15.9V39.6h1.9L378.9,65z"/>
<path class="st32" d="M386.5,65V39.6h7.3c1.3,0,2.5,0.1,3.8,0.4c1,0.2,1.9,0.7,2.6,1.3c0.7,0.5,1.2,1.2,1.5,2
	c0.4,0.9,0.5,1.8,0.5,2.7c0,0.7-0.1,1.3-0.4,1.9c-0.2,0.6-0.6,1.2-1,1.7c-0.5,0.5-1,1-1.6,1.4c-0.7,0.4-1.4,0.7-2.2,0.9
	c1.7,0.2,3.3,0.9,4.6,2c1.1,1,1.7,2.5,1.7,4c0,1-0.2,2-0.6,2.9c-0.4,0.9-1,1.7-1.7,2.3c-0.8,0.6-1.7,1.1-2.7,1.4
	c-1.2,0.3-2.4,0.5-3.6,0.5L386.5,65z M388.3,51.5h5.5c1,0,2-0.1,3-0.5c0.7-0.3,1.4-0.7,2-1.2c0.5-0.5,0.9-1,1.2-1.7
	c0.3-0.6,0.4-1.3,0.4-1.9c0.1-1.5-0.5-2.9-1.6-3.9c-1.5-1-3.2-1.4-5-1.3h-5.5L388.3,51.5z M388.3,52.9v10.7h6.4
	c1.8,0.1,3.6-0.4,5.1-1.4c1.7-1.6,2.2-4.1,1.3-6.2c-0.3-0.7-0.8-1.2-1.3-1.7c-0.6-0.5-1.4-0.8-2.1-1c-0.9-0.2-1.9-0.4-2.9-0.4
	L388.3,52.9z"/>
<path class="st32" d="M432.1,52.3c0,1.8-0.3,3.6-0.9,5.3c-0.5,1.5-1.4,2.9-2.5,4.1c-1.1,1.1-2.4,2-3.8,2.6c-3.2,1.2-6.7,1.2-9.8,0
	c-1.4-0.6-2.7-1.5-3.8-2.6c-1.1-1.2-1.9-2.6-2.5-4.1c-0.6-1.7-0.9-3.5-0.9-5.3c0-1.8,0.3-3.6,0.9-5.3c0.5-1.5,1.4-2.9,2.5-4.1
	c1.1-1.1,2.4-2,3.8-2.6c3.2-1.2,6.7-1.2,9.8,0c1.4,0.6,2.8,1.5,3.8,2.6c1.1,1.2,1.9,2.6,2.5,4.1C431.8,48.7,432.1,50.5,432.1,52.3z
	 M430.2,52.3c0-1.6-0.2-3.2-0.7-4.8c-0.4-1.3-1.1-2.5-2.1-3.6c-0.9-1-2-1.8-3.2-2.3c-1.3-0.5-2.7-0.8-4.2-0.8
	c-1.4,0-2.8,0.2-4.1,0.8c-1.2,0.5-2.3,1.3-3.2,2.3c-0.9,1-1.7,2.3-2.1,3.6c-1,3.1-1,6.5,0,9.6c0.4,1.3,1.2,2.5,2.1,3.6
	c0.9,1,2,1.8,3.2,2.2c2.7,1,5.6,1,8.3,0c1.2-0.5,2.3-1.3,3.2-2.2c0.9-1,1.6-2.3,2.1-3.6C430,55.6,430.2,53.9,430.2,52.3z"/>
<path class="st32" d="M456.7,65h-1.4c-0.1,0-0.3,0-0.4-0.1c-0.1-0.1-0.2-0.2-0.2-0.3l-3-7.4h-12.5l-3,7.4c-0.1,0.1-0.1,0.2-0.2,0.3
	c-0.1,0.1-0.3,0.2-0.4,0.2h-1.4l10.4-25.4h1.8L456.7,65z M439.7,55.8h11.4L445.9,43c-0.1-0.2-0.2-0.4-0.2-0.7s-0.2-0.5-0.2-0.8
	c-0.1,0.3-0.2,0.6-0.2,0.8s-0.2,0.5-0.2,0.7L439.7,55.8z"/>
<path class="st32" d="M463.1,53.5V65h-1.8V39.6h6.5c2.9,0,5.1,0.6,6.6,1.7c1.5,1.2,2.3,3.1,2.2,5c0,0.9-0.2,1.8-0.5,2.7
	c-0.3,0.8-0.8,1.5-1.5,2.1c-0.7,0.6-1.4,1.1-2.3,1.5c-1,0.4-2,0.7-3,0.8c0.3,0.2,0.6,0.4,0.8,0.7l8.7,11h-1.6c-0.2,0-0.3,0-0.5-0.1
	c-0.2-0.1-0.3-0.2-0.4-0.4l-8.1-10.3c-0.2-0.2-0.4-0.4-0.7-0.5c-0.3-0.1-0.7-0.2-1.1-0.2L463.1,53.5z M463.1,52.2h4.4
	c1,0,2-0.1,3-0.4c0.8-0.2,1.6-0.6,2.3-1.2c0.6-0.5,1.1-1.1,1.4-1.8c0.3-0.8,0.5-1.6,0.5-2.4c0.1-1.5-0.6-3-1.8-4
	c-1.5-1-3.4-1.4-5.2-1.3H463L463.1,52.2z"/>
<path class="st32" d="M504.7,52.3c0,1.8-0.3,3.6-0.9,5.3c-0.5,1.5-1.4,2.9-2.5,4c-1.1,1.1-2.4,2-3.8,2.5c-1.6,0.6-3.3,0.9-4.9,0.9
	h-9.2V39.6h9.2c1.7,0,3.4,0.3,4.9,0.9c1.5,0.6,2.8,1.4,3.9,2.5c1.1,1.1,1.9,2.5,2.5,4C504.5,48.7,504.7,50.5,504.7,52.3z
	 M502.8,52.3c0-1.6-0.2-3.2-0.7-4.7c-0.4-1.3-1.1-2.5-2.1-3.5c-0.9-1-2-1.7-3.2-2.2c-1.3-0.5-2.8-0.8-4.2-0.8h-7.4v22.4h7.4
	c1.4,0,2.8-0.2,4.2-0.8c1.2-0.5,2.3-1.2,3.2-2.2c0.9-1,1.6-2.2,2.1-3.5C502.6,55.5,502.8,53.9,502.8,52.3z"/>
</svg>
