<svg id="Layer_1" data-name="Layer 1" xmlns="http://www.w3.org/2000/svg" xmlns:xlink="http://www.w3.org/1999/xlink" viewBox="0 0 515.29 96.03"><defs><style>.cls-1,.cls-2{fill:none;}.cls-2{clip-rule:evenodd;}.cls-3{clip-path:url(#clip-path);}.cls-4{clip-path:url(#clip-path-2);}.cls-5{clip-path:url(#clip-path-3);}.cls-6{clip-path:url(#clip-path-4);}.cls-7{clip-path:url(#clip-path-5);}.cls-8{clip-path:url(#clip-path-6);}.cls-9{clip-path:url(#clip-path-7);}.cls-10{fill:#27a9e0;}.cls-11{clip-path:url(#clip-path-8);}.cls-12{clip-path:url(#clip-path-9);}.cls-13{clip-path:url(#clip-path-10);}.cls-14{isolation:isolate;}.cls-15{clip-path:url(#clip-path-11);}.cls-16{clip-path:url(#clip-path-12);}.cls-17{clip-path:url(#clip-path-13);}.cls-18{clip-path:url(#clip-path-14);}.cls-19{clip-path:url(#clip-path-15);}.cls-20{clip-path:url(#clip-path-17);}.cls-21{clip-path:url(#clip-path-19);}.cls-22{clip-path:url(#clip-path-21);}.cls-23{fill:#06202e;}.cls-24{clip-path:url(#clip-path-23);}.cls-25{clip-path:url(#clip-path-25);}.cls-26{clip-path:url(#clip-path-27);}.cls-27{clip-path:url(#clip-path-29);}.cls-28{clip-path:url(#clip-path-31);}.cls-29{clip-path:url(#clip-path-33);}.cls-30{clip-path:url(#clip-path-35);}.cls-31{fill:#515151;}</style><clipPath id="clip-path"><path class="cls-1" d="M-322.4,180.31v74.3h99c-14.4,43.3-53.3,74.3-99,74.3-57.9,0-104.9-50-104.9-111.5s47.1-111.5,104.9-111.5a100.3,100.3,0,0,1,68,26.9l46-56c-31.5-29.1-71.9-45.2-113.9-45.2-96.4,0-174.9,83.4-174.9,185.8s78.5,185.8,174.9,185.8,174.9-83.4,174.9-185.8v-37.2Z"/></clipPath><clipPath id="clip-path-2"><path class="cls-1" d="M-186.5-417.69c33.4,2.6,66.6,5.4,94,13.9-27.2-4.4-60.2-11.1-94-12-14,27.2-42.1,40.5-80.9,43.3,4.2,8.9,12.2,12.3,14.1,26.8,2.9,21.5-4.6,53,2.8,67.3,3.5,6.9,9.3,7,13.2,12.9-9.5,11.1-33.1-1.3-35.7-12.9-4.6-20,7-51-5.6-64.6.9,21.8-5.2,52.4.9,71.9,2.4,7.7,9.4,10.6,7.5,17.5-44.2,4.4-25.7-56.4-32.9-92.2-6.7.5-3.7,9.8-3.8,13.8-.2,35,7.3,83.1-31,78.4-1.1-7.3,5.2-9.9,7.5-16.6,7-19.7-1.3-49.1,1.9-72.9-14.6,10.9,1.5,48.8-7.5,68.3-5.2,11.2-22,16.1-34.8,11.1,1.7-8.3,10.4-7,14.1-14.7,5.2-10.9,0-26.4,1.9-42.4-27.1,5.3-48.1-.7-58.3-17.5-4.6-7.5-5.7-16.4-11.3-23s-14.4-7.6-16.9-16.6c33.5-8,34.8,34,64.9,35,9.2.3,14-2.6,22.6-4.6,2.4-10.6,7.5-18.5,15.1-24-37.5-5.1-68.4-16.6-82.8-44.3a523.85,523.85,0,0,0-94.1,12.9c26.2-9.4,58.5-12.7,93.1-13.8-2-12.1-19.9-8.8-31-8.3-20.6.9-46.6,3.4-63,6.5,23.8-8.4,57.2-7.3,89.4-7.4-9.8-30.5-6.5-78.8,15-96.8-6.1-15.1-4.2-39.9,3.8-51.7,24,1.1,38.5,11.4,53.6,21.2,18.7-5.2,38.3-7.8,63.9-6.4,10.8.6,22,5.3,30.1,4.6s16.7-9.5,24.5-12.9c10.1-4.4,18.6-6,30.1-6.5,5.5,12.4,9.1,32.9,3.8,48,21.9,18.4,29.3,63.1,18.8,99.6,31.1,2.3,68.2-1.1,92.2,8.3-22.4-2.8-52.9-8.4-81.8-6.5C-178.9-424.69-186.9-425.19-186.5-417.69Z"/></clipPath><clipPath id="clip-path-3"><path class="cls-1" d="M341.8-1310.69a40.83,40.83,0,0,0-.8,23.5,41.74,41.74,0,0,0,30.1,30.1,42.57,42.57,0,0,0,23.5-.8ZM383-1487c70.6,0,132.3,34.1,184.8,90.1a428,428,0,0,1,47,60.4c8,12.4,13.5,22.2,16.5,28.1a21,21,0,0,1-.3,19.2,412.23,412.23,0,0,1-47.5,70.2,20.81,20.81,0,0,1-29.4,2.5,20.81,20.81,0,0,1-2.5-29.4,362.47,362.47,0,0,0,37.2-53.2c-2.6-4.5-5.6-9.5-9-14.7a387.06,387.06,0,0,0-42.4-54.5c-45.3-48.4-97.1-76.9-154.4-76.9a171,171,0,0,0-39,4.5,20.88,20.88,0,0,1-25.1-15.6,20.88,20.88,0,0,1,15.6-25.1A213.54,213.54,0,0,1,383-1487Zm-125.5,91.9a364,364,0,0,0-80.3,96.1c2.6,4.5,5.6,9.5,9,14.7a387.06,387.06,0,0,0,42.4,54.5c45.3,48.4,97.1,76.9,154,76.9a189.55,189.55,0,0,0,91.6-25.3l-48.4-48.6a83.1,83.1,0,0,1-65,10.1,83.49,83.49,0,0,1-60.2-60.2,83.94,83.94,0,0,1,10.1-65Zm-118.9-148.4a20.76,20.76,0,0,1,29.5,0l459.2,459.2a20.76,20.76,0,0,1,0,29.5,20.76,20.76,0,0,1-29.5,0L504.6-1148a231.56,231.56,0,0,1-121.6,36.7c-70.6,0-132.3-34.1-184.8-90.1a428,428,0,0,1-47-60.4c-8-12.4-13.5-22.2-16.5-28.1a21,21,0,0,1,.3-19.2,405.07,405.07,0,0,1,92.9-115.7L138.6-1514A20.94,20.94,0,0,1,138.6-1543.49Z"/></clipPath><clipPath id="clip-path-4"><path class="cls-1" d="M-1142.85,199.24a17.21,17.21,0,0,0-.35,9.76,17.29,17.29,0,0,0,12.44,12.44,17.18,17.18,0,0,0,9.77-.34Zm17-72.91c29.19,0,54.72,14.07,76.48,37.27a176.52,176.52,0,0,1,19.43,25,126.44,126.44,0,0,1,6.79,11.6,8.76,8.76,0,0,1-.1,7.93,163.9,163.9,0,0,1-19.68,29,8.59,8.59,0,0,1-12.14,1,8.59,8.59,0,0,1-1-12.15,149.41,149.41,0,0,0,15.41-22q-1.63-2.82-3.71-6.09a156.11,156.11,0,0,0-17.55-22.5c-18.74-20-40.15-31.83-63.89-31.83a70.83,70.83,0,0,0-16.16,1.84,8.6,8.6,0,0,1-10.36-6.45,8.6,8.6,0,0,1,6.44-10.35A85.06,85.06,0,0,1-1125.8,126.33Zm-52,38a151.58,151.58,0,0,0-33.2,39.75c1.09,1.89,2.32,3.92,3.71,6.1a156.11,156.11,0,0,0,17.55,22.5c18.73,20,40.15,31.83,63.74,31.83A78.2,78.2,0,0,0-1088,254l-20-20A34.53,34.53,0,0,1-1135,238.2a34.56,34.56,0,0,1-24.93-24.94,34.56,34.56,0,0,1,4.21-26.91Zm-49.16-61.41a8.61,8.61,0,0,1,12.19,0l43.62,43.62a8.4,8.4,0,0,1,.84.94l-.7-.79,102.46,102.45.1.1.05.1,43.61,43.62a8.68,8.68,0,0,1,.8,11.35l-.8.89a8.61,8.61,0,0,1-12.19,0l-38.56-38.66a95.71,95.71,0,0,1-50.31,15.21c-29.2,0-54.72-14.07-76.48-37.27a175.79,175.79,0,0,1-19.43-25,126.44,126.44,0,0,1-6.79-11.6,8.76,8.76,0,0,1,.1-7.93A168,168,0,0,1-1190,152.1l-36.92-36.93A8.65,8.65,0,0,1-1226.91,102.93Z"/></clipPath><clipPath id="clip-path-5"><path class="cls-1" d="M-760.8,535.38h-33.35a8.42,8.42,0,0,0-8.36,8.48v8.47h50.07v-8.47a8.45,8.45,0,0,0-7.93-8.48Zm0,59.28a8.42,8.42,0,0,1,8.36,8.48V654a8.42,8.42,0,0,1-8.36,8.47,8.43,8.43,0,0,1-8.36-8.47V603.14A8.45,8.45,0,0,1-760.8,594.66Zm-33.35,0a8.43,8.43,0,0,1,8.36,8.48V654a8.43,8.43,0,0,1-8.36,8.47,8.42,8.42,0,0,1-8.36-8.47V603.14A8.42,8.42,0,0,1-794.15,594.66Zm66.74-25.42H-827.55V679.37a8.46,8.46,0,0,0,7.93,8.48h83.82a8.43,8.43,0,0,0,8.36-8.48Zm-33.39-50.81a25.23,25.23,0,0,1,25,25.42v8.48h33.35a8.38,8.38,0,0,1,8.32,8v.42a8.42,8.42,0,0,1-8.36,8.48h-8.36V679.41a25.23,25.23,0,0,1-24.45,25.42h-83.93a25.22,25.22,0,0,1-25-25.42V569.28h-8.36a8.38,8.38,0,0,1-8.32-8v-.43a8.42,8.42,0,0,1,8.36-8.47h33.35v-8.48a25.25,25.25,0,0,1,24.45-25.42h33.94Z"/></clipPath><clipPath id="clip-path-6"><path class="cls-1" d="M28.54,1258.58h-166V1153.2l83,52.69,83-52.69Zm0-126.46-83,52.69-83-52.69Zm20.75,0a21,21,0,0,0-20.75-21.07h-166a21,21,0,0,0-20.75,21.07v126.46a21,21,0,0,0,20.75,21.08h166a21,21,0,0,0,20.75-21.08Z"/></clipPath><clipPath id="clip-path-7"><path class="cls-2" d="M111.61,43.61v-.09a12.42,12.42,0,0,1,24.83-.09v.09A12.21,12.21,0,0,1,124,55.71a12.07,12.07,0,0,1-12.35-12.1m19.49,0v-.09A7.22,7.22,0,0,0,124,36c-4.28,0-7,3.37-7,7.45v.09A7.2,7.2,0,0,0,124,51c4.33,0,7.06-3.37,7.06-7.4"/></clipPath><clipPath id="clip-path-8"><path class="cls-2" d="M140.58,43.61v-.09a12.06,12.06,0,0,1,12.13-12.24,11.69,11.69,0,0,1,9.3,4l-3.35,3.59a7.79,7.79,0,0,0-6-2.93c-3.89,0-6.75,3.37-6.75,7.45v.09c0,4.17,2.86,7.49,7,7.49a8.14,8.14,0,0,0,6-2.88l3.22,3.19a11.78,11.78,0,0,1-9.53,4.39,11.92,11.92,0,0,1-12-12.1"/></clipPath><clipPath id="clip-path-9"><path class="cls-2" d="M190.33,43.56v-.08c0-6.7,4.72-12.2,11.38-12.2,7.4,0,11.15,5.86,11.15,12.59,0,.49,0,1-.09,1.51H195.66a6.52,6.52,0,0,0,6.71,5.94,8.41,8.41,0,0,0,6.3-2.79l3.13,2.79a11.73,11.73,0,0,1-9.52,4.39C195.53,55.71,190.33,50.79,190.33,43.56Zm17.24-1.73c-.35-3.45-2.38-6.16-5.91-6.16-3.26,0-5.56,2.53-6,6.16Z"/></clipPath><clipPath id="clip-path-10"><rect class="cls-1" x="5.61" y="2" width="225.33" height="91.69"/></clipPath><clipPath id="clip-path-11"><rect class="cls-1" x="5.61" y="-0.24" width="226.47" height="94.18"/></clipPath><clipPath id="clip-path-12"><rect class="cls-1" x="226.7" y="31.77" width="4.24" height="4.61"/></clipPath><clipPath id="clip-path-13"><path class="cls-2" d="M224.68,47.86V25.34h-5.34v6.43h-3v4.61h3V48.71c0,5.14,2.78,6.87,6.71,6.87a9.25,9.25,0,0,0,4.81-1.2V50a7.19,7.19,0,0,1-3.31.8c-1.81,0-2.87-.84-2.87-2.93"/></clipPath><clipPath id="clip-path-14"><rect class="cls-1" x="5.61" y="2" width="226.47" height="91.93"/></clipPath><clipPath id="clip-path-15"><polygon class="cls-2" points="168.44 55.05 168.45 31.78 173.07 31.74 173.08 39.95 180.06 31.72 185.81 31.73 173.06 46.99 173.03 55.05 168.44 55.05"/></clipPath><clipPath id="clip-path-17"><path class="cls-2" d="M186.82,55.27H181l-4.68-6.8,3-3.8Zm-13.58,0h-5V31.56l5.05,0v7.85L180,31.5h6.31l-13,15.56Z"/></clipPath><clipPath id="clip-path-19"><path class="cls-2" d="M103.85,35.18c-1.32,1.06-2.62,2.13-3.88,3.25l-.06,0a7.91,7.91,0,0,1,1.58,4.81v.08a7.8,7.8,0,0,1-1.55,4.78.52.52,0,0,1-.1.11,6.64,6.64,0,0,1-5.15,2.36l-7.12-.05V70.13h4.16V55.21a26,26,0,0,0,2.61.25,12.21,12.21,0,0,0,12.48-12.19v-.09a12.09,12.09,0,0,0-3-8"/></clipPath><clipPath id="clip-path-21"><path class="cls-2" d="M66.77,48.32a27.46,27.46,0,0,1-18,25.79v6.26a33.92,33.92,0,0,0,0-65v7.18a27.46,27.46,0,0,1,18,25.79"/></clipPath><clipPath id="clip-path-23"><path class="cls-2" d="M5.61,47.86A33.86,33.86,0,0,0,29.93,80.4V74.11a27.49,27.49,0,0,1,0-51.58V15.32A33.86,33.86,0,0,0,5.61,47.86"/></clipPath><clipPath id="clip-path-25"><path class="cls-2" d="M29.93,68.75V93.69h6.18V68.56a5,5,0,0,1-3.21,1.17,5,5,0,0,1-3-1"/></clipPath><clipPath id="clip-path-27"><path class="cls-2" d="M54.07,38.08c-2,1.57-3.88,3.16-5.76,4.82l-.07.05a11.71,11.71,0,0,1,2.33,7.12v.13a11.6,11.6,0,0,1-2.29,7.07l-.15.18a10,10,0,0,1-7.64,3.49l-4.3,0a5,5,0,0,1,.6,7,30.49,30.49,0,0,0,3.19.27,18.09,18.09,0,0,0,18.5-18.06v-.14a17.88,17.88,0,0,0-4.41-11.85"/></clipPath><clipPath id="clip-path-29"><path class="cls-2" d="M48.8,26.94V2H42.63V27.13A4.93,4.93,0,0,1,45.83,26a5,5,0,0,1,3,1"/></clipPath><clipPath id="clip-path-31"><path class="cls-2" d="M24.66,57.61c1.95-1.57,3.88-3.16,5.76-4.82l.08,0a11.64,11.64,0,0,1-2.33-7.12v-.13a11.59,11.59,0,0,1,2.28-7.07l.15-.18a9.91,9.91,0,0,1,7.64-3.49l4.31,0a5,5,0,0,1-.6-7c-.86-.1-2.32-.27-3.2-.27A18.09,18.09,0,0,0,20.26,45.62v.13a17.92,17.92,0,0,0,4.4,11.86"/></clipPath><clipPath id="clip-path-33"><path class="cls-2" d="M45.83,34.57a3.54,3.54,0,0,0,3-1.6,3.57,3.57,0,0,0,0-4,3.57,3.57,0,1,0-3,5.56"/></clipPath><clipPath id="clip-path-35"><path class="cls-2" d="M32.9,61.21a3.58,3.58,0,0,0-3,1.6,3.63,3.63,0,0,0,0,4,3.57,3.57,0,1,0,3-5.57"/></clipPath></defs><g class="cls-9"><rect class="cls-10" x="100.4" y="20.07" width="47.25" height="46.85"/></g><g class="cls-11"><rect class="cls-10" x="129.37" y="20.07" width="43.99" height="46.85"/></g><g class="cls-12"><rect class="cls-10" x="179.12" y="20.07" width="44.96" height="46.85"/></g><g class="cls-13"><g class="cls-14"><g class="cls-15"><g class="cls-16"><rect class="cls-10" x="215.49" y="20.56" width="26.66" height="27.03"/></g><g class="cls-17"><g class="cls-18"><rect class="cls-10" x="205.18" y="14.13" width="36.89" height="52.66"/></g></g><g class="cls-19"><g class="cls-18"><rect class="cls-10" x="157.23" y="20.5" width="39.79" height="45.76"/></g></g><g class="cls-20"><g class="cls-18"><rect class="cls-10" x="157.01" y="20.29" width="41.02" height="46.19"/></g></g><g class="cls-21"><g class="cls-18"><rect class="cls-10" x="76.35" y="23.97" width="41.68" height="57.37"/></g></g><g class="cls-22"><g class="cls-18"><rect class="cls-23" x="37.59" y="4.14" width="46.65" height="87.45"/></g></g><g class="cls-24"><g class="cls-18"><rect class="cls-23" x="-5.6" y="4.11" width="46.75" height="87.51"/></g></g><g class="cls-25"><g class="cls-18"><rect class="cls-10" x="18.72" y="57.35" width="28.6" height="47.55"/></g></g><g class="cls-26"><g class="cls-18"><rect class="cls-10" x="24.98" y="26.87" width="44.71" height="52.48"/></g></g><g class="cls-27"><g class="cls-18"><rect class="cls-10" x="31.41" y="-9.21" width="28.6" height="47.55"/></g></g><g class="cls-28"><g class="cls-18"><rect class="cls-10" x="9.04" y="16.34" width="44.71" height="52.48"/></g></g><g class="cls-29"><g class="cls-18"><rect class="cls-23" x="31.06" y="16.2" width="29.55" height="29.59"/></g></g><g class="cls-30"><g class="cls-18"><rect class="cls-23" x="18.13" y="50" width="29.55" height="29.59"/></g></g></g></g></g><path class="cls-31" d="M260.62,56.62a1,1,0,0,1-.43.53,1.09,1.09,0,0,1-.59.17h-.7l11.16-26.94a1,1,0,0,1,1-.67h.73Z"/><path class="cls-31" d="M317.68,43.11a15,15,0,0,1-.88,5.3,11.45,11.45,0,0,1-2.47,4,10.86,10.86,0,0,1-3.82,2.53,13.45,13.45,0,0,1-4.94.88h-9.25V30.43h9.25a13.45,13.45,0,0,1,4.94.88,10.86,10.86,0,0,1,3.82,2.53,11.36,11.36,0,0,1,2.47,4A14.9,14.9,0,0,1,317.68,43.11Zm-1.9,0a14.19,14.19,0,0,0-.73-4.73A9.85,9.85,0,0,0,313,34.86a8.94,8.94,0,0,0-3.22-2.19,11.15,11.15,0,0,0-4.18-.75h-7.4V54.33h7.4a11.15,11.15,0,0,0,4.18-.76A8.7,8.7,0,0,0,313,51.38a9.72,9.72,0,0,0,2.08-3.51A14.25,14.25,0,0,0,315.78,43.11Z"/><path class="cls-31" d="M342.19,55.82h-1.42a.6.6,0,0,1-.41-.14.9.9,0,0,1-.25-.35l-3-7.37H324.64l-3,7.37a.69.69,0,0,1-.25.34.64.64,0,0,1-.43.15h-1.4L330,30.43h1.83Zm-17-9.23h11.37l-5.18-12.82a6,6,0,0,1-.25-.69c-.09-.26-.17-.53-.25-.82-.09.29-.17.56-.26.82s-.16.49-.25.71Z"/><path class="cls-31" d="M358.49,33.52a.5.5,0,0,1-.46.3,1.05,1.05,0,0,1-.61-.33,6.86,6.86,0,0,0-1-.73,8,8,0,0,0-1.57-.75,6.87,6.87,0,0,0-2.33-.34,6.79,6.79,0,0,0-2.44.4,5.06,5.06,0,0,0-1.76,1.07,4.46,4.46,0,0,0-1.08,1.58,4.85,4.85,0,0,0-.37,1.88,3.82,3.82,0,0,0,.55,2.14,4.79,4.79,0,0,0,1.44,1.43,9.22,9.22,0,0,0,2,1c.76.27,1.54.53,2.34.8s1.59.55,2.35.87a8.21,8.21,0,0,1,2,1.19,5.4,5.4,0,0,1,1.44,1.77,5.54,5.54,0,0,1,.55,2.61,8.11,8.11,0,0,1-.55,3,6.94,6.94,0,0,1-1.58,2.45,7.52,7.52,0,0,1-2.55,1.64,9.22,9.22,0,0,1-3.44.6,9.64,9.64,0,0,1-4.33-.89A10.1,10.1,0,0,1,344,52.78l.5-.79a.64.64,0,0,1,.5-.26.74.74,0,0,1,.42.21l.61.53a10.37,10.37,0,0,0,.86.68,6.44,6.44,0,0,0,1.17.68,7.94,7.94,0,0,0,1.52.53,7.83,7.83,0,0,0,2,.22,7.56,7.56,0,0,0,2.7-.46,5.81,5.81,0,0,0,2-1.25A5.35,5.35,0,0,0,357.49,51a6.42,6.42,0,0,0,.43-2.32,4.06,4.06,0,0,0-.55-2.22A4.77,4.77,0,0,0,355.92,45a9,9,0,0,0-2-1c-.76-.26-1.54-.52-2.34-.77s-1.58-.53-2.34-.85a7.92,7.92,0,0,1-2-1.19,5.5,5.5,0,0,1-1.45-1.81,6.07,6.07,0,0,1-.55-2.72,6.32,6.32,0,0,1,.49-2.46,6.12,6.12,0,0,1,1.42-2.08,6.91,6.91,0,0,1,2.31-1.46,8.49,8.49,0,0,1,3.13-.54,9.68,9.68,0,0,1,3.55.62,8.48,8.48,0,0,1,2.86,1.92Z"/><path class="cls-31" d="M384.54,55.82h-1.85V43.65H366.8V55.82H365V30.43h1.85V42.27h15.89V30.43h1.85Z"/><path class="cls-31" d="M392.07,55.82V30.43h7.3a14.79,14.79,0,0,1,3.76.43,7.09,7.09,0,0,1,2.63,1.27,5.14,5.14,0,0,1,1.55,2,6.92,6.92,0,0,1,.51,2.73,5.33,5.33,0,0,1-.35,1.94,5.89,5.89,0,0,1-1,1.72,6.4,6.4,0,0,1-1.62,1.37,7.74,7.74,0,0,1-2.2.89,8.26,8.26,0,0,1,4.61,2,5.4,5.4,0,0,1,1.61,4.07,7.13,7.13,0,0,1-.57,2.91A5.88,5.88,0,0,1,406.62,54a7.67,7.67,0,0,1-2.69,1.37,12.54,12.54,0,0,1-3.62.48Zm1.83-13.51h5.51a8.86,8.86,0,0,0,3-.45,6,6,0,0,0,2-1.18A4.62,4.62,0,0,0,405.63,39a5.09,5.09,0,0,0,.38-1.92,4.73,4.73,0,0,0-1.62-3.89,7.91,7.91,0,0,0-5-1.31H393.9Zm0,1.34V54.34h6.37a7.67,7.67,0,0,0,5.06-1.44,5.6,5.6,0,0,0,1.25-6.22A4.65,4.65,0,0,0,405.26,45a6.17,6.17,0,0,0-2.12-1,10.38,10.38,0,0,0-2.85-.36Z"/><path class="cls-31" d="M437.71,43.11a15.49,15.49,0,0,1-.88,5.34,11.77,11.77,0,0,1-2.48,4.09,11,11,0,0,1-3.82,2.62,13.59,13.59,0,0,1-9.83,0,11,11,0,0,1-3.82-2.62,11.93,11.93,0,0,1-2.48-4.09,15,15,0,0,1-.89-5.34,15,15,0,0,1,.89-5.31,11.93,11.93,0,0,1,2.48-4.09,11,11,0,0,1,3.82-2.63,13.52,13.52,0,0,1,9.83,0,10.88,10.88,0,0,1,3.82,2.63,11.82,11.82,0,0,1,2.48,4.1A15.44,15.44,0,0,1,437.71,43.11Zm-1.9,0a14.52,14.52,0,0,0-.74-4.77A10.25,10.25,0,0,0,433,34.76a8.83,8.83,0,0,0-3.22-2.26,10.84,10.84,0,0,0-4.18-.78,10.68,10.68,0,0,0-4.14.78,8.92,8.92,0,0,0-3.22,2.26,10,10,0,0,0-2.1,3.58,15.61,15.61,0,0,0,0,9.56,10,10,0,0,0,2.1,3.57,9,9,0,0,0,3.22,2.25,10.86,10.86,0,0,0,4.14.77,11,11,0,0,0,4.18-.77A8.93,8.93,0,0,0,433,51.47a10.29,10.29,0,0,0,2.07-3.57A14.51,14.51,0,0,0,435.81,43.11Z"/><path class="cls-31" d="M462.28,55.82h-1.42a.64.64,0,0,1-.41-.14.9.9,0,0,1-.25-.35l-3-7.37H444.74l-3,7.37a.76.76,0,0,1-.25.34.64.64,0,0,1-.43.15h-1.4l10.39-25.39h1.83Zm-17-9.23h11.38l-5.19-12.82c-.08-.2-.16-.43-.25-.69s-.17-.53-.25-.82c-.08.29-.17.56-.25.82s-.17.49-.25.71Z"/><path class="cls-31" d="M468.67,44.33V55.82h-1.83V30.43h6.47q4.4,0,6.57,1.7a6,6,0,0,1,2.17,5,6.91,6.91,0,0,1-.5,2.65,6.37,6.37,0,0,1-1.45,2.11,7.78,7.78,0,0,1-2.27,1.49,10,10,0,0,1-3,.76,3.06,3.06,0,0,1,.77.72l8.73,11h-1.59a1,1,0,0,1-.49-.11,1.22,1.22,0,0,1-.41-.36l-8.12-10.3a1.83,1.83,0,0,0-.66-.55,2.63,2.63,0,0,0-1.08-.17Zm0-1.36h4.41a10.42,10.42,0,0,0,3-.4,6.52,6.52,0,0,0,2.26-1.16,5,5,0,0,0,1.41-1.81,5.73,5.73,0,0,0,.48-2.39,4.69,4.69,0,0,0-1.77-4,8.65,8.65,0,0,0-5.17-1.3h-4.64Z"/><path class="cls-31" d="M510.3,43.11a15,15,0,0,1-.88,5.3,11.45,11.45,0,0,1-2.47,4,10.86,10.86,0,0,1-3.82,2.53,13.49,13.49,0,0,1-4.94.88h-9.25V30.43h9.25a13.49,13.49,0,0,1,4.94.88A10.86,10.86,0,0,1,507,33.84a11.36,11.36,0,0,1,2.47,4A14.9,14.9,0,0,1,510.3,43.11Zm-1.9,0a14.19,14.19,0,0,0-.73-4.73,10.14,10.14,0,0,0-2.08-3.52,8.94,8.94,0,0,0-3.22-2.19,11.19,11.19,0,0,0-4.18-.75h-7.41V54.33h7.41a11.19,11.19,0,0,0,4.18-.76,8.7,8.7,0,0,0,3.22-2.19,10,10,0,0,0,2.08-3.51A14.25,14.25,0,0,0,508.4,43.11Z"/></svg>