<svg id="Layer_1" data-name="Layer 1" xmlns="http://www.w3.org/2000/svg" xmlns:xlink="http://www.w3.org/1999/xlink" viewBox="0 0 418.7 170.91"><defs><style>.cls-1,.cls-2{fill:none;}.cls-2{clip-rule:evenodd;}.cls-3{clip-path:url(#clip-path);}.cls-4{clip-path:url(#clip-path-2);}.cls-5{clip-path:url(#clip-path-3);}.cls-6{clip-path:url(#clip-path-4);}.cls-7{clip-path:url(#clip-path-5);}.cls-8{clip-path:url(#clip-path-6);}.cls-9{clip-path:url(#clip-path-7);}.cls-10{fill:#fff;}.cls-11{clip-path:url(#clip-path-8);}.cls-12{clip-path:url(#clip-path-10);}.cls-13{clip-path:url(#clip-path-12);}.cls-14{clip-path:url(#clip-path-13);}.cls-15{clip-path:url(#clip-path-15);}.cls-16{clip-path:url(#clip-path-17);}.cls-17{clip-path:url(#clip-path-19);}.cls-18{clip-path:url(#clip-path-21);}.cls-19{clip-path:url(#clip-path-23);}.cls-20{clip-path:url(#clip-path-25);}.cls-21{clip-path:url(#clip-path-27);}.cls-22{clip-path:url(#clip-path-29);}.cls-23{clip-path:url(#clip-path-31);}.cls-24{clip-path:url(#clip-path-33);}.cls-25{clip-path:url(#clip-path-35);}</style><clipPath id="clip-path"><path class="cls-1" d="M-418.6,264v74.3h99c-14.4,43.3-53.3,74.3-99,74.3-57.9,0-104.9-50-104.9-111.5s47.1-111.5,104.9-111.5a100.3,100.3,0,0,1,68,26.9l46-56c-31.5-29.1-71.9-45.2-113.9-45.2-96.4,0-174.9,83.4-174.9,185.8s78.5,185.8,174.9,185.8,174.9-83.4,174.9-185.8v-37.2Z"/></clipPath><clipPath id="clip-path-2"><path class="cls-1" d="M-282.7-334c33.4,2.6,66.6,5.4,94,13.9-27.2-4.4-60.2-11.1-94-12-14,27.2-42.1,40.5-80.9,43.3,4.2,8.9,12.2,12.3,14.1,26.8,2.9,21.5-4.6,53,2.8,67.3,3.5,6.9,9.3,7,13.2,12.9-9.5,11.1-33.1-1.3-35.7-12.9-4.6-20,7-51-5.6-64.6.9,21.8-5.2,52.4.9,71.9,2.4,7.7,9.4,10.6,7.5,17.5-44.2,4.4-25.7-56.4-32.9-92.2-6.7.5-3.7,9.8-3.8,13.8-.2,35,7.3,83.1-31,78.4-1.1-7.3,5.2-9.9,7.5-16.6,7-19.7-1.3-49.1,1.9-72.9-14.6,10.9,1.5,48.8-7.5,68.3-5.2,11.2-22,16.1-34.8,11.1,1.7-8.3,10.4-7,14.1-14.7,5.2-10.9,0-26.4,1.9-42.4-27.1,5.3-48.1-.7-58.3-17.5-4.6-7.5-5.7-16.4-11.3-23s-14.4-7.6-16.9-16.6c33.5-8,34.8,34,64.9,35,9.2.3,14-2.6,22.6-4.6,2.4-10.6,7.5-18.5,15.1-24-37.5-5.1-68.4-16.6-82.8-44.3a523.85,523.85,0,0,0-94.1,12.9c26.2-9.4,58.5-12.7,93.1-13.8-2-12.1-19.9-8.8-31-8.3-20.6.9-46.6,3.4-63,6.5,23.8-8.4,57.2-7.3,89.4-7.4-9.8-30.5-6.5-78.8,15-96.8-6.1-15.1-4.2-39.9,3.8-51.7,24,1.1,38.5,11.4,53.6,21.2,18.7-5.2,38.3-7.8,63.9-6.4,10.8.6,22,5.3,30.1,4.6s16.7-9.5,24.5-12.9c10.1-4.4,18.6-6,30.1-6.5,5.5,12.4,9.1,32.9,3.8,48,21.9,18.4,29.3,63.1,18.8,99.6,31.1,2.3,68.2-1.1,92.2,8.3-22.4-2.8-52.9-8.4-81.8-6.5C-275.1-341-283.1-341.53-282.7-334Z"/></clipPath><clipPath id="clip-path-3"><path class="cls-1" d="M245.6-1227a40.83,40.83,0,0,0-.8,23.5,41.74,41.74,0,0,0,30.1,30.1,42.57,42.57,0,0,0,23.5-.8Zm41.2-176.3c70.6,0,132.3,34.1,184.8,90.1a428,428,0,0,1,47,60.4c8,12.4,13.5,22.2,16.5,28.1a21,21,0,0,1-.3,19.2,412.23,412.23,0,0,1-47.5,70.2,20.81,20.81,0,0,1-29.4,2.5,20.81,20.81,0,0,1-2.5-29.4,362.47,362.47,0,0,0,37.2-53.2c-2.6-4.5-5.6-9.5-9-14.7a387.06,387.06,0,0,0-42.4-54.5c-45.3-48.4-97.1-76.9-154.4-76.9a171,171,0,0,0-39,4.5,20.88,20.88,0,0,1-25.1-15.6,20.88,20.88,0,0,1,15.6-25.1A213.54,213.54,0,0,1,286.8-1403.33Zm-125.5,91.9a364,364,0,0,0-80.3,96.1c2.6,4.5,5.6,9.5,9,14.7a387.06,387.06,0,0,0,42.4,54.5c45.3,48.4,97.1,76.9,154,76.9a189.55,189.55,0,0,0,91.6-25.3l-48.4-48.6a83.1,83.1,0,0,1-65,10.1,83.49,83.49,0,0,1-60.2-60.2,83.94,83.94,0,0,1,10.1-65ZM42.4-1459.83a20.76,20.76,0,0,1,29.5,0l459.2,459.2a20.76,20.76,0,0,1,0,29.5,20.76,20.76,0,0,1-29.5,0l-93.2-93.2a231.56,231.56,0,0,1-121.6,36.7c-70.6,0-132.3-34.1-184.8-90.1a428,428,0,0,1-47-60.4c-8-12.4-13.5-22.2-16.5-28.1a21,21,0,0,1,.3-19.2,405.07,405.07,0,0,1,92.9-115.7l-89.3-89.2A20.94,20.94,0,0,1,42.4-1459.83Z"/></clipPath><clipPath id="clip-path-4"><path class="cls-1" d="M-1291.74,500.47a34.69,34.69,0,0,0-.7,19.7,34.88,34.88,0,0,0,25.1,25.1,34.72,34.72,0,0,0,19.7-.7Zm34.4-147.1c58.9,0,110.4,28.4,154.3,75.2a355.15,355.15,0,0,1,39.2,50.4,253.54,253.54,0,0,1,13.7,23.4,17.69,17.69,0,0,1-.2,16A331.8,331.8,0,0,1-1090,577a17.33,17.33,0,0,1-24.5,2.1,17.33,17.33,0,0,1-2.1-24.5,302.54,302.54,0,0,0,31.1-44.4q-3.3-5.7-7.5-12.3a314.83,314.83,0,0,0-35.4-45.4c-37.8-40.4-81-64.2-128.9-64.2a143,143,0,0,0-32.6,3.7,17.35,17.35,0,0,1-20.9-13,17.35,17.35,0,0,1,13-20.9A171.82,171.82,0,0,1-1257.34,353.37Zm-104.8,76.7a305.69,305.69,0,0,0-67,80.2q3.3,5.7,7.5,12.3a314.83,314.83,0,0,0,35.4,45.4c37.8,40.4,81,64.2,128.6,64.2a157.65,157.65,0,0,0,76.5-21.2l-40.4-40.4a69.64,69.64,0,0,1-54.3,8.5,69.7,69.7,0,0,1-50.3-50.3,69.77,69.77,0,0,1,8.5-54.3Zm-99.2-123.9a17.38,17.38,0,0,1,24.6,0l88,88a15.37,15.37,0,0,1,1.7,1.9l-1.4-1.6,206.7,206.7.2.2.1.2,88,88a17.52,17.52,0,0,1,1.6,22.9l-1.6,1.8a17.38,17.38,0,0,1-24.6,0l-77.8-78a193.11,193.11,0,0,1-101.5,30.7c-58.9,0-110.4-28.4-154.3-75.2a355.15,355.15,0,0,1-39.2-50.4,253.54,253.54,0,0,1-13.7-23.4,17.69,17.69,0,0,1,.2-16,339,339,0,0,1,77.5-96.6l-74.5-74.5A17.5,17.5,0,0,1-1461.34,306.17Z"/></clipPath><clipPath id="clip-path-5"><path class="cls-1" d="M1906.78,1393.67H1821a21.66,21.66,0,0,0-21.5,21.8v21.8h128.8v-21.8a21.73,21.73,0,0,0-20.4-21.8Zm0,152.5a21.66,21.66,0,0,1,21.5,21.8v130.8a21.5,21.5,0,1,1-43,0V1568A21.72,21.72,0,0,1,1906.78,1546.17Zm-85.8,0a21.66,21.66,0,0,1,21.5,21.8v130.8a21.5,21.5,0,1,1-43,0V1568A21.66,21.66,0,0,1,1821,1546.17Zm171.7-65.4h-257.6v283.3a21.73,21.73,0,0,0,20.4,21.8h215.6a21.66,21.66,0,0,0,21.5-21.8Zm-85.9-130.7c35.6,0,64.4,29.3,64.4,65.4v21.8H2057a21.55,21.55,0,0,1,21.4,20.7v1.1a21.66,21.66,0,0,1-21.5,21.8h-21.5v283.3c0,35.6-28,64.6-62.9,65.4h-215.9c-35.6,0-64.4-29.3-64.4-65.4v-283.3h-21.5a21.55,21.55,0,0,1-21.4-20.7v-1.1a21.66,21.66,0,0,1,21.5-21.8h85.8v-21.8c0-35.6,28-64.6,62.9-65.4h87.3Z"/></clipPath><clipPath id="clip-path-6"><path class="cls-2" d="M199.45,79V78.8a21,21,0,0,1,21.37-21.1c12.29,0,21.31,9.4,21.31,20.94v.16a21,21,0,0,1-21.46,21A20.78,20.78,0,0,1,199.45,79m33.82,0V78.8c0-7.11-5-13-12.19-13-7.3,0-12,5.81-12,12.84v.16c0,7,5,12.92,12.12,12.92,7.37,0,12-5.81,12-12.77"/></clipPath><clipPath id="clip-path-7"><rect class="cls-1" x="-6.44" y="3.19" width="433.34" height="168.24"/></clipPath><clipPath id="clip-path-8"><path class="cls-2" d="M249.38,79V78.8c0-11.47,8.59-21.1,20.38-21.1a19.48,19.48,0,0,1,15.63,7l-5.63,6.19c-2.74-3-5.63-5-10.08-5-6.52,0-11.34,5.81-11.34,12.84v.16c0,7.18,4.82,12.92,11.71,12.92,4.23,0,7.34-2,10.16-5l5.41,5.5c-3.86,4.44-8.38,7.57-16,7.57-11.64,0-20.23-9.4-20.23-20.87"/></clipPath><clipPath id="clip-path-10"><path class="cls-2" d="M333.94,78.87v-.15c0-11.54,7.92-21,19.11-21,12.44,0,18.74,10.09,18.74,21.71,0,.84-.08,1.68-.15,2.6H342.9c1,6.57,5.48,10.24,11.26,10.24,4.37,0,7.48-1.68,10.59-4.82L370,92.25a19.55,19.55,0,0,1-16,7.57C342.68,99.82,333.94,91.33,333.94,78.87Zm29-3.35c-.6-5.91-4-10.53-10-10.53-5.5,0-9.36,4.31-10.18,10.53Z"/></clipPath><clipPath id="clip-path-12"><rect class="cls-1" x="395.95" y="58.51" width="7.25" height="8.1"/></clipPath><clipPath id="clip-path-13"><path class="cls-2" d="M392.54,86V48h-9.21V58.83h-5.1v7.78h5.1v20.8c0,8.68,4.79,11.6,11.57,11.6a16.13,16.13,0,0,0,8.29-2V89.58a12.5,12.5,0,0,1-5.71,1.35c-3.12,0-4.94-1.43-4.94-4.94"/></clipPath><clipPath id="clip-path-15"><polygon class="cls-2" points="296.08 98.2 296.1 58.61 304.03 58.55 304.04 72.52 316.02 58.51 325.88 58.52 304.02 84.48 303.96 98.2 296.08 98.2"/></clipPath><clipPath id="clip-path-17"><path class="cls-2" d="M327.49,99H317.7l-7.92-11.43,5.06-6.39ZM304.6,99h-8.51V58.61l8.57-.06V71.92L316,58.51l10.7,0L304.66,85Z"/></clipPath><clipPath id="clip-path-19"><path class="cls-2" d="M186.29,64.18c-2.25,1.81-4.48,3.65-6.66,5.57l-.08.06a13.56,13.56,0,0,1,2.69,8.24v.15a13.44,13.44,0,0,1-2.64,8.19,1.63,1.63,0,0,0-.17.2,11.51,11.51,0,0,1-8.85,4l-12.21-.09v33.58h7.14V98.54s3,.42,4.48.42c12.33,0,21.4-9.51,21.4-20.91V77.9a20.67,20.67,0,0,0-5.1-13.72"/></clipPath><clipPath id="clip-path-21"><path class="cls-2" d="M123.4,87.24a46.91,46.91,0,0,1-31.06,44v10.69a57.71,57.71,0,0,0,0-111V43.22a46.92,46.92,0,0,1,31.06,44"/></clipPath><clipPath id="clip-path-23"><path class="cls-2" d="M19.05,86.45a57.66,57.66,0,0,0,41.07,55.49V131.21a47,47,0,0,1,0-88V31A57.67,57.67,0,0,0,19.05,86.45"/></clipPath><clipPath id="clip-path-25"><path class="cls-2" d="M60.12,122v42.61H71.4V121.69a9.58,9.58,0,0,1-11.28.32"/></clipPath><clipPath id="clip-path-27"><path class="cls-2" d="M101.76,69.85C98.45,72.51,95.18,75.21,92,78l-.13.1a19.86,19.86,0,0,1,4,12.08v.22a19.69,19.69,0,0,1-3.88,12l-.26.29a16.85,16.85,0,0,1-13,5.93l-7.31,0a8.55,8.55,0,0,1,1,11.81,54,54,0,0,0,5.42.46c18.09,0,31.41-13.95,31.41-30.68V90a30.34,30.34,0,0,0-7.49-20.13"/></clipPath><clipPath id="clip-path-29"><path class="cls-2" d="M92.34,50.09V8.28H81.87V50.41a8.49,8.49,0,0,1,10.47-.32"/></clipPath><clipPath id="clip-path-31"><path class="cls-2" d="M51.5,103.06c3.31-2.7,6.59-5.45,9.78-8.31l.12-.09a20.43,20.43,0,0,1-3.95-12.28v-.22A20.21,20.21,0,0,1,61.33,70l.25-.3a16.77,16.77,0,0,1,13-6l7.31.06a8.8,8.8,0,0,1-1-12,54,54,0,0,0-5.42-.46A31,31,0,0,0,44,82.38v.23a31.11,31.11,0,0,0,7.48,20.45"/></clipPath><clipPath id="clip-path-33"><path class="cls-2" d="M87.91,63.37a6,6,0,0,0,5-2.72,6.09,6.09,0,0,0,0-6.72,6.05,6.05,0,1,0-5,9.44"/></clipPath><clipPath id="clip-path-35"><path class="cls-2" d="M65.36,108.73a6.08,6.08,0,1,0,6,6.08,6,6,0,0,0-6-6.08"/></clipPath></defs><g class="cls-8"><g class="cls-9"><rect class="cls-10" x="190.95" y="49.2" width="59.68" height="59.12"/></g></g><g class="cls-11"><g class="cls-9"><rect class="cls-10" x="240.88" y="49.2" width="53.23" height="59.12"/></g></g><g class="cls-12"><g class="cls-9"><rect class="cls-10" x="325.44" y="49.2" width="54.84" height="59.12"/></g></g><g class="cls-13"><rect class="cls-10" x="387.45" y="50.01" width="24.24" height="25.09"/></g><g class="cls-14"><g class="cls-9"><rect class="cls-10" x="369.73" y="39.48" width="41.96" height="68.03"/></g></g><g class="cls-15"><g class="cls-9"><rect class="cls-10" x="287.59" y="50.01" width="46.79" height="56.69"/></g></g><g class="cls-16"><g class="cls-9"><rect class="cls-10" x="287.59" y="50.01" width="48.4" height="57.5"/></g></g><g class="cls-17"><g class="cls-9"><rect class="cls-10" x="149.88" y="55.68" width="50.01" height="76.94"/></g></g><g class="cls-18"><g class="cls-9"><rect class="cls-10" x="83.84" y="22.47" width="58.87" height="127.97"/></g></g><g class="cls-19"><g class="cls-9"><rect class="cls-10" x="10.55" y="22.47" width="58.07" height="127.97"/></g></g><g class="cls-20"><g class="cls-9"><rect class="cls-10" x="51.63" y="113.19" width="28.27" height="59.93"/></g></g><g class="cls-21"><g class="cls-9"><rect class="cls-10" x="62.9" y="61.35" width="54.84" height="68.03"/></g></g><g class="cls-22"><g class="cls-9"><rect class="cls-10" x="73.37" y="-0.21" width="27.46" height="59.12"/></g></g><g class="cls-23"><g class="cls-9"><rect class="cls-10" x="35.52" y="42.72" width="54.84" height="68.84"/></g></g><g class="cls-24"><g class="cls-9"><rect class="cls-10" x="73.37" y="42.72" width="29.07" height="29.14"/></g></g><g class="cls-25"><g class="cls-9"><rect class="cls-10" x="50.82" y="100.23" width="29.07" height="29.14"/></g></g></svg>