<svg id="Layer_1" data-name="Layer 1" xmlns="http://www.w3.org/2000/svg" xmlns:xlink="http://www.w3.org/1999/xlink" viewBox="0 0 515.9 114.11"><defs><style>.cls-1{fill:none;}.cls-2{clip-path:url(#clip-path);}.cls-3{fill:#27a9e0;}.cls-4{clip-path:url(#clip-path-2);}.cls-5{clip-path:url(#clip-path-3);}.cls-6{clip-path:url(#clip-path-4);}.cls-7{clip-path:url(#clip-path-5);}.cls-8{clip-path:url(#clip-path-6);}.cls-9{clip-path:url(#clip-path-7);}.cls-10{clip-path:url(#clip-path-8);}.cls-11{clip-path:url(#clip-path-9);}.cls-12{clip-path:url(#clip-path-11);}.cls-13{clip-path:url(#clip-path-13);}.cls-14{clip-path:url(#clip-path-15);}.cls-15{fill:#06202e;}.cls-16{clip-path:url(#clip-path-17);}.cls-17{clip-path:url(#clip-path-19);}.cls-18{clip-path:url(#clip-path-21);}.cls-19{clip-path:url(#clip-path-23);}.cls-20{clip-path:url(#clip-path-25);}.cls-21{clip-path:url(#clip-path-27);}.cls-22{clip-path:url(#clip-path-29);}.cls-23{fill:#515151;}</style><clipPath id="clip-path" transform="translate(7.21 9.04)"><path class="cls-1" d="M110,43.78v-.09a12.42,12.42,0,0,1,24.83-.09v.09A12.21,12.21,0,0,1,122.6,55.88h-.21A12.08,12.08,0,0,1,110,44.09v-.31m19.49,0v-.09a7.21,7.21,0,0,0-6.91-7.51h-.23c-4.28,0-7,3.37-7,7.45v.09a7.2,7.2,0,0,0,6.93,7.46h.07c4.33,0,7.06-3.37,7.06-7.4"/></clipPath><clipPath id="clip-path-2" transform="translate(7.21 9.04)"><path class="cls-1" d="M139,43.78v-.09a12.06,12.06,0,0,1,11.88-12.24h.25a11.66,11.66,0,0,1,9.3,4L157.05,39a7.79,7.79,0,0,0-6-2.93c-3.89,0-6.75,3.37-6.75,7.45v.09c0,4.17,2.86,7.49,7,7.49a8.14,8.14,0,0,0,6-2.88l3.22,3.19A11.76,11.76,0,0,1,151,55.84,11.92,11.92,0,0,1,139,44v-.26"/></clipPath><clipPath id="clip-path-3" transform="translate(7.21 9.04)"><path class="cls-1" d="M188.72,43.73v-.08c0-6.7,4.72-12.2,11.38-12.2,7.4,0,11.15,5.86,11.15,12.59a8.62,8.62,0,0,1-.09,1.51H194.05a6.52,6.52,0,0,0,6.71,5.94,8.42,8.42,0,0,0,6.3-2.79l3.13,2.79a11.71,11.71,0,0,1-9.52,4.39C193.92,55.88,188.72,51,188.72,43.73ZM206,42c-.35-3.45-2.38-6.16-5.91-6.16-3.26,0-5.56,2.53-6,6.16Z"/></clipPath><clipPath id="clip-path-4" transform="translate(7.21 9.04)"><rect class="cls-1" x="4" y="2.17" width="225.33" height="91.69"/></clipPath><clipPath id="clip-path-5" transform="translate(7.21 9.04)"><rect class="cls-1" x="4" y="-0.07" width="226.47" height="94.18"/></clipPath><clipPath id="clip-path-6" transform="translate(7.21 9.04)"><rect class="cls-1" x="225.09" y="31.94" width="4.24" height="4.61"/></clipPath><clipPath id="clip-path-7" transform="translate(7.21 9.04)"><path class="cls-1" d="M223.07,48V25.51h-5.34v6.43h-3v4.61h3V48.88c0,5.14,2.78,6.87,6.71,6.87a9.2,9.2,0,0,0,4.81-1.2V50.17a7.19,7.19,0,0,1-3.31.8c-1.81,0-2.87-.84-2.87-2.93"/></clipPath><clipPath id="clip-path-8" transform="translate(7.21 9.04)"><rect class="cls-1" x="4" y="2.17" width="226.47" height="91.93"/></clipPath><clipPath id="clip-path-9" transform="translate(7.21 9.04)"><polygon class="cls-1" points="166.83 55.22 166.84 31.95 171.46 31.91 171.47 40.12 178.45 31.89 184.2 31.9 171.45 47.16 171.42 55.22 166.83 55.22"/></clipPath><clipPath id="clip-path-11" transform="translate(7.21 9.04)"><path class="cls-1" d="M185.21,55.44h-5.82l-4.68-6.8,3-3.8Zm-13.58,0h-5V31.73h5.05v7.85l6.71-7.91h6.31l-13,15.56Z"/></clipPath><clipPath id="clip-path-13" transform="translate(7.21 9.04)"><path class="cls-1" d="M102.24,35.35c-1.32,1.06-2.62,2.13-3.88,3.25H98.3a8,8,0,0,1,1.58,4.81v.08a7.83,7.83,0,0,1-1.55,4.78.52.52,0,0,1-.1.11,6.64,6.64,0,0,1-5.15,2.36L86,50.69V70.3h4.16V55.38a25.59,25.59,0,0,0,2.61.25,12.22,12.22,0,0,0,12.48-11.94v-.34a12.08,12.08,0,0,0-3-8"/></clipPath><clipPath id="clip-path-15" transform="translate(7.21 9.04)"><path class="cls-1" d="M65.16,48.49a27.46,27.46,0,0,1-18,25.79v6.26a33.92,33.92,0,0,0,0-65v7.18a27.46,27.46,0,0,1,18,25.79"/></clipPath><clipPath id="clip-path-17" transform="translate(7.21 9.04)"><path class="cls-1" d="M4,48A33.86,33.86,0,0,0,28.32,80.57V74.28a27.49,27.49,0,0,1,0-51.58V15.49A33.86,33.86,0,0,0,4,48"/></clipPath><clipPath id="clip-path-19" transform="translate(7.21 9.04)"><path class="cls-1" d="M28.32,68.92V93.86H34.5V68.73a5,5,0,0,1-6.21.17"/></clipPath><clipPath id="clip-path-21" transform="translate(7.21 9.04)"><path class="cls-1" d="M52.46,38.25c-2,1.57-3.88,3.16-5.76,4.82l-.07,0A11.71,11.71,0,0,1,49,50.24v.13a11.61,11.61,0,0,1-2.29,7.07l-.15.18a10,10,0,0,1-7.64,3.49h-4.3a5,5,0,0,1,.6,7,28.39,28.39,0,0,0,3.19.27A18.1,18.1,0,0,0,56.87,50.7v-.52a17.9,17.9,0,0,0-4.41-11.85"/></clipPath><clipPath id="clip-path-23" transform="translate(7.21 9.04)"><path class="cls-1" d="M47.19,27.11V2.17H41V27.3a5,5,0,0,1,6.2-.13"/></clipPath><clipPath id="clip-path-25" transform="translate(7.21 9.04)"><path class="cls-1" d="M23.05,57.78C25,56.21,26.93,54.62,28.81,53h.08a11.62,11.62,0,0,1-2.33-7.12v-.13a11.54,11.54,0,0,1,2.28-7.07l.15-.18A9.89,9.89,0,0,1,36.63,35h4.31a5,5,0,0,1-.6-7c-.86-.1-2.32-.27-3.2-.27A18.1,18.1,0,0,0,18.65,45.39v.53a17.94,17.94,0,0,0,4.4,11.86"/></clipPath><clipPath id="clip-path-27" transform="translate(7.21 9.04)"><path class="cls-1" d="M44.22,34.74a3.6,3.6,0,1,0-2.93-1.62,3.54,3.54,0,0,0,2.93,1.62"/></clipPath><clipPath id="clip-path-29" transform="translate(7.21 9.04)"><path class="cls-1" d="M31.29,61.38a3.58,3.58,0,0,0-3,1.6,3.63,3.63,0,0,0,0,4,3.57,3.57,0,1,0,5.91-4,3.54,3.54,0,0,0-2.91-1.57"/></clipPath></defs><g class="cls-2"><rect class="cls-3" x="106" y="29.28" width="47.25" height="46.85"/></g><g class="cls-4"><rect class="cls-3" x="134.97" y="29.28" width="43.99" height="46.85"/></g><g class="cls-5"><rect class="cls-3" x="184.72" y="29.28" width="44.96" height="46.85"/></g><g class="cls-6"><g class="cls-7"><g class="cls-8"><rect class="cls-3" x="221.09" y="29.77" width="26.66" height="27.03"/></g><g class="cls-9"><g class="cls-10"><rect class="cls-3" x="210.78" y="23.34" width="36.89" height="52.66"/></g></g><g class="cls-11"><g class="cls-10"><rect class="cls-3" x="162.83" y="29.71" width="39.79" height="45.76"/></g></g><g class="cls-12"><g class="cls-10"><rect class="cls-3" x="162.61" y="29.5" width="41.02" height="46.19"/></g></g><g class="cls-13"><g class="cls-10"><rect class="cls-3" x="81.95" y="33.18" width="41.68" height="57.37"/></g></g><g class="cls-14"><g class="cls-10"><rect class="cls-15" x="43.19" y="13.35" width="46.65" height="87.45"/></g></g><g class="cls-16"><g class="cls-10"><rect class="cls-15" y="13.32" width="46.75" height="87.51"/></g></g><g class="cls-17"><g class="cls-10"><rect class="cls-3" x="24.32" y="66.56" width="28.6" height="47.55"/></g></g><g class="cls-18"><g class="cls-10"><rect class="cls-3" x="30.58" y="36.08" width="44.71" height="52.48"/></g></g><g class="cls-19"><g class="cls-10"><rect class="cls-3" x="37.01" width="28.6" height="47.55"/></g></g><g class="cls-20"><g class="cls-10"><rect class="cls-3" x="14.64" y="25.55" width="44.71" height="52.48"/></g></g><g class="cls-21"><g class="cls-10"><rect class="cls-15" x="36.66" y="25.41" width="29.55" height="29.59"/></g></g><g class="cls-22"><g class="cls-10"><rect class="cls-15" x="23.73" y="59.21" width="29.55" height="29.59"/></g></g></g></g><path class="cls-23" d="M259,56.79a1,1,0,0,1-.43.53,1.12,1.12,0,0,1-.59.17h-.7l11.16-26.94a1,1,0,0,1,1-.67h.73Z" transform="translate(7.21 9.04)"/><path class="cls-23" d="M316.07,43.28a14.94,14.94,0,0,1-.88,5.3,11.51,11.51,0,0,1-2.47,4,10.77,10.77,0,0,1-3.82,2.53A13.45,13.45,0,0,1,304,56h-9.25V30.6H304a13.45,13.45,0,0,1,4.94.88A10.77,10.77,0,0,1,312.72,34a11.51,11.51,0,0,1,2.47,4A14.78,14.78,0,0,1,316.07,43.28Zm-1.9,0a14.05,14.05,0,0,0-.73-4.73A9.91,9.91,0,0,0,311.39,35a8.87,8.87,0,0,0-3.22-2.19,11,11,0,0,0-4.18-.75h-7.4V54.5H304a11.06,11.06,0,0,0,4.18-.76,8.71,8.71,0,0,0,3.22-2.19A9.85,9.85,0,0,0,313.47,48,14.27,14.27,0,0,0,314.17,43.28Z" transform="translate(7.21 9.04)"/><path class="cls-23" d="M340.58,56h-1.42a.56.56,0,0,1-.41-.14.81.81,0,0,1-.25-.35l-3-7.37H323l-3,7.37a.74.74,0,0,1-.68.49H318L328.39,30.6h1.83Zm-17-9.23H335l-5.18-12.82a5.69,5.69,0,0,1-.25-.69c-.09-.26-.17-.53-.25-.82-.09.29-.17.56-.26.82s-.16.49-.25.71Z" transform="translate(7.21 9.04)"/><path class="cls-23" d="M356.88,33.69a.51.51,0,0,1-.46.3,1.05,1.05,0,0,1-.61-.33,7.11,7.11,0,0,0-1-.73,7.55,7.55,0,0,0-1.57-.75,7.88,7.88,0,0,0-4.77.06,5.14,5.14,0,0,0-1.76,1.07,4.41,4.41,0,0,0-1.08,1.58,4.85,4.85,0,0,0-.37,1.88,3.83,3.83,0,0,0,.55,2.14,4.79,4.79,0,0,0,1.44,1.43,9.35,9.35,0,0,0,2,1c.76.27,1.54.53,2.34.8s1.59.55,2.35.87a8.26,8.26,0,0,1,2,1.19A5.38,5.38,0,0,1,357.38,46a5.6,5.6,0,0,1,.55,2.61,8.1,8.1,0,0,1-.55,3A7.07,7.07,0,0,1,355.8,54a7.64,7.64,0,0,1-2.55,1.64,9.21,9.21,0,0,1-3.44.6,9.64,9.64,0,0,1-4.33-.89A10.15,10.15,0,0,1,342.39,53l.5-.79a.63.63,0,0,1,.5-.26.73.73,0,0,1,.42.21l.61.53a9.52,9.52,0,0,0,.86.68,6.25,6.25,0,0,0,1.17.68,7.62,7.62,0,0,0,1.52.53,7.92,7.92,0,0,0,2,.22,7.52,7.52,0,0,0,2.7-.46,5.78,5.78,0,0,0,2-1.25,5.38,5.38,0,0,0,1.21-1.87,6.36,6.36,0,0,0,.43-2.32,4.1,4.1,0,0,0-.55-2.22,4.81,4.81,0,0,0-1.45-1.46,8.7,8.7,0,0,0-2-1c-.76-.26-1.54-.52-2.34-.77s-1.58-.53-2.34-.85a8.08,8.08,0,0,1-2-1.19,5.43,5.43,0,0,1-1.45-1.81,6.06,6.06,0,0,1-.55-2.72,6.32,6.32,0,0,1,.49-2.46,6.16,6.16,0,0,1,1.42-2.08,6.92,6.92,0,0,1,2.31-1.46,8.36,8.36,0,0,1,3.13-.54,9.56,9.56,0,0,1,3.55.62,8.53,8.53,0,0,1,2.86,1.92Z" transform="translate(7.21 9.04)"/><path class="cls-23" d="M382.93,56h-1.85V43.82H365.19V56h-1.8V30.6h1.85V42.44h15.89V30.6H383Z" transform="translate(7.21 9.04)"/><path class="cls-23" d="M390.46,56V30.6h7.3a14.87,14.87,0,0,1,3.76.43,7.14,7.14,0,0,1,2.63,1.27,5.07,5.07,0,0,1,1.55,2,6.9,6.9,0,0,1,.51,2.73,5.37,5.37,0,0,1-.35,1.94,5.7,5.7,0,0,1-1,1.72,6.45,6.45,0,0,1-1.62,1.37A7.65,7.65,0,0,1,401,43a8.23,8.23,0,0,1,4.61,2A5.4,5.4,0,0,1,407.26,49a7.09,7.09,0,0,1-.57,2.91A5.89,5.89,0,0,1,405,54.17a7.62,7.62,0,0,1-2.69,1.37,12.34,12.34,0,0,1-3.62.48Zm1.83-13.51h5.51a9,9,0,0,0,3-.45,6,6,0,0,0,2-1.18A4.52,4.52,0,0,0,404,39.17a5.06,5.06,0,0,0,.38-1.92,4.72,4.72,0,0,0-1.62-3.89,7.9,7.9,0,0,0-5-1.31h-5.49Zm0,1.34V54.51h6.37a7.69,7.69,0,0,0,5.06-1.44A5.61,5.61,0,0,0,405,46.85a4.7,4.7,0,0,0-1.32-1.68,6.07,6.07,0,0,0-2.12-1,10.56,10.56,0,0,0-2.85-.36Z" transform="translate(7.21 9.04)"/><path class="cls-23" d="M436.1,43.28a15.62,15.62,0,0,1-.88,5.34,11.76,11.76,0,0,1-2.48,4.09,11,11,0,0,1-3.82,2.62,13.55,13.55,0,0,1-9.83,0,11,11,0,0,1-3.82-2.62,11.92,11.92,0,0,1-2.48-4.09,14.94,14.94,0,0,1-.89-5.34,15,15,0,0,1,.89-5.31,11.92,11.92,0,0,1,2.48-4.09,11,11,0,0,1,3.82-2.63,13.55,13.55,0,0,1,9.83,0,10.85,10.85,0,0,1,3.82,2.63,11.81,11.81,0,0,1,2.48,4.1A15.44,15.44,0,0,1,436.1,43.28Zm-1.9,0a14.59,14.59,0,0,0-.74-4.77,10.21,10.21,0,0,0-2.07-3.58,8.76,8.76,0,0,0-3.22-2.26,10.89,10.89,0,0,0-4.18-.78,10.65,10.65,0,0,0-4.14.78,8.88,8.88,0,0,0-3.22,2.26,10,10,0,0,0-2.1,3.58,15.61,15.61,0,0,0,0,9.56,10,10,0,0,0,2.1,3.57,8.85,8.85,0,0,0,3.22,2.25,11.62,11.62,0,0,0,8.32,0,8.85,8.85,0,0,0,3.22-2.25,10.32,10.32,0,0,0,2.07-3.57A14.67,14.67,0,0,0,434.2,43.28Z" transform="translate(7.21 9.04)"/><path class="cls-23" d="M460.67,56h-1.42a.68.68,0,0,1-.41-.14.81.81,0,0,1-.25-.35l-3-7.37H443.13l-3,7.37a.84.84,0,0,1-.25.34.66.66,0,0,1-.43.15h-1.4L448.44,30.6h1.83Zm-17-9.23h11.38l-5.19-12.82c-.08-.2-.16-.43-.25-.69s-.17-.53-.25-.82c-.08.29-.17.56-.25.82s-.17.49-.25.71Z" transform="translate(7.21 9.04)"/><path class="cls-23" d="M467.06,44.5V56h-1.83V30.6h6.47q4.4,0,6.57,1.7a6,6,0,0,1,2.17,5,6.86,6.86,0,0,1-.5,2.65,6.52,6.52,0,0,1-1.45,2.11,7.63,7.63,0,0,1-2.27,1.49,10,10,0,0,1-3,.76A2.94,2.94,0,0,1,474,45l8.73,11h-1.59a.93.93,0,0,1-.49-.11,1.29,1.29,0,0,1-.41-.36l-8.12-10.3a1.86,1.86,0,0,0-.66-.55,2.64,2.64,0,0,0-1.08-.17Zm0-1.36h4.41a10.53,10.53,0,0,0,3-.4,6.48,6.48,0,0,0,2.26-1.16,5.08,5.08,0,0,0,1.41-1.81,5.77,5.77,0,0,0,.48-2.39,4.69,4.69,0,0,0-1.77-4,8.63,8.63,0,0,0-5.17-1.3H467Z" transform="translate(7.21 9.04)"/><path class="cls-23" d="M508.69,43.28a14.94,14.94,0,0,1-.88,5.3,11.51,11.51,0,0,1-2.47,4,10.77,10.77,0,0,1-3.82,2.53,13.45,13.45,0,0,1-4.94.88h-9.25V30.6h9.25a13.45,13.45,0,0,1,4.94.88A10.88,10.88,0,0,1,505.39,34a11.51,11.51,0,0,1,2.47,4A15,15,0,0,1,508.69,43.28Zm-1.9,0a14.05,14.05,0,0,0-.73-4.73A10.13,10.13,0,0,0,504,35a8.87,8.87,0,0,0-3.22-2.19,11.25,11.25,0,0,0-4.18-.75h-7.41V54.5h7.41a11.06,11.06,0,0,0,4.18-.76A8.71,8.71,0,0,0,504,51.55,9.85,9.85,0,0,0,506.06,48,14.22,14.22,0,0,0,506.79,43.28Z" transform="translate(7.21 9.04)"/></svg>