<svg id="Layer_1" data-name="Layer 1" xmlns="http://www.w3.org/2000/svg" xmlns:xlink="http://www.w3.org/1999/xlink" viewBox="0 0 220.36 251.4"><defs><style>.cls-1{fill:none;}.cls-2{clip-path:url(#clip-path);}.cls-3{clip-path:url(#clip-path-2);}.cls-4{clip-path:url(#clip-path-3);}.cls-5{clip-path:url(#clip-path-4);}.cls-6{clip-path:url(#clip-path-5);}.cls-7{clip-path:url(#clip-path-6);}.cls-8{clip-path:url(#clip-path-7);}.cls-9{clip-path:url(#clip-path-8);}.cls-10{clip-path:url(#clip-path-9);}.cls-11{clip-path:url(#clip-path-10);}.cls-12{clip-path:url(#clip-path-11);}.cls-13{clip-path:url(#clip-path-12);}.cls-14{clip-path:url(#clip-path-13);}.cls-15{fill:#25a9e0;}</style><clipPath id="clip-path"><path class="cls-1" d="M-526.8,129.3v74.3h99c-14.4,43.3-53.3,74.3-99,74.3-57.9,0-104.9-50-104.9-111.5S-584.6,54.9-526.8,54.9a100.3,100.3,0,0,1,68,26.9l46-56c-31.5-29.1-71.9-45.2-113.9-45.2-96.4,0-174.9,83.4-174.9,185.8s78.5,185.8,174.9,185.8,174.9-83.4,174.9-185.8V129.2Z"/></clipPath><clipPath id="clip-path-2"><path class="cls-1" d="M-390.9-468.7c33.4,2.6,66.6,5.4,94,13.9-27.2-4.4-60.2-11.1-94-12-14,27.2-42.1,40.5-80.9,43.3,4.2,8.9,12.2,12.3,14.1,26.8,2.9,21.5-4.6,53,2.8,67.3,3.5,6.9,9.3,7,13.2,12.9-9.5,11.1-33.1-1.3-35.7-12.9-4.6-20,7-51-5.6-64.6.9,21.8-5.2,52.4.9,71.9,2.4,7.7,9.4,10.6,7.5,17.5-44.2,4.4-25.7-56.4-32.9-92.2-6.7.5-3.7,9.8-3.8,13.8-.2,35,7.3,83.1-31,78.4-1.1-7.3,5.2-9.9,7.5-16.6,7-19.7-1.3-49.1,1.9-72.9-14.6,10.9,1.5,48.8-7.5,68.3-5.2,11.2-22,16.1-34.8,11.1,1.7-8.3,10.4-7,14.1-14.7,5.2-10.9,0-26.4,1.9-42.4-27.1,5.3-48.1-.7-58.3-17.5-4.6-7.5-5.7-16.4-11.3-23s-14.4-7.6-16.9-16.6c33.5-8,34.8,34,64.9,35,9.2.3,14-2.6,22.6-4.6,2.4-10.6,7.5-18.5,15.1-24-37.5-5.1-68.4-16.6-82.8-44.3A523.85,523.85,0,0,0-720-453.9c26.2-9.4,58.5-12.7,93.1-13.8-2-12.1-19.9-8.8-31-8.3-20.6.9-46.6,3.4-63,6.5,23.8-8.4,57.2-7.3,89.4-7.4-9.8-30.5-6.5-78.8,15-96.8-6.1-15.1-4.2-39.9,3.8-51.7,24,1.1,38.5,11.4,53.6,21.2,18.7-5.2,38.3-7.8,63.9-6.4,10.8.6,22,5.3,30.1,4.6s16.7-9.5,24.5-12.9c10.1-4.4,18.6-6,30.1-6.5,5.5,12.4,9.1,32.9,3.8,48,21.9,18.4,29.3,63.1,18.8,99.6,31.1,2.3,68.2-1.1,92.2,8.3-22.4-2.8-52.9-8.4-81.8-6.5C-383.3-475.7-391.3-476.2-390.9-468.7Z"/></clipPath><clipPath id="clip-path-3"><path class="cls-1" d="M137.4-1361.7a40.83,40.83,0,0,0-.8,23.5,41.74,41.74,0,0,0,30.1,30.1,42.57,42.57,0,0,0,23.5-.8ZM178.6-1538c70.6,0,132.3,34.1,184.8,90.1a428,428,0,0,1,47,60.4c8,12.4,13.5,22.2,16.5,28.1a21,21,0,0,1-.3,19.2,412.23,412.23,0,0,1-47.5,70.2,20.81,20.81,0,0,1-29.4,2.5,20.81,20.81,0,0,1-2.5-29.4,362.47,362.47,0,0,0,37.2-53.2c-2.6-4.5-5.6-9.5-9-14.7a387.06,387.06,0,0,0-42.4-54.5c-45.3-48.4-97.1-76.9-154.4-76.9a171,171,0,0,0-39,4.5,20.88,20.88,0,0,1-25.1-15.6,20.88,20.88,0,0,1,15.6-25.1A213.54,213.54,0,0,1,178.6-1538ZM53.1-1446.1A364,364,0,0,0-27.2-1350c2.6,4.5,5.6,9.5,9,14.7a387.06,387.06,0,0,0,42.4,54.5c45.3,48.4,97.1,76.9,154,76.9a189.55,189.55,0,0,0,91.6-25.3l-48.4-48.6a83.1,83.1,0,0,1-65,10.1,83.49,83.49,0,0,1-60.2-60.2,83.94,83.94,0,0,1,10.1-65ZM-65.8-1594.5a20.76,20.76,0,0,1,29.5,0l459.2,459.2a20.76,20.76,0,0,1,0,29.5,20.76,20.76,0,0,1-29.5,0L300.2-1199a231.56,231.56,0,0,1-121.6,36.7c-70.6,0-132.3-34.1-184.8-90.1a428,428,0,0,1-47-60.4c-8-12.4-13.5-22.2-16.5-28.1a21,21,0,0,1,.3-19.2,405.07,405.07,0,0,1,92.9-115.7L-65.8-1565A20.94,20.94,0,0,1-65.8-1594.5Z"/></clipPath><clipPath id="clip-path-4"><path class="cls-1" d="M-1347.2,148.3a17.17,17.17,0,0,0-.3,9.8,17.14,17.14,0,0,0,12.4,12.4,18.12,18.12,0,0,0,9.8-.3Zm17-72.9c29.2,0,54.7,14.1,76.5,37.3a177.21,177.21,0,0,1,19.4,25c3.3,5.2,5.6,9.2,6.8,11.6a8.79,8.79,0,0,1-.1,7.9,159.28,159.28,0,0,1-19.7,29,8.49,8.49,0,0,1-12.1,1,8.49,8.49,0,0,1-1-12.1,144.86,144.86,0,0,0,15.4-22c-1.1-1.9-2.3-3.9-3.7-6.1a158.64,158.64,0,0,0-17.5-22.5c-18.7-20-40.1-31.8-63.9-31.8a73.13,73.13,0,0,0-16.2,1.8,8.64,8.64,0,0,1-10.4-6.4,8.69,8.69,0,0,1,6.4-10.4A84.92,84.92,0,0,1-1330.2,75.4Zm-51.9,38a151.19,151.19,0,0,0-33.2,39.8c1.1,1.9,2.3,3.9,3.7,6.1a158.64,158.64,0,0,0,17.5,22.5c18.7,20,40.1,31.8,63.7,31.8a78.49,78.49,0,0,0,37.9-10.5l-20-20a34.23,34.23,0,0,1-26.9,4.2,34.53,34.53,0,0,1-24.9-24.9,34.65,34.65,0,0,1,4.2-26.9ZM-1431.3,52a8.57,8.57,0,0,1,12.2,0l43.6,43.6a6.47,6.47,0,0,1,.8.9l-.7-.8,102.5,102.5.1.1v.1l43.6,43.6a8.69,8.69,0,0,1,.8,11.4l-.8.9a8.57,8.57,0,0,1-12.2,0l-38.6-38.7a95.76,95.76,0,0,1-50.3,15.2c-29.2,0-54.7-14.1-76.5-37.3a177.21,177.21,0,0,1-19.4-25c-3.3-5.2-5.6-9.2-6.8-11.6a8.79,8.79,0,0,1,.1-7.9,169.69,169.69,0,0,1,38.4-47.9l-36.9-36.9A8.85,8.85,0,0,1-1431.3,52Z"/></clipPath><clipPath id="clip-path-5"><path class="cls-1" d="M-965.2,484.4h-33.4a8.47,8.47,0,0,0-8.4,8.5v8.5h50.1v-8.5a8.52,8.52,0,0,0-7.9-8.5Zm0,59.3a8.47,8.47,0,0,1,8.4,8.5V603a8.41,8.41,0,0,1-8.4,8.5,8.41,8.41,0,0,1-8.4-8.5V552.2A8.6,8.6,0,0,1-965.2,543.7Zm-33.3,0a8.47,8.47,0,0,1,8.4,8.5V603a8.41,8.41,0,0,1-8.4,8.5,8.41,8.41,0,0,1-8.4-8.5V552.2A8.47,8.47,0,0,1-998.5,543.7Zm66.7-25.4h-100.1V628.4a8.52,8.52,0,0,0,7.9,8.5h83.8a8.47,8.47,0,0,0,8.4-8.5Zm-33.4-50.8a25.22,25.22,0,0,1,25,25.4v8.5h33.4a8.35,8.35,0,0,1,8.3,8v.4a8.41,8.41,0,0,1-8.4,8.5h-8.4V628.4a25.26,25.26,0,0,1-24.5,25.4h-83.9a25.22,25.22,0,0,1-25-25.4V518.3h-8.4a8.35,8.35,0,0,1-8.3-8v-.4a8.41,8.41,0,0,1,8.4-8.5h33.4v-8.5a25.26,25.26,0,0,1,24.5-25.4h33.9Z"/></clipPath><clipPath id="clip-path-6"><path class="cls-1" d="M816.9,1398.8h-166V1293.4l83,52.7,83-52.7Zm0-126.4-83,52.7-83-52.7Zm20.8,0a21,21,0,0,0-20.8-21.1h-166a21,21,0,0,0-20.8,21.1v126.5a21,21,0,0,0,20.8,21.1h166a21,21,0,0,0,20.8-21.1Z"/></clipPath><clipPath id="clip-path-7"><path class="cls-1" d="M-506.1,1262.9v21.9h23.4Zm-45.2,30.4c5,0,9.1,3.8,9.1,8.5s-4.1,8.5-9.1,8.5h-18.1c-5,0-9.1-3.8-9.1-8.5s4.1-8.5,9.1-8.5Zm54.3,33.8c5,0,9.1,3.8,9.1,8.5s-4.1,8.5-9.1,8.5h-72.4c-5,0-9.1-3.8-9.1-8.5s4.1-8.5,9.1-8.5Zm0,33.9c5,0,9.1,3.8,9.1,8.5s-4.1,8.5-9.1,8.5h-72.4c-5,0-9.1-3.8-9.1-8.5s4.1-8.5,9.1-8.5Zm-27.2-110.1h-63.4c-5,0-9.1,3.8-9.1,8.5v135.4c0,4.7,4.1,8.5,9.1,8.5h108.7c5,0,9.1-3.8,9.1-8.5v-93.1h-45.3a8.79,8.79,0,0,1-9-7.9v-.6Zm9.1-16.9h.9a1.27,1.27,0,0,1,.6.1h.1a7.27,7.27,0,0,1,2.1.6.1.1,0,0,1,.1.1,5.39,5.39,0,0,1,1.3.7h.1a1.76,1.76,0,0,1,.5.4.1.1,0,0,1,.1.1.1.1,0,0,1,.1.1l.4.4,54.3,50.8.5.5-.5-.5.6.6a6.57,6.57,0,0,1,1.2,1.7.1.1,0,0,0,.1.1,7.86,7.86,0,0,1,.8,2.6v102.5c0,14-12.2,25.4-27.2,25.4H-587.7c-15,0-27.2-11.4-27.2-25.4V1259.4c0-14,12.2-25.4,27.2-25.4Z"/></clipPath><clipPath id="clip-path-8"><path class="cls-1" d="M282.85,838.89a6.27,6.27,0,0,0-6.3,6.3v36.1a6.17,6.17,0,0,1-6.3,6.1H147.65a6.17,6.17,0,0,1-6.3-6.1v-36.1a6.27,6.27,0,0,0-6.3-6.3h0a6.27,6.27,0,0,0-6.3,6.3v36.1a18.55,18.55,0,0,0,18.8,18.3h122.7a18.55,18.55,0,0,0,18.8-18.3v-36.1a6.13,6.13,0,0,0-6.2-6.3Z"/></clipPath><clipPath id="clip-path-9"><path class="cls-1" d="M207.35,744.89l-30.8,30.4a6.28,6.28,0,0,0,0,8.8h0a6,6,0,0,0,8.6,0l19.2-18.9V854a6.23,6.23,0,0,0,6.2,6.2h0a6.23,6.23,0,0,0,6.2-6.2v-88.9L236,784a6,6,0,0,0,8.6,0h0a6.28,6.28,0,0,0,0-8.8l-30.9-30.4A4.63,4.63,0,0,0,207.35,744.89Z"/></clipPath><clipPath id="clip-path-10"><path class="cls-1" d="M326.4,246.3h0c.1.1.1.1.1.2v.1l.1.1h0a.1.1,0,0,0,.1.1h0a.37.37,0,0,1,.1.3h0v.1h0v1.5c0,.1-.1.2-.1.3v.1c0,.1-.1.1-.1.2v.1a.1.1,0,0,1-.1.1h0c0,.1-.1.1-.2.2l.1-.1h0l-9.7,9.7a2.26,2.26,0,0,1-3.2-3.2l5.8-5.8H289.2a2.29,2.29,0,0,1-2.3-2.1V248a2.26,2.26,0,0,1,2.3-2.3h30.1l-5.8-5.8a2.21,2.21,0,0,1-.1-3.1l.1-.1a2.23,2.23,0,0,1,3.2,0ZM305.3,235a2.26,2.26,0,1,1-3.2,3.2l-9.7-9.7a2.23,2.23,0,0,0-3.2,0l-17.8,17.8a2.23,2.23,0,0,0,0,3.2l17.8,17.8a2.23,2.23,0,0,0,3.2,0l9.7-9.7a2.26,2.26,0,0,1,3.2,3.2l-9.7,9.7a6.82,6.82,0,0,1-9.7,0L268,252.8a6.82,6.82,0,0,1,0-9.7l17.8-17.8a6.82,6.82,0,0,1,9.7,0Z"/></clipPath><clipPath id="clip-path-11"><path class="cls-1" d="M597.7-296.39l-115.06,6.64-4.74-51.92H609.22Zm-16.86,59.3a7.64,7.64,0,0,1-7.7-7.57,7.64,7.64,0,0,1,7.7-7.57,7.65,7.65,0,0,1,7.71,7.57A7.65,7.65,0,0,1,580.84-237.09Zm-83.48,0a7.65,7.65,0,0,1-7.71-7.57,7.65,7.65,0,0,1,7.71-7.57,7.65,7.65,0,0,1,7.71,7.57A7.65,7.65,0,0,1,497.36-237.09ZM618.79-356.34H476.56l-2.12-23.13a7.41,7.41,0,0,0-7.44-6.68H451.82a7.41,7.41,0,0,0-7.47,7.34,7.41,7.41,0,0,0,7.47,7.34h8.35c4.56,49.91-7.23-79.1,8.59,94a28.09,28.09,0,0,0,10.76,19.12c-11.58,14.52-1,35.93,17.84,35.93,15.63,0,26.66-15.31,21.3-29.81h40.89c-5.36,14.48,5.64,29.81,21.29,29.81a22.47,22.47,0,0,0,22.65-22.24,22.48,22.48,0,0,0-22.65-22.25H497.41a13.89,13.89,0,0,1-12.76-8.26l119.4-6.89a7.42,7.42,0,0,0,6.81-5.54L626-347.22A7.37,7.37,0,0,0,618.79-356.34Z"/></clipPath><clipPath id="clip-path-12"><path class="cls-1" d="M9.53,530.94H67.65a6.77,6.77,0,0,1,6.77,6.77v11.7a6.77,6.77,0,0,1-6.77,6.77H9.53l9,9a6.78,6.78,0,0,1,0,9.56L10.28,583a6.76,6.76,0,0,1-9.59,0l-34.54-34.67a6.76,6.76,0,0,1,0-9.56L.69,504.11a6.78,6.78,0,0,1,9.59,0l8.23,8.26a6.77,6.77,0,0,1,0,9.55Zm114-77.34,34.11,34.62a6.77,6.77,0,0,1,0,9.51l-34.11,34.62a6.77,6.77,0,0,1-9.64,0l-8.09-8.21a6.78,6.78,0,0,1,0-9.5l8.91-9H56.07a6.77,6.77,0,0,1-6.77-6.77V487.12a6.77,6.77,0,0,1,6.77-6.77h58.65l-8.91-9a6.78,6.78,0,0,1,0-9.5l8.09-8.21A6.77,6.77,0,0,1,123.54,453.6Z"/></clipPath><clipPath id="clip-path-13"><path class="cls-1" d="M572.78,498.56a18.18,18.18,0,0,0-26.37,0l-80.07,83.1L432.89,547a18.17,18.17,0,0,0-26.37,0,19.86,19.86,0,0,0,0,27.37l46.63,48.39a18.14,18.14,0,0,0,26.37,0l93.26-96.78A19.87,19.87,0,0,0,572.78,498.56Z"/></clipPath></defs><path class="cls-15" d="M208.73,42.73h0l-73-39.5c-9.3-5-21.9-1.3-27,8.1L67.43,88H20.93a19.31,19.31,0,0,0-19.3,19.3v123.4A19.31,19.31,0,0,0,20.93,250h160.9a19.31,19.31,0,0,0,19.3-19.3v-22.8a12.12,12.12,0,0,0,9.5-11.8v-29.4a12.12,12.12,0,0,0-9.5-11.8v-29a16.89,16.89,0,0,0-7.3-13.8l22.9-42.4A20.19,20.19,0,0,0,208.73,42.73ZM108.83,109h-4.7l42.4-78,3.7,2Zm64.4,0h-45.7l36.9-68.1,34.8,18.9c.1.1.3.1.4.2s0,.1-.1.2v.1Zm-90.8,0h-4.5l47.9-88.6a1.27,1.27,0,0,1,.7-.4l2.9,1.6Zm-61.8-.3v-3.5h36.7l-1.7,3.5Zm0,19.5h160.7v26.3h-12.6a18.84,18.84,0,0,0-18.8,18.8v15.9a18.84,18.84,0,0,0,18.8,18.8h12.9v22.6h-161Zm170.5,60.7h-19.9a2.11,2.11,0,0,1-2.1-2.1v-11a2.11,2.11,0,0,1,2.1-2.1h19.9Z"/><path class="cls-15" d="M172.23,52a17.2,17.2,0,1,0,17.2,17.2A17.2,17.2,0,0,0,172.23,52Z"/></svg>