<?xml version="1.0" encoding="utf-8"?>
<!-- Generator: Adobe Illustrator 24.1.2, SVG Export Plug-In . SVG Version: 6.00 Build 0)  -->
<svg version="1.1" id="Layer_1" xmlns="http://www.w3.org/2000/svg" xmlns:xlink="http://www.w3.org/1999/xlink" x="0px" y="0px"
	 viewBox="0 0 1464.8 1471.3" style="enable-background:new 0 0 1464.8 1471.3;" xml:space="preserve">
<style type="text/css">
	.st0{clip-path:url(#SVGID_2_);}
	.st1{clip-path:url(#SVGID_4_);}
	.st2{clip-path:url(#SVGID_6_);}
	.st3{clip-path:url(#SVGID_8_);}
	.st4{clip-path:url(#SVGID_10_);}
	.st5{fill:#FF0000;}
</style>
<g>
	<defs>
		<path id="SVGID_1_" d="M732.4,402.8c36.8,0,66.6,29.8,66.6,66.6v0v266.5c0,36.8-29.9,66.6-66.7,66.6c-36.8,0-66.5-29.8-66.6-66.6
			V469.4C665.8,432.6,695.6,402.8,732.4,402.8z M685.2,888.5c26-26,68.1-26,94.1,0c26,26,26,68.1,0,94.1c-26,26-68.1,26-94,0
			C659.2,956.6,659.2,914.5,685.2,888.5C685.2,888.5,685.2,888.5,685.2,888.5z M732.4,136.3c-330.9,0-599.2,268.3-599.2,599.2
			s268.3,599.2,599.2,599.2s599.2-268.3,599.2-599.2C1331.5,404.6,1063.3,136.3,732.4,136.3z M732.4,3.1
			c404.4,0,732.4,327.9,732.4,732.4s-327.9,732.8-732.4,732.8S0,1140.3,0,735.5S327.9,3.1,732.4,3.1z"/>
	</defs>
	<clipPath id="SVGID_2_">
		<use xlink:href="#SVGID_1_"  style="overflow:visible;"/>
	</clipPath>
	<g class="st0">
		<g>
			<defs>
				<rect id="SVGID_3_" x="-102715.6" y="-35938.7" width="133361.6" height="78813"/>
			</defs>
			<clipPath id="SVGID_4_">
				<use xlink:href="#SVGID_3_"  style="overflow:visible;"/>
			</clipPath>
			<g class="st1">
				<g>
					<g>
						<defs>
							<rect id="SVGID_5_" x="-471.4" y="-468.3" width="2408" height="2408"/>
						</defs>
						<clipPath id="SVGID_6_">
							<use xlink:href="#SVGID_5_"  style="overflow:visible;"/>
						</clipPath>
						<g class="st2">
							<g>
								<defs>
									<rect id="SVGID_7_" x="-8.4" y="-5.3" width="1481.6" height="1481.6"/>
								</defs>
								<clipPath id="SVGID_8_">
									<use xlink:href="#SVGID_7_"  style="overflow:visible;"/>
								</clipPath>
								<g class="st3">
									<rect x="-463" y="-459.9" width="2390.8" height="2390.8"/>
								</g>
							</g>
							<g>
								<defs>
									<rect id="SVGID_9_" x="-8.4" y="-5.3" width="1481.6" height="1481.6"/>
								</defs>
								<clipPath id="SVGID_10_">
									<use xlink:href="#SVGID_9_"  style="overflow:visible;"/>
								</clipPath>
								<g class="st4">
									<rect x="-529.6" y="-526.5" class="st5" width="2524" height="2524"/>
								</g>
							</g>
						</g>
					</g>
				</g>
			</g>
		</g>
	</g>
</g>
</svg>
