<svg id="Layer_1" data-name="Layer 1" xmlns="http://www.w3.org/2000/svg" xmlns:xlink="http://www.w3.org/1999/xlink" viewBox="0 0 419.07 411.7"><defs><style>.cls-1{fill:none;}.cls-2{clip-path:url(#clip-path);}.cls-3{clip-path:url(#clip-path-2);}.cls-4{clip-path:url(#clip-path-3);}.cls-5{isolation:isolate;}.cls-6{clip-path:url(#clip-path-4);}.cls-7{clip-path:url(#clip-path-5);}.cls-8{fill:#25a9e0;}.cls-9{fill:#27a9e0;}</style><clipPath id="clip-path"><path class="cls-1" d="M-418.17,799.93v74.3h99c-14.4,43.3-53.3,74.3-99,74.3-57.9,0-104.9-50-104.9-111.5s47.1-111.5,104.9-111.5a100.3,100.3,0,0,1,68,26.9l46-56c-31.5-29.1-71.9-45.2-113.9-45.2-96.4,0-174.9,83.4-174.9,185.8s78.5,185.8,174.9,185.8,174.9-83.4,174.9-185.8v-37.2Z"/></clipPath><clipPath id="clip-path-2"><path class="cls-1" d="M-282.3,202c33.4,2.6,66.6,5.4,94,13.9-27.2-4.4-60.2-11.1-94-12-14,27.2-42.1,40.5-80.9,43.3,4.2,8.9,12.2,12.3,14.1,26.8,2.9,21.5-4.6,53,2.8,67.3,3.5,6.9,9.3,7,13.2,12.9-9.5,11.1-33.1-1.3-35.7-12.9-4.6-20,7-51-5.6-64.6.9,21.8-5.2,52.4.9,71.9,2.4,7.7,9.4,10.6,7.5,17.5-44.2,4.4-25.7-56.4-32.9-92.2-6.7.5-3.7,9.8-3.8,13.8-.2,35,7.3,83.1-31,78.4-1.1-7.3,5.2-9.9,7.5-16.6,7-19.7-1.3-49.1,1.9-72.9-14.6,10.9,1.5,48.8-7.5,68.3-5.2,11.2-22,16.1-34.8,11.1,1.7-8.3,10.4-7,14.1-14.7,5.2-10.9,0-26.4,1.9-42.4-27.1,5.3-48.1-.7-58.3-17.5-4.6-7.5-5.7-16.4-11.3-23s-14.4-7.6-16.9-16.6c33.5-8,34.8,34,64.9,35,9.2.3,14-2.6,22.6-4.6,2.4-10.6,7.5-18.5,15.1-24-37.5-5.1-68.4-16.6-82.8-44.3a523.85,523.85,0,0,0-94.1,12.9c26.2-9.4,58.5-12.7,93.1-13.8-2-12.1-19.9-8.8-31-8.3-20.6.9-46.6,3.4-63,6.5,23.8-8.4,57.2-7.3,89.4-7.4-9.8-30.5-6.5-78.8,15-96.8-6.1-15.1-4.2-39.9,3.8-51.7,24,1.1,38.5,11.4,53.6,21.2,18.7-5.2,38.3-7.8,63.9-6.4,10.8.6,22,5.3,30.1,4.6s16.7-9.5,24.5-12.9c10.1-4.4,18.6-6,30.1-6.5,5.5,12.4,9.1,32.9,3.8,48,21.9,18.4,29.3,63.1,18.8,99.6,31.1,2.3,68.2-1.1,92.2,8.3-22.4-2.8-52.9-8.4-81.8-6.5C-274.7,195-282.7,194.49-282.3,202Z"/></clipPath><clipPath id="clip-path-3"><path class="cls-1" d="M209.27,45.46A158.16,158.16,0,1,0,367.43,203.62,158.16,158.16,0,0,0,209.27,45.46Zm0-35.15c106.76,0,193.31,86.55,193.31,193.31S316,396.93,209.27,396.93,16,310.38,16,203.62,102.51,10.31,209.27,10.31Z"/></clipPath><clipPath id="clip-path-4"><rect class="cls-1" x="-108.49" y="-114.14" width="635.52" height="635.52"/></clipPath><clipPath id="clip-path-5"><rect class="cls-1" x="13.73" y="8.08" width="391.09" height="391.09"/></clipPath></defs><g class="cls-4"><g class="cls-5"><g class="cls-6"><g class="cls-7"><rect x="-106.25" y="-111.9" width="631.04" height="631.04"/><rect class="cls-8" x="-123.83" y="-129.48" width="666.19" height="666.19"/></g></g></g></g><path class="cls-9" d="M213.1,216.68a78.25,78.25,0,1,1,78.25-78.24A78.33,78.33,0,0,1,213.1,216.68ZM213.1,94a44.45,44.45,0,1,0,44.45,44.45A44.5,44.5,0,0,0,213.1,94Z"/><path class="cls-9" d="M339.34,332.89a18.11,18.11,0,0,1-16.2-10c-.26-.5-30-51.31-114.23-51.31-53.59,0-92.49,17.62-118.92,53.87a18.1,18.1,0,1,1-29.26-21.33c33.26-45.62,83.11-68.75,148.18-68.75,91,0,136.67,51.47,146.61,71.31a18.13,18.13,0,0,1-16.18,26.22Z"/></svg>